
<svg xmlns="http://www.w3.org/2000/svg" id="Layer_1" data-name="Layer 1" viewBox="0 0 279.5 87.42"><defs><style>.cls-1{fill:#0054a4;}.cls-2{fill:none;}.cls-3{fill:#231f20;}</style></defs><path d="M74.83 43.08A31.81 31.81 0 1 1 43 11.22a31.84 31.84 0 0 1 31.83 31.86M43 0A43.07 43.07 0 1 1 0 43.08 43.09 43.09 0 0 1 43 0zm0 84.66A41.58 41.58 0 1 0 1.49 43.08 41.59 41.59 0 0 0 43 84.66zM5.12 36l2.11.51a2.54 2.54 0 0 0 .77.07 1.51 1.51 0 0 0 .69-.2 1.6 1.6 0 0 0 .56-.55 3 3 0 0 0 .38-1 3.07 3.07 0 0 0 .09-1 1.75 1.75 0 0 0-.23-.75 1.83 1.83 0 0 0-.53-.5 2.69 2.69 0 0 0-.72-.29l-2.1-.52a.14.14 0 0 1-.14-.05 1.12 1.12 0 0 1 0-.19h-.12l-.45 1.6h.11a.37.37 0 0 1 .09-.13h.15l2.4.58a.61.61 0 0 1 .47.38 1.19 1.19 0 0 1 0 .69 1.13 1.13 0 0 1-.31.61.61.61 0 0 1-.6.12l-2.4-.59c-.07 0-.12 0-.12-.09a.24.24 0 0 1 0-.11H5.1l-.32 1.63h.12a1 1 0 0 1 .1-.14.14.14 0 0 1 .12-.08zm7.14-9l-3.55-1.54c-.07 0-.1-.07-.1-.12a.87.87 0 0 1 0-.19h-.1l-.73 1.46h.12a.62.62 0 0 1 .1-.15.16.16 0 0 1 .17 0l1.84.82-.87.26-.78.23-.59.17a.83.83 0 0 1-.26.06.14.14 0 0 1-.12-.13.52.52 0 0 1 0-.14l-.11-.05-.82 2 .11.05a.79.79 0 0 1 .11-.15.14.14 0 0 1 .16 0l3.54 1.58c.07 0 .1.07.1.12a.48.48 0 0 1 0 .17l.11.05.6-1.5h-.11a.62.62 0 0 1-.1.14.16.16 0 0 1-.16 0l-2.43-1.09c.4-.1.8-.21 1.18-.33l1-.32.77-.22a.78.78 0 0 1 .38 0 .11.11 0 0 1 .06.13.92.92 0 0 1-.05.17h.11l.76-1.52h-.12a.43.43 0 0 1-.11.15.13.13 0 0 1-.11-.11zM11 21l.09.08v-.05a.18.18 0 0 1 .09 0 1.23 1.23 0 0 1 .34.09l3.26 1.21.32.13a.14.14 0 0 1 .06.13.19.19 0 0 1-.05.12l.1.08 1.19-1.53-.09-.07a.18.18 0 0 1-.11.08.14.14 0 0 1-.14 0 1.61 1.61 0 0 1-.2-.26c-.1-.16-1.95-3.18-2-3.24a.18.18 0 0 1 0-.12.19.19 0 0 1 .05-.12l-.1-.08-1 1.16.1.08a.47.47 0 0 1 .08-.1.09.09 0 0 1 .12 0 1.82 1.82 0 0 1 .18.29l1.26 2.07-2.27-.95-.19-.08a.08.08 0 0 1 0-.12l.08-.12-.1-.07zm9.16-4.83l-1.87 1.73-.68-.73L18.87 16a.18.18 0 0 1 .12 0 .22.22 0 0 1 .16.1l.09-.07-.9-1-.08.08a.24.24 0 0 1 .09.17.17.17 0 0 1-.05.11L17 16.55l-.56-.61 2-1.84a.2.2 0 0 1 .12 0 .25.25 0 0 1 .17.11l.08-.08-.93-1-.08.08c.06.07.09.12.08.17a.18.18 0 0 1-.06.1l-3 2.87.08.09.16-.1a.15.15 0 0 1 .16.05l2.62 2.83c0 .06.06.11 0 .16a.64.64 0 0 1-.1.15l.07.09 3-2.85a.58.58 0 0 1 .13-.09.27.27 0 0 1 .18.05l.07-.06-.89-.95-.08.08c.07.12.07.2-.02.32zm-.35-3.9L22 15.43c0 .07.05.12 0 .16a.38.38 0 0 1-.07.1l.07.1 1.28-.93-.06-.1a.5.5 0 0 1-.16.06c-.05 0-.09 0-.14-.08l-.78-1.15.74-.5 1.15.64a.88.88 0 0 1 .22.16.09.09 0 0 1 0 .13.39.39 0 0 1-.11.1l.07.1 1.63-1-.08-.1a.33.33 0 0 1-.18.06.47.47 0 0 1-.2 0l-1.55-.71a2.07 2.07 0 0 0 .33-.83 1.23 1.23 0 0 0-.16-.94 1.3 1.3 0 0 0-1-.7 1.65 1.65 0 0 0-1.12.33l-2.41 1.71.07.1a.36.36 0 0 1 .13 0s.14.02.18.08zm1.9.71l-.57-.98 1-.7a.76.76 0 0 1 .55-.19.6.6 0 0 1 .33.24.52.52 0 0 1 .09.44.74.74 0 0 1-.31.37zm4.55-1.76l.21 1.39h.11v-.13a.17.17 0 0 1 .08-.09h.22l.48-.09a6 6 0 0 0 .61-.16 5.35 5.35 0 0 0 .64-.24 3.2 3.2 0 0 0 .78-.47 1.61 1.61 0 0 0 .44-.54 1.18 1.18 0 0 0 .14-.59 1.26 1.26 0 0 0-.12-.56 1 1 0 0 0-.49-.54 1.45 1.45 0 0 0-.57-.2 3.22 3.22 0 0 0-.74.13l-.7.21a3.42 3.42 0 0 1-.56.12.28.28 0 0 1-.31-.14.32.32 0 0 1 0-.29 1.12 1.12 0 0 1 .23-.25 1.42 1.42 0 0 1 .29-.2l.24-.11a2.51 2.51 0 0 1 .44-.15 2.37 2.37 0 0 1 .41-.07 1.62 1.62 0 0 1 .31 0h.15v.06a.4.4 0 0 0 0 .05h.13L28.7 7h-.11v.1a.14.14 0 0 1-.09.09l-.24.07-.42.09-.53.14a3.86 3.86 0 0 0-.58.23 2.69 2.69 0 0 0-.81.53 1.92 1.92 0 0 0-.42.6 1.4 1.4 0 0 0-.11.6 1.29 1.29 0 0 0 .11.5.94.94 0 0 0 .48.51 1.42 1.42 0 0 0 .66.1 3.07 3.07 0 0 0 .74-.14l.7-.21a2.65 2.65 0 0 1 .56-.12.31.31 0 0 1 .33.17.32.32 0 0 1 0 .26.67.67 0 0 1-.16.22.81.81 0 0 1-.23.17l-.2.1a4 4 0 0 1-.56.21 5.1 5.1 0 0 1-.59.14 2.6 2.6 0 0 1-.47 0c-.14 0-.21 0-.24-.1v-.06zm10.94-6.6l-3.79.76a.19.19 0 0 1-.12 0s-.07-.07-.09-.17h-.11l.3 1.46h.11v-.19a.17.17 0 0 1 .1-.06l1.29-.26.61 3.06v.15a.45.45 0 0 1-.13.07v.12L37 9.17V9h-.14a.13.13 0 0 1-.1-.13l-.61-3.06 1.29-.26a.19.19 0 0 1 .12 0s.07.07.09.16h.11l-.3-1.46h-.11v.2a.18.18 0 0 1-.11.13zm4.64 3.79L41.81 7l1.43-2.6a.18.18 0 0 1 .11-.09h.13v-.15h-1.8v.14h.12a.09.09 0 0 1 .08.1.87.87 0 0 1-.1.26c-.07.13-.61 1.1-.63 1.15L40.3 4.7a.53.53 0 0 1-.09-.22.08.08 0 0 1 .07-.09h.14v-.14l-1.94.17v.12h.14a.16.16 0 0 1 .12.07l1.85 2.49.07 1.3c0 .07 0 .12-.06.15h-.13v.12l1.62-.08v-.05L42 8.5s-.11-.06-.12-.13zm8.42-3.61a3.09 3.09 0 0 0-.87 0 2.25 2.25 0 0 0-.85.26 2.1 2.1 0 0 0-.7.59 2.2 2.2 0 0 0-.4 1 2.25 2.25 0 0 0 0 1.06 2.08 2.08 0 0 0 .43.8 2.35 2.35 0 0 0 .7.54 3.56 3.56 0 0 0 .84.28 3.22 3.22 0 0 0 .88 0 2.29 2.29 0 0 0 .85-.24 2.19 2.19 0 0 0 .71-.59 2.33 2.33 0 0 0 .4-1 2.28 2.28 0 0 0 0-1.06 2.06 2.06 0 0 0-.43-.81 2.54 2.54 0 0 0-.71-.55 3.17 3.17 0 0 0-.85-.28zm-.2 1.06a1.31 1.31 0 0 1 .47.17 1.27 1.27 0 0 1 .35.31 1.18 1.18 0 0 1 .2.42 1.53 1.53 0 0 1 0 .52 1.27 1.27 0 0 1-.19.48 1.11 1.11 0 0 1-.34.33 1.23 1.23 0 0 1-.44.16 1.31 1.31 0 0 1-.5 0 1.34 1.34 0 0 1-.46-.17 1.27 1.27 0 0 1-.36-.32 1.07 1.07 0 0 1-.19-.43 1.33 1.33 0 0 1 0-.51 1.38 1.38 0 0 1 .19-.49 1.08 1.08 0 0 1 .33-.33 1.35 1.35 0 0 1 .44-.17 1.17 1.17 0 0 1 .5.03zm3.94.22l-1.26 3.67a.14.14 0 0 1-.12.11h-.18v.11l1.66.51v-.12a.65.65 0 0 1-.16-.1s-.05-.08 0-.16l.45-1.3 1.6.55a.22.22 0 0 1 .09.08.29.29 0 0 1 0 .21h.11l.44-1.29h-.11c0 .09-.07.14-.11.15a.17.17 0 0 1-.12 0l-1.59-.55.3-.88 2.36.82a.19.19 0 0 1 .09.08.29.29 0 0 1 0 .21h.12L58 6.9h-.1c0 .09-.07.14-.12.16a.16.16 0 0 1-.11 0L53.84 5.7v.12l.18.1a.13.13 0 0 1-.02.16zm7.42 5.77l1.72 1.08-.81 1.3q-.07.1-.14.08a.62.62 0 0 1-.17-.06l-.07.1 1.43 1 .06-.1a.52.52 0 0 1-.13-.13v-.16l2.06-3.28a.13.13 0 0 1 .14-.08l.18.06.06-.11-1.44-1-.07.11a.52.52 0 0 1 .13.13v.16l-.68 1.11L62 11l.69-1.11c0-.06.09-.09.13-.08l.18.06.06-.1-1.51-.87-.09.1a.66.66 0 0 1 .14.13.14.14 0 0 1 0 .16l-2 3.3a.13.13 0 0 1-.14.08l-.18-.06-.07.11 1.51.86.07-.1a.63.63 0 0 1-.13-.13.16.16 0 0 1 0-.16zM67 18.41l1.1 1.11.09-.09a.2.2 0 0 1-.07-.09.13.13 0 0 1 0-.11c.07-.18 1.28-3.85 1.34-4a2.81 2.81 0 0 1 .11-.27h.16l.08-.09-1.41-1.29-.07.09c.05.06.06.11 0 .15a1.81 1.81 0 0 1-.38.21L64.4 15.8a.13.13 0 0 1-.11 0l-.1-.05-.08.09 1.09.89.08-.09v-.15l.11-.07.54-.27 1.59 1.42-.2.61a.43.43 0 0 1-.06.12h-.15zm.75-1.56l-1.14-1L68.3 15zm6.45 11.78l.63 1.44.11-.05a.33.33 0 0 1 0-.11.14.14 0 0 1 0-.1c.13-.14 2.57-3.15 2.68-3.28a1.42 1.42 0 0 1 .2-.21c.05 0 .1 0 .15.06l.1-.05-.87-1.7-.11.05v.16a2.53 2.53 0 0 1-.44.07l-3.95.39a.13.13 0 0 1-.1 0 .24.24 0 0 1-.07-.09l-.11.05.7 1.23.11-.06a.19.19 0 0 1 0-.07s0-.06.05-.08h.13l.61-.06 1 1.9-.41.49a.43.43 0 0 1-.1.08h-.1v-.06zm1.25-1.19l-.71-1.36 1.93-.15zm-2.71-9.4l-1-1.2-.1.07a.16.16 0 0 1 0 .08s0 .07-.05.11-2.35 3.22-2.37 3.24a.25.25 0 0 1-.3-.08l-.1.07L70 21.82l.1-.07a1.29 1.29 0 0 1-.07-.16v-.11l.21-.1 2-.68.27-.11-.18.24-1.18 1.73a1 1 0 0 1-.15.19c-.05 0-.15 0-.27-.14l-.1.08 1.11 1.59.1-.07c-.09-.15 0-.26 0-.31l3.57-1.38.19-.05a.2.2 0 0 1 .18.08l.1-.07-.82-1.25-.1.07a.42.42 0 0 1 .08.16.16.16 0 0 1-.07.15s-2.36 1-2.43 1l1.46-2.1.13-.17a.15.15 0 0 1 .16 0 .46.46 0 0 1 .13.12l.1-.08-1.12-1.5-.09.08a.5.5 0 0 1 .07.15.15.15 0 0 1-.07.16 1 1 0 0 1-.23.1c-.11 0-2.27.77-2.33.8 0-.05 1.58-2.11 1.61-2.12a.13.13 0 0 1 .16 0 .43.43 0 0 1 .13.11zm7.16 12.88l-.61-1.72h-.12a1 1 0 0 1 0 .22.13.13 0 0 1-.1.12l-3.61 1.36a.13.13 0 0 1-.15 0 .58.58 0 0 1-.11-.2h-.12l.61 1.72h.11a.81.81 0 0 1 0-.22c0-.05 0-.1.11-.12l3.63-1.32h.16a.54.54 0 0 1 .11.19zM31.84 5.79l-1.74.57v.12a.81.81 0 0 1 .22 0c.05 0 .09 0 .12.11l1.21 3.69a.13.13 0 0 1 0 .15.7.7 0 0 1-.2.11v.12l1.74-.57v-.12A.73.73 0 0 1 33 10a.13.13 0 0 1-.12-.11l-1.22-3.71a.13.13 0 0 1 0-.16.65.65 0 0 1 .19-.11zM10.34 22l-1 1.56.11.06a.61.61 0 0 1 .14-.16h.16l3.32 2a.12.12 0 0 1 .08.13 1 1 0 0 1-.08.21l.11.06 1-1.56-.1-.06a.73.73 0 0 1-.15.16.14.14 0 0 1-.16 0l-3.31-2a.14.14 0 0 1-.08-.14 1 1 0 0 1 .08-.21zm70.9 14.16l-.37-1.79h-.12a.69.69 0 0 1 0 .22.14.14 0 0 1-.13.11l-3.79.8a.13.13 0 0 1-.15 0 1 1 0 0 1-.08-.21h-.12l.37 1.79h.12a.73.73 0 0 1 0-.22.13.13 0 0 1 .13-.11l3.77-.75a.13.13 0 0 1 .13 0 .88.88 0 0 1 .08.2zm-.1-2.92l.3-.08a3.57 3.57 0 0 0-.37-.43 1.83 1.83 0 0 0-.46-.34 1.69 1.69 0 0 0-.54-.18 1.44 1.44 0 0 0-.61 0 1.22 1.22 0 0 0-.58.35.62.62 0 0 0-.12.61.74.74 0 0 0 .32.43.77.77 0 0 0 1-.32 1 1 0 0 0 0-.6.92.92 0 0 1 .59.13 1.73 1.73 0 0 1 .47.45zm-29.79 43l1.17-.35m-1.24.11l.14.48 1.17-.35-.14-.49zm19.55-6.56l.86-.94-.07-.07a.12.12 0 0 1-.07 0h-.12l-2.07-.57c0-.12-.07-.81-.09-1s0-.33 0-.47a.6.6 0 0 1 .05-.29l-.07-.07-.84.92.08.06.09-.05a.12.12 0 0 1 .12 0 .35.35 0 0 1 0 .13v.28s.08 1.42.09 1.51l-1-1a.1.1 0 0 1 0-.11.49.49 0 0 1 .06-.11l-.07-.06-.83.82.07.07a.13.13 0 0 1 .09-.07.12.12 0 0 1 .11 0l2.14 2.07a.12.12 0 0 1 0 .12.12.12 0 0 1 0 .09l.06.07.84-.82-.09.05a.41.41 0 0 1-.11.07h-.12l-.46-.44-.11-.85 1.3.37h.11a.11.11 0 0 1 0 .12l-.06.1zm-17 10.45l1-.3v-.09h-.13a.07.07 0 0 1-.05 0l-1.8-2.5-.12-.18a.08.08 0 0 1 .06-.1v-.09L51.5 77v.09c.05 0 .09 0 .1.05a2.35 2.35 0 0 1 0 .35c0 .2-.2 2.5-.22 2.89a.1.1 0 0 1 0 .07h-.07v.09l.9-.21v-.14a.4.4 0 0 1 0-.1v-.45l1.4-.39.26.37a.82.82 0 0 1 0 .09v.07zm-.63-1.13l-1 .28.13-1.46zm10.1-3.13l.86-.56-.06-.07a.12.12 0 0 1-.1 0 .12.12 0 0 1-.07 0l-2.37-1.9a1 1 0 0 1-.17-.15v-.19l-1.13.67v.08a.07.07 0 0 1 .11 0 2.33 2.33 0 0 1 .09.34c0 .2.48 2.47.57 2.84a.09.09 0 0 1 0 .08.13.13 0 0 1-.05.05v.08l.82-.45v-.08h-.06a.89.89 0 0 1 0-.1s-.07-.4-.08-.44l1.24-.74.35.28.07.07v.07zm-.91-.91l-.89.53-.27-1.44zm11.22-8.55l.61-.82-.08-.06h-.06a.08.08 0 0 1-.07 0l-2.9-.92-.21-.08a.08.08 0 0 1 0-.11l-.07-.06-.81 1 .07.06a.08.08 0 0 1 .12 0l.19.29c.11.17 1.33 2.13 1.55 2.45a.11.11 0 0 1 0 .08.11.11 0 0 1 0 .07l.07.06.6-.72-.07-.06h-.07l-.06-.08-.32-.27.9-1.14.42.13h.09v.07zm-1.17-.53l-.65.83-.79-1.25zM50.17 77.28v-.23a3 3 0 0 0-.29.25 1.49 1.49 0 0 0-.25.32 1.45 1.45 0 0 0-.13.39 1.18 1.18 0 0 0 0 .46.9.9 0 0 0 .21.46.37.37 0 0 0 .4.14.44.44 0 0 0 .29-.2.49.49 0 0 0 .08-.41.55.55 0 0 0-.24-.39.58.58 0 0 0-.39-.06.71.71 0 0 1 .11-.43 1.28 1.28 0 0 1 .21-.3zm5.18-1.52l-1.17.42v.09h.15s.07 0 .09.08l1 2.8v.12a.39.39 0 0 1-.13.08v.09L56.5 79v-.09a.4.4 0 0 1-.15 0s-.07 0-.09-.08l-1-2.8v-.12a.49.49 0 0 1 .13-.08zm9.57-5.51l-1 .76.05.07.14-.07s.07 0 .11.06l1.84 2.33v.12a.31.31 0 0 1-.1.12l.07.08L67 73v-.12l-.13.07a.12.12 0 0 1-.12-.05l-1.83-2.33s-.05-.08 0-.12a.43.43 0 0 1 .1-.11zm-4.68 6.83L59 74.39v-.12a.22.22 0 0 1 .1-.08v-.09l-1 .49v.08h.13s.06 0 .09.08l.64 1.4-1.52-.83c-.1-.06-.14-.08-.15-.1a.1.1 0 0 1 0-.11l.07-.06v-.09l-1.36.57v.09a.25.25 0 0 1 .12 0s.07 0 .09.08l1.24 2.7a.11.11 0 0 1 0 .12.22.22 0 0 1-.09.07v.09l1-.42v-.09h-.12a.12.12 0 0 1-.09-.08l-.85-1.86c.26.16 1.27.7 1.49.82l.53.29c.13.08.21.14.23.18a.07.07 0 0 1 0 .1l-.11.06v.09l1-.52v-.09h-.12s-.05-.02-.08-.07zm19.45-23.77l-2.83-.91c-.05 0-.08 0-.09-.08a.44.44 0 0 1 0-.13h-.09l-.3 1.05h.09a.41.41 0 0 1 .07-.11.13.13 0 0 1 .13 0l1.46.47-1.63.56h-.18a.1.1 0 0 1-.09-.07.55.55 0 0 1 0-.1h-.09l-.5 1.41h.09a.45.45 0 0 1 .06-.11.12.12 0 0 1 .12 0l2.83.91c.06 0 .09 0 .09.08a.78.78 0 0 1 0 .12h.09l.36-1h-.09a.18.18 0 0 1-.06.1h-.12l-1.95-.63c.3-.08 1.38-.47 1.61-.54l.56-.19a.68.68 0 0 1 .3 0 .08.08 0 0 1 .06.09.28.28 0 0 1 0 .11h.09l.32-1.13h-.09a.49.49 0 0 1-.07.11s-.1.01-.15-.01zm-6.76 8.15L75.48 63c.05 0 .08.06.08.09v.07h.08l.56-.92-.08-.05a.26.26 0 0 1-.08.07h-.12l-.83-.5.36-.61a2.17 2.17 0 0 0 .19-.41 1 1 0 0 0 0-.41 1 1 0 0 0-.16-.41 1.37 1.37 0 0 0-.43-.37 1.23 1.23 0 0 0-.54-.2.93.93 0 0 0-.42.05 1 1 0 0 0-.35.24 2.24 2.24 0 0 0-.27.36l-.84 1.42h.13a.13.13 0 0 1 .17.04zm1.59 0l-.8-.48.33-.55a.47.47 0 0 1 .27-.24.5.5 0 0 1 .36.1.47.47 0 0 1 .25.28.53.53 0 0 1-.1.38zm.34-4.23a1.76 1.76 0 0 0-.14.59 1.51 1.51 0 0 0 .07.62 1.58 1.58 0 0 0 .35.58 1.87 1.87 0 0 0 .67.46 2 2 0 0 0 .8.19 1.54 1.54 0 0 0 .65-.15 1.48 1.48 0 0 0 .5-.37 1.91 1.91 0 0 0 .32-.51 2.1 2.1 0 0 0 .15-.58 1.49 1.49 0 0 0-.07-.62 1.62 1.62 0 0 0-.34-.57 2 2 0 0 0-.69-.46 1.89 1.89 0 0 0-.79-.18 1.6 1.6 0 0 0-.66.13 1.67 1.67 0 0 0-.5.37 1.73 1.73 0 0 0-.32.47zm.75.33a1 1 0 0 1 .2-.28.85.85 0 0 1 .29-.18.92.92 0 0 1 .34-.05 1.16 1.16 0 0 1 .39.1 1.06 1.06 0 0 1 .33.22.69.69 0 0 1 .2.28.83.83 0 0 1 .06.33.89.89 0 0 1-.07.34.81.81 0 0 1-.2.28.86.86 0 0 1-.28.18.88.88 0 0 1-.34.05 1.16 1.16 0 0 1-.39-.1 1.24 1.24 0 0 1-.34-.21 1 1 0 0 1-.2-.28 1 1 0 0 1-.05-.33 1 1 0 0 1 .06-.38zM8.7 59.68l2-1-1.57 1.82 2.44-.21-2 1a.11.11 0 0 1-.11 0 .33.33 0 0 1-.08-.09H9.3l.5.91h.08a.37.37 0 0 1 0-.09s0-.06.08-.09l2.65-1.36h.11l.07.06h.08l-.68-1.22h-.08a.74.74 0 0 1 0 .08v.05a.51.51 0 0 1-.2 0l-1.22.09s.7-.78.79-.88l.17-.17h.06l.05.07h.08l-.59-1.24h-.08a.24.24 0 0 1 0 .1s0 .07-.07.09l-2.66 1.47h-.12L8.24 59h-.08l.41.89h.09a.34.34 0 0 1 0-.13s-.01-.05.04-.08zm6.23 4.52l-1.37 1.12a2.29 2.29 0 0 0-.41.43 1.27 1.27 0 0 0-.22.5 1.06 1.06 0 0 0 0 .55 1.8 1.8 0 0 0 .36.61 1.78 1.78 0 0 0 .52.47 1.2 1.2 0 0 0 .54.14 1.29 1.29 0 0 0 .53-.12 2.33 2.33 0 0 0 .5-.31l1.36-1.13h.12a.37.37 0 0 1 .1.08l.07-.06-.74-.85-.07.06a.23.23 0 0 1 0 .07s0 .07-.06.1l-1.47 1.21a.48.48 0 0 1-.44.13.72.72 0 0 1-.39-.26.77.77 0 0 1-.18-.44.48.48 0 0 1 .22-.4l1.48-1.22s.08-.05.11 0h.07l.07-.06-.63-.92-.08.06a.62.62 0 0 1 .06.12.13.13 0 0 1-.05.11zM8.39 48.93l-1.72.37a3.09 3.09 0 0 0-.56.19 1.31 1.31 0 0 0-.43.35 1.1 1.1 0 0 0-.22.51 2.17 2.17 0 0 0 0 .71 2 2 0 0 0 .25.66 1.1 1.1 0 0 0 .41.38 1.33 1.33 0 0 0 .53.14 2.33 2.33 0 0 0 .59 0L9 51.82h.12a.4.4 0 0 1 0 .12h.1L9 50.85h-.09a.35.35 0 0 1 0 .07l-.1.06-1.86.39a.46.46 0 0 1-.45-.08.69.69 0 0 1-.23-.42.71.71 0 0 1 0-.47.51.51 0 0 1 .39-.26l1.86-.39a.13.13 0 0 1 .11 0v.07h.09l-.2-1.12h-.09a.51.51 0 0 1 0 .13s.02.09-.04.1zm13.94 25.66l-1.44-1 .45-.63 1 .69a.09.09 0 0 1 0 .07s0 .08-.05.14h.06l.59-.83h-.06c0 .06-.08.09-.11.09a.13.13 0 0 1-.08 0l-1-.69.37-.51 1.49 1.06a.14.14 0 0 1 0 .07.25.25 0 0 1-.07.15h.07l.61-.85h-.06a.19.19 0 0 1-.11.09.1.1 0 0 1-.08 0l-2.31-1.66v.08a.24.24 0 0 1 .08.09.11.11 0 0 1 0 .12l-1.74 2.43a.11.11 0 0 1-.11.06h-.11l-.05.07 2.26 1.63a.23.23 0 0 1 .08.07v.14l.6-.84h-.06c-.07-.01-.15.01-.22-.04zm5.06 2.79l-1.59-.8.35-.7 1.05.54a.08.08 0 0 1 .06.07v.15h.07l.46-.92h-.07c0 .06-.07.1-.1.11h-.12l-1-.53.28-.57 1.63.83a.12.12 0 0 1 .06.07.2.2 0 0 1 0 .15h.07l.47-.94h-.07c0 .06-.06.1-.09.11a.1.1 0 0 1-.08 0l-2.54-1.29v.09l.09.08a.11.11 0 0 1 0 .13l-1.35 2.66a.1.1 0 0 1-.09.07h-.12v.08L27.07 78a.26.26 0 0 1 .09.06v.14h.05l.47-.91h-.07c-.07.1-.15.14-.22.1zm14.76 4.06h1.27v-.09h-.09l-.05-.09-1-1.93c.08-.07.54-.6.66-.72l.33-.33a.51.51 0 0 1 .25-.16V78h-1.21v.09h.1a.11.11 0 0 1 0 .12.4.4 0 0 1-.07.1l-.19.21-1 1.09v-1.45c0-.06 0-.09.06-.11h.12V78l-1.17-.08V78a.13.13 0 0 1 .1 0 .13.13 0 0 1 .05.11l-.1 3a.13.13 0 0 1-.05.12.17.17 0 0 1-.11 0v.09l1.17.07v-.1a.23.23 0 0 1-.11 0s-.06-.05-.06-.11v-.64l.56-.65s.57 1.16.6 1.22a.75.75 0 0 1 0 .11.11.11 0 0 1-.08.11h-.11zm-24-9.16l1 .81.06-.07a.17.17 0 0 1 0-.08.18.18 0 0 1 0-.11l.47-2.1 1-.14h.46a.55.55 0 0 1 .29 0l.06-.07-1-.79-.06.07.06.1a.14.14 0 0 1 0 .11h-.4l-1.5.18.95-1.09a.1.1 0 0 1 .12 0l.12.05.05-.08-.86-.79-.06.07a.15.15 0 0 1 .06.08.12.12 0 0 1 0 .12l-2 2.24a.14.14 0 0 1-.12.06.17.17 0 0 1-.09-.06l-.06.07.87.8.07-.07a.22.22 0 0 1-.07-.1v-.12l.41-.49.85-.14-.31 1.32a.27.27 0 0 1 0 .11.1.1 0 0 1-.12 0l-.1-.05zm28.29 9l1-.1v-.09h-.08a.13.13 0 0 1-.05-.05l-1.26-2.78a1.15 1.15 0 0 1-.08-.21s0-.07.07-.08v-.1l-1.3.09v.1c.05 0 .09 0 .09.07a2 2 0 0 1-.08.33c-.05.2-.69 2.42-.79 2.8a.11.11 0 0 1 0 .06h-.07v.09h.93v-.1a.07.07 0 0 1 0-.06.31.31 0 0 1 0-.11s.11-.39.12-.43l1.44-.1s.17.38.19.42a.25.25 0 0 1 0 .09v.07h-.05zm-.39-1.23l-1 .07.43-1.41zM11.53 65l.59.84.07-.05a.17.17 0 0 1 0-.08.08.08 0 0 1 0-.07c.09-.11 1.7-2.37 1.78-2.48l.13-.17a.08.08 0 0 1 .11 0l.07-.05-.73-1.09-.08.05a.08.08 0 0 1 0 .11l-.33.1-2.81.71a.08.08 0 0 1-.08 0l-.06-.05-.08.05.5.79.07-.05v-.06h.1l.43-.11.79 1.11-.27.36s0 .06-.07.07-.05 0-.07 0zm.86-1l-.58-.87 1.43-.33zM6.8 55.64l.34 1h.1a.15.15 0 0 1 0-.08.13.13 0 0 1 0-.06l2.38-1.9.17-.13s.08 0 .1.05h.09l-.4-1.24H9.5v.1h-.37l-2.9-.08a.08.08 0 0 1-.07 0 .11.11 0 0 1 0-.07h-.09l.26.9h.7l.45 1.39-.36.28-.12-.13a.05.05 0 0 1-.07 0zM7.89 55l-.32-1H9zm22.44 24.31l1 .32v-.08a.16.16 0 0 1-.06 0 .11.11 0 0 1 0-.08v-3a1 1 0 0 1 0-.22s0-.06.1 0v-.09l-1.23-.46v.09a.07.07 0 0 1 0 .11 1.47 1.47 0 0 1-.14.1l-1.87 2.23a.1.1 0 0 1-.06 0h-.08v.09l.86.35v-.08a.06.06 0 0 1 0-.07l.06-.08.29-.35 1.36.51v.45a.29.29 0 0 1 0 .1s0 .05-.05.05zm.14-1.31l-1-.37 1-1.11zm5.5-.77a2 2 0 0 0-.59 0 1.54 1.54 0 0 0-.59.21 1.5 1.5 0 0 0-.5.45 2 2 0 0 0-.31.76 2 2 0 0 0 0 .82 1.59 1.59 0 0 0 .27.61 1.7 1.7 0 0 0 .47.42 2.11 2.11 0 0 0 .56.21 2 2 0 0 0 .6 0 1.52 1.52 0 0 0 .58-.19 1.63 1.63 0 0 0 .5-.46 1.93 1.93 0 0 0 .31-.76 2 2 0 0 0 0-.81 1.53 1.53 0 0 0-.27-.59 1.51 1.51 0 0 0-.46-.42 1.9 1.9 0 0 0-.54-.22zm-.16.82a.87.87 0 0 1 .31.13.92.92 0 0 1 .23.24.93.93 0 0 1 .12.33 1.27 1.27 0 0 1 0 .4 1.06 1.06 0 0 1-.14.37.92.92 0 0 1-.25.26.68.68 0 0 1-.29.12.79.79 0 0 1-.35 0 .73.73 0 0 1-.3-.13.79.79 0 0 1-.23-.24.8.8 0 0 1-.12-.33 1 1 0 0 1 0-.4 1 1 0 0 1 .14-.38.82.82 0 0 1 .23-.25.89.89 0 0 1 .31-.13.79.79 0 0 1 .34.04zm41.28-27.82a2 2 0 0 0 0 .6 1.56 1.56 0 0 0 .67 1.09 2 2 0 0 0 .75.3 1.92 1.92 0 0 0 .81 0 1.51 1.51 0 0 0 .61-.28 1.44 1.44 0 0 0 .41-.47 2.13 2.13 0 0 0 .21-.57 2 2 0 0 0 0-.6 1.48 1.48 0 0 0-.65-1.08 1.83 1.83 0 0 0-.76-.31 2.1 2.1 0 0 0-.82 0 1.65 1.65 0 0 0-.62.28 1.51 1.51 0 0 0-.41.47 1.75 1.75 0 0 0-.2.57zm.82.16a.9.9 0 0 1 .13-.31.77.77 0 0 1 .23-.23.9.9 0 0 1 .33-.12 1.06 1.06 0 0 1 .4 0 .93.93 0 0 1 .37.14.81.81 0 0 1 .25.24.7.7 0 0 1 .13.3.91.91 0 0 1 0 .34.71.71 0 0 1-.13.31.73.73 0 0 1-.24.23.81.81 0 0 1-.33.13 1.21 1.21 0 0 1-.77-.16A.78.78 0 0 1 78 51a.93.93 0 0 1-.13-.3.64.64 0 0 1 .04-.31zm-46.08-4l1.46.61-.15-.63-1.45-.6zm4.44 4.45c-.32-.12-.54-.23-.63-.27l-.21-1.08c-.11-.58-.26-1.49-.28-1.6l-.68-.29c0 .09.24 1.23.25 1.29l.12.61c0 .11.21 1.15.24 1.38.22.09 1.23.58 1.31.62zm3.8 2.16c.06-.2.44-1.6.5-1.81.08.18.48 1.12.74 1.64.22-.4.77-1.52.85-1.67 0 .12.48 1.61.59 2l.57-.31c-.11-.35-.82-2.51-1-3.06-.14.29-.75 1.62-.89 1.88l-.89-1.94c-.13.39-.84 2.77-.9 3zm4.18.15c.08-.19.28-.75.3-.84l1.18-.07c0 .07.22.58.32.79l.55-.42c-.19-.36-1-2.24-1.44-3-.24.5-1.27 2.85-1.42 3.16zm.5-1.37c.06-.18.32-.83.38-1 .05.14.32.77.4 1zm3.62-.3c-.29.13-.67.29-.75.32l.15-1c.09-.58.24-1.52.26-1.63l-.59.24c0 .08-.17 1.22-.18 1.3l-.09.61c0 .11-.16 1.1-.21 1.35l1.32-.49zm3.69-.84c.11-.23.88-2 1-2.23 0 .17.12 1 .2 1.47.32-.51 1.11-1.89 1.23-2.07v1.87l.59-.54c0-.32 0-2.39-.06-2.9-.2.35-1.14 2-1.33 2.35 0-.21-.19-1.43-.24-1.78-.22.46-1.64 3.53-1.75 3.75zm3.65-1.53c.14-.23.51-.89.58-1l1.09-.5v.83l.67-.66c-.05-.32-.18-2.12-.27-2.8-.4.62-2.18 3.51-2.42 3.92zm.95-1.66l.71-1.22v.88zm-7.58 4.34c.11-.22.4-.85.44-1l1.08-.49c0 .06.15.59.2.76l.59-.63c-.11-.28-.59-2-.81-2.57-.32.58-1.7 3.31-1.89 3.68zm.72-1.56l.54-1.15c0 .12.15.65.19.82zm-18.07-.8c-.12-.23-1.7-3.31-2-3.78 0 .36-.11 1.56-.13 1.77-.22-.34-1.23-2-1.46-2.41 0 .53.14 2.65.15 3l.61.55c0-.35-.14-1.8-.15-1.92.12.19 1 1.6 1.33 2.12 0-.47.1-1.34.1-1.51.14.25 1 2 1.12 2.28zm2.91 1.05c-.21-.35-1.7-2.87-2-3.41-.17.59-.54 2.17-.63 2.44l.61.58c0-.17.13-.67.14-.72l1.07.44.47.89zm-1.88-1.55c0-.16.11-.66.13-.77l.6 1.07zm6.58 3.6c-.19-.38-1.51-3.17-1.81-3.76-.22.63-.72 2.31-.83 2.6l.57.64c.05-.18.18-.71.2-.77l1.06.51c0 .11.32.75.42 1zm-1.81-1.74c0-.17.17-.71.19-.83.1.21.43 1 .53 1.18zm1.64 9.92h-6.64c-.3-1.05-.59-2.16-.83-3.31l-.79-.35c.27 1.27.57 2.48.91 3.66h-9a36.44 36.44 0 0 1-4.38-17.28H24l-.26-.7h-5.26a36.32 36.32 0 0 1 4.41-17.27h8.94q-.61 2.13-1.06 4.45a3.35 3.35 0 0 1 .39.12l.28.12c.31-1.64.69-3.21 1.11-4.68h4c.14-.27.4-.7.4-.7h-4.19c1.85-6 4.57-10.36 7.72-11.92h-.53l-1 .12c-2.05 1.53-3.93 4.2-5.48 7.88A40 40 0 0 0 32 24.76h-8.71a25.77 25.77 0 0 1 12.42-11.14h-.22l-1.11.38a26.91 26.91 0 0 0-2.81 1 28 28 0 0 0-9.08 9.78h-3.64l-.52.7h3.77a37.19 37.19 0 0 0-4.33 17.27h-5.06v.7h5.07a37.11 37.11 0 0 0 4.29 17.28h-3.73l.52.71h3.58a28.3 28.3 0 0 0 8.8 9.64s1.28.52 1.81.7c0 0 1.07.38 1.69.54l.47.12a26 26 0 0 1-12-11H32a40.93 40.93 0 0 0 1.42 3.94c1.52 3.59 3.34 6.22 5.34 7.77l1.13.14h.41c-3.08-1.63-5.76-6-7.57-11.89h8zm34.12-17.27zm0 0v-.7h-4.95A37.1 37.1 0 0 0 64 25.46h3.66l-.52-.7h-3.51a28.26 28.26 0 0 0-8.89-9.67l-.37-.15c-.14-.07-1.13-.44-1.13-.44-1-.35-2.68-.82-2.68-.82a25.77 25.77 0 0 1 12.26 11.08h-8.75a39.56 39.56 0 0 0-1.39-3.88c-1.54-3.66-3.4-6.32-5.44-7.85l-.54-.08-1.06-.11c3.14 1.55 5.87 5.9 7.72 11.92h-1.3a3.86 3.86 0 0 1 .17.7h1.34q.64 2.2 1.12 4.66s.33-.14.52-.19h.14q-.46-2.31-1.06-4.42h8.94a36.47 36.47 0 0 1 4.42 17.27h-5.3l-.26.7h5.56a36.46 36.46 0 0 1-4.39 17.28h-9c.34-1.18.64-2.4.9-3.68l-.78.35c-.25 1.15-.54 2.27-.84 3.33h-6.62l-1.58.71h8c-1.8 5.92-4.47 10.23-7.54 11.88l1-.11.57-.08a19.15 19.15 0 0 0 5.31-7.75 41.53 41.53 0 0 0 1.41-3.94h8.76a26 26 0 0 1-11.77 10.86s1.3-.36 2.11-.66c0 0 1.28-.48 1.59-.63l.27-.1a28.44 28.44 0 0 0 8.62-9.52h3.46c.12-.15.52-.71.52-.71H64a37.17 37.17 0 0 0 4.29-17.28zM58.4 37.11L60 33c-2 .38-6.34 2.4-12.93 9zm-3-5.93c-.82.22-3.86 1.77-7.89 8.82a48.87 48.87 0 0 1 6.7-5.65zm-18.1 3.58a6.14 6.14 0 0 0 5.7 3.3 6.38 6.38 0 0 0 5.79-3.3zm12.15-1.84H36.64a.53.53 0 0 0 0 1.06h12.81a.53.53 0 0 0 0-1.06zM39.06 42c-6.59-6.58-10.88-8.6-12.93-9l1.56 4.1zm-7.16-7.63A49.07 49.07 0 0 1 38.61 40c-4-7.05-7.07-8.6-7.89-8.82zm13.8 9.41l.49-5.59a7.4 7.4 0 0 1-2.5.62L43.18 48a.13.13 0 0 1-.13.12.13.13 0 0 1-.14-.12l-.5-9.24a7.52 7.52 0 0 1-2.51-.61l.49 5.58-17.73-7.33c.54 1.41 7 18.54 7.11 18.8l11.23 5 .26-4.41a.08.08 0 0 1 .07-.08.08.08 0 0 1 .08.08l.42 4.78.4 4.56a.79.79 0 0 0 .78.74.77.77 0 0 0 .78-.74l.41-4.56.42-4.78a.08.08 0 0 1 .08-.08.08.08 0 0 1 .08.08l.26 4.41 11.27-5c.09-.26 6.57-17.39 7.1-18.8zm2.21-15a3.28 3.28 0 0 0 .14-.93 4 4 0 0 0-.38-1.53 9.12 9.12 0 0 1-.4-1.23 8.38 8.38 0 0 1-.17-1.75v-.37l-.87.48c-2.63 1.43-6.17 3.37-6.17 8.38v.37h5.26a8.83 8.83 0 0 0 2.59-3.46zm2-6.19a6.47 6.47 0 0 1 .11-3.9c-3.56.85-4.26 3-5.31 3.2-.83.17-.61-1.85-.61-1.85s-5 2.58-6.79 6.66c-1.5 3.52-.12 5.48-.12 5.48h1.85c-.14-5.9 3.96-8.18 6.72-9.65a18.54 18.54 0 0 0 1.64-1l1-.67-.19 1.16a8.69 8.69 0 0 0 .06 2.78 7.53 7.53 0 0 0 .36 1.08 4.3 4.3 0 0 1 .25 3.12 8.13 8.13 0 0 1-2.07 3.15h1.33s1.39-.57 2.5-3c1.09-3.15 0-4.49-.69-6.6zm-11.59 46.5h.06a.16.16 0 0 1 0-.07h.11l.19-.05v1.57h-.08v.05h.94v-.05h-.08a.07.07 0 0 1 0-.07v-2.28a.07.07 0 0 1 0-.06h.09V68h-.93v.06h.06v.21h-.3v-.07h-.06zm2.25.7l-.37.63h.06a.14.14 0 0 1 .11-.05h.08l.19.05h.26a1.76 1.76 0 0 0 .34 0 1.85 1.85 0 0 0 .54-.08 1.22 1.22 0 0 0 .46-.25 1.06 1.06 0 0 0 .31-.41 1.25 1.25 0 0 0 .12-.56 1.42 1.42 0 0 0-.09-.54.94.94 0 0 0-.27-.38 1 1 0 0 0-.41-.23 1.79 1.79 0 0 0-.93 0 1.39 1.39 0 0 0-.36.15.87.87 0 0 0-.27.25.74.74 0 0 0-.1.38.91.91 0 0 0 .07.35 1.1 1.1 0 0 0 .2.26 1 1 0 0 0 .65.22 1.45 1.45 0 0 0 .44-.06 3.91 3.91 0 0 0 .45-.18.76.76 0 0 1-.09.29.62.62 0 0 1-.19.21.78.78 0 0 1-.25.13 1.08 1.08 0 0 1-.29 0h-.42a.38.38 0 0 1-.13-.07.13.13 0 0 1-.05-.11zm.79-1.29h.15a.41.41 0 0 1 .17.06.32.32 0 0 1 .14.1.27.27 0 0 1 .06.17.26.26 0 0 1-.06.17.33.33 0 0 1-.14.11l-.17.05h-.31l-.2-.04a.31.31 0 0 1-.1-.12.28.28 0 0 1-.05-.17.27.27 0 0 1 .19-.27.42.42 0 0 1 .17-.06zm3.08-.4a1.26 1.26 0 0 0-.5.1 1.33 1.33 0 0 0-.41.26 1.26 1.26 0 0 0-.27.4 1.16 1.16 0 0 0-.11.5 1.19 1.19 0 0 0 .11.51 1.3 1.3 0 0 0 .27.4 1.38 1.38 0 0 0 .41.26 1.37 1.37 0 0 0 1 0 1.28 1.28 0 0 0 .41-.26 1.35 1.35 0 0 0 .28-.4 1.22 1.22 0 0 0 .1-.51 1.19 1.19 0 0 0-.1-.5 1.3 1.3 0 0 0-.28-.4 1.23 1.23 0 0 0-.41-.26 1.27 1.27 0 0 0-.5-.1zm0 .55a.52.52 0 0 1 .44.22.78.78 0 0 1 .11.23 1.29 1.29 0 0 1 0 .26 1.24 1.24 0 0 1 0 .26.72.72 0 0 1-.11.23.55.55 0 0 1-.18.16.51.51 0 0 1-.26.06.51.51 0 0 1-.27-.06.5.5 0 0 1-.18-.16.71.71 0 0 1-.1-.23 1 1 0 0 1 0-.26 1.06 1.06 0 0 1 0-.26.77.77 0 0 1 .1-.23.48.48 0 0 1 .18-.16.53.53 0 0 1 .27-.06zm1.79 0h1.51l-1 1.74a.39.39 0 0 1-.06.08.14.14 0 0 1-.09 0v.05h1v-.05h-.07a.07.07 0 0 1 0-.07.25.25 0 0 1 0-.08l.06-.1.91-1.66v-.6h-.06a.11.11 0 0 1 0 .09.07.07 0 0 1-.06 0h-2.14a.07.07 0 0 1-.06 0 .12.12 0 0 1 0-.1v.78a.1.1 0 0 1 0-.09z" class="cls-1"/><path d="M67.56 81.8v.27H67v1.38h-.36v-1.38h-.58v-.27zm1.94 1.66l-.07-1V82c0 .15-.1.34-.15.49l-.32.92h-.37l-.32-.94-.16-.47v.46l-.07 1h-.34l.13-1.66h.54l.31.81c0 .13.07.25.12.42l.13-.41.31-.82h.52l.14 1.66z" class="cls-1"/><circle cx="43.25" cy="42.17" r="38.34" class="cls-2"/><path d="M127.56 17.21v-2.32s-.11-.54-.46-.61a2 2 0 0 0-.37 0s-.09 0-.09-.06.05-.09.17-.09h2.3c.12 0 .17 0 .17.09s0 .06-.09.06h-.27c-.29 0-.38.24-.4.61s0 .65 0 2.32v1.51a3.31 3.31 0 0 0 .81 2.66 2.1 2.1 0 0 0 1.62.59 2.26 2.26 0 0 0 1.69-.77 4.18 4.18 0 0 0 .62-2.64v-3.67s-.11-.54-.46-.61a2 2 0 0 0-.37 0s-.09 0-.09-.06.05-.09.17-.09h2.04c.12 0 .17 0 .17.09s0 .06-.09.06h-.27c-.29.06-.38.24-.4.61s0 .65 0 2.32v1.15a4.19 4.19 0 0 1-1 3.22 3.15 3.15 0 0 1-2.22.8 3.31 3.31 0 0 1-2.22-.76 3.56 3.56 0 0 1-.94-2.83zM136.6 21c0 .75.11 1 .37 1a2.24 2.24 0 0 0 .47.05.07.07 0 0 1 .08.08c0 .05-.06.08-.17.08h-1.91c-.1 0-.15 0-.15-.08a.07.07 0 0 1 .08-.08 1.47 1.47 0 0 0 .39-.05c.24-.06.27-.31.27-1.14v-5.22c0-.37.05-.46.13-.46s.27.18.37.28 1.53 1.61 3 3.12c.94 1 1.95 2.05 2.24 2.36l-.1-4.58c0-.59-.07-.8-.36-.85a3 3 0 0 0-.46 0c-.06 0-.08-.05-.08-.09s.08-.06.18-.06h1.81c.1 0 .17 0 .17.06a.11.11 0 0 1-.11.09 1.06 1.06 0 0 0-.23 0c-.31.06-.33.25-.33.8v5.36c0 .6 0 .66-.08.66s-.19-.08-.72-.56c-.1-.09-1.46-1.43-2.46-2.47s-2.16-2.27-2.45-2.59zm9.4-1.43v2s.06.44.34.48h.43a.07.07 0 0 1 .08.08s0 .08-.15.08h-2.12c-.1 0-.15 0-.15-.08a.07.07 0 0 1 .07-.08 1.36 1.36 0 0 0 .29 0c.18 0 .21-.22.25-.48s.05-1.1.05-2V16s-.1-.45-.3-.49h-.29a.08.08 0 0 1-.07-.08c0-.05 0-.08.15-.08h1.95c.11 0 .15 0 .15.08a.09.09 0 0 1-.08.08 1 1 0 0 0-.24 0c-.26.05-.31.18-.33.51s0 .55 0 2zm5.71 1.43c.55-1.23 1.79-4.35 2-5a1.58 1.58 0 0 0 .09-.34.19.19 0 0 0-.13-.19 1.09 1.09 0 0 0-.32 0c-.05 0-.11 0-.11-.08s.06-.08.21-.08h1.67c.1 0 .15 0 .15.06s0 .09-.11.09a.87.87 0 0 0-.45.11c-.13.09-.28.21-.53.84-.11.26-.57 1.36-1.05 2.47-.58 1.33-1 2.32-1.22 2.78s-.31.69-.41.69-.17-.12-.35-.56l-2.32-5.6c-.21-.52-.34-.61-.66-.69a1.8 1.8 0 0 0-.37 0 .08.08 0 0 1-.08-.09c0-.05.1-.06.25-.06h1.99q.26 0 .26.06a.09.09 0 0 1-.1.09 1.14 1.14 0 0 0-.34 0 .15.15 0 0 0-.11.16 3.81 3.81 0 0 0 .26.76zm5.19-3v-2s-.08-.46-.39-.51h-.32a.09.09 0 0 1-.08-.08c0-.05 0-.08.15-.08h3.36s.36 0 .43-.05a.61.61 0 0 1 .13 0v.09s-.05.17-.07.43c0 .09 0 .5-.05.6s0 .1-.09.1-.07 0-.07-.12a1 1 0 0 0-.05-.32c-.06-.15-.16-.22-.68-.28h-1.37s-.05 0-.05.1v2.49c0 .06 0 .1.05.1h1.58s.37 0 .46-.13.11-.12.14-.12.05 0 .05.08-.05.2-.07.51 0 .53 0 .59 0 .17-.09.17-.06 0-.06-.09a.81.81 0 0 0 0-.3c0-.13-.12-.24-.48-.28s-1.27 0-1.43 0a.06.06 0 0 0-.06.06v2.32c0 .61.19.73 1.13.73a3.15 3.15 0 0 0 .95-.1.69.69 0 0 0 .43-.63c0-.11 0-.14.1-.14s.06.08.06.14a7.58 7.58 0 0 1-.13.88c-.06.24-.16.24-.53.24h-3.4c-.1 0-.15 0-.15-.08a.07.07 0 0 1 .08-.08 2.71 2.71 0 0 0 .29 0c.18 0 .21-.22.25-.48a18.7 18.7 0 0 0 .05-2zm5.56 0v-2s-.08-.46-.39-.51h-.32a.09.09 0 0 1-.08-.08c0-.05 0-.08.15-.08h2.3a3.1 3.1 0 0 1 1.76.4 1.61 1.61 0 0 1 .66 1.25 2.67 2.67 0 0 1-1.17 2.02c.78 1 1.43 1.8 2 2.37a1.79 1.79 0 0 0 1.39.67.08.08 0 0 1 .09.08c0 .05-.05.08-.23.08H168a1.91 1.91 0 0 1-1-.18 4.82 4.82 0 0 1-1.29-1.34c-.4-.5-.82-1.09-1-1.33a.14.14 0 0 0-.13-.05h-1.21s-.06 0-.06.08v2.21s.09.44.38.48h.42a.07.07 0 0 1 .08.08s0 .08-.15.08h-2.1c-.1 0-.15 0-.15-.08a.07.07 0 0 1 .08-.08 1.36 1.36 0 0 0 .29 0c.18 0 .2-.22.25-.48a18.7 18.7 0 0 0 .05-2zm.82.77a.13.13 0 0 0 .06.12 3.2 3.2 0 0 0 1 .14 1.23 1.23 0 0 0 .71-.16 1.63 1.63 0 0 0 .57-1.4 1.58 1.58 0 0 0-1.63-1.8 4.14 4.14 0 0 0-.68.05.12.12 0 0 0-.08.11zm5.88 3.33c-.16-.1-.16-.1-.16-.35 0-.45 0-.82.05-1s0-.15.08-.15.09 0 .09.11a1.42 1.42 0 0 0 0 .33 1.39 1.39 0 0 0 1.5.9c.94 0 1.42-.53 1.42-1.22s-.36-1-1.19-1.59l-.43-.32c-1-.76-1.36-1.32-1.36-2 0-1.08.85-1.72 2.1-1.72a4.59 4.59 0 0 1 1 .11 1.23 1.23 0 0 0 .33 0c.08 0 .1 0 .1.06v1c0 .14 0 .2-.08.2s-.08 0-.09-.12a1.7 1.7 0 0 0-.14-.45c-.06-.11-.38-.45-1.23-.45-.69 0-1.26.34-1.26 1s.29.91 1.23 1.55l.27.18c1.15.79 1.55 1.42 1.55 2.21A1.78 1.78 0 0 1 172 22a2.9 2.9 0 0 1-1.51.32 3.48 3.48 0 0 1-1.33-.22zm6.84-2.53v2s.07.44.34.48h.43a.07.07 0 0 1 .08.08s0 .08-.15.08h-2.12c-.1 0-.15 0-.15-.08a.07.07 0 0 1 .08-.08 1.36 1.36 0 0 0 .29 0c.18 0 .21-.22.25-.48s.05-1.1.05-2V16s-.1-.45-.3-.49h-.29a.08.08 0 0 1-.08-.08c0-.05 0-.08.15-.08h1.95c.11 0 .15 0 .15.08a.09.09 0 0 1-.08.08 1 1 0 0 0-.24 0c-.26.05-.31.18-.33.51s0 .55 0 2zm5.42 0v2s.08.44.37.48h.43a.07.07 0 0 1 .08.08s0 .08-.15.08h-2.17c-.11 0-.15 0-.15-.08s0-.06.08-.06a1.26 1.26 0 0 0 .28 0c.19 0 .25-.23.28-.5s0-1.1 0-2v-3.84h-1.37c-.59 0-.82.08-1 .29a1.49 1.49 0 0 0-.15.29c0 .08-.05.09-.1.09a.07.07 0 0 1-.06-.08c0-.1.19-.91.2-1s.06-.17.1-.17a3.24 3.24 0 0 0 .42.11H183a4.7 4.7 0 0 0 .68 0h.27v1.11s0 .12-.09.12-.06 0-.07-.16v-.1c0-.28-.24-.48-1.14-.51h-1.18zm6.36.28a1.63 1.63 0 0 0-.21-.94c-.07-.14-1.36-2.17-1.68-2.66a2.37 2.37 0 0 0-.62-.67.94.94 0 0 0-.4-.13.09.09 0 0 1-.1-.09s0-.06.12-.06h1.76c.11 0 .13 0 .13.06s-.06.06-.15.1-.12.08-.12.15a.75.75 0 0 0 .13.35l1.72 2.85c.19-.39 1.38-2.35 1.55-2.65a1 1 0 0 0 .16-.47c0-.13 0-.2-.15-.24s-.14-.06-.14-.11.05-.05.15-.05h1.58c.06 0 .12 0 .12.05a.11.11 0 0 1-.12.1 1 1 0 0 0-.44.12 1.65 1.65 0 0 0-.47.45c-.31.37-1.65 2.52-1.84 2.9a1.83 1.83 0 0 0-.12.91v1.7s.09.44.37.48h.43a.07.07 0 0 1 .07.08s-.05.08-.15.08h-2.12c-.11 0-.15 0-.15-.08a.07.07 0 0 1 .08-.08 1.26 1.26 0 0 0 .28 0c.19 0 .26-.22.28-.48s0-.76 0-.91zm7.37.46A3.07 3.07 0 0 1 198 17a2.06 2.06 0 0 1 2.28 2.22 3.09 3.09 0 0 1-3 3.24 2 2 0 0 1-2.13-2.15zm.86.17c0 .91.4 1.61 1.39 1.6 1.44 0 2-2.07 2-3.21 0-.83-.43-1.6-1.36-1.6-1.47.01-2.04 2.02-2.04 3.21zm8.71-3.17l-.07.38h-1.37l-.47 2.59a8.51 8.51 0 0 1-.66 2.16 7.32 7.32 0 0 1-1.24 2c-.28-.16-.27-.2-.13-.39a4.7 4.7 0 0 0 1.06-2.48l.67-3.86h-1.08l.06-.38h1.08c.37-2.15 1.43-3.46 2.14-3.46.2 0 .39.16.38.47s-.21.63-.34.63-.07-.34-.44-.34c-.63 0-.71 1.18-1 2.7zm12.22 1.79c0 1 0 1.88.05 2.33s.1.55.42.59h.48c.06 0 .09 0 .09.06s-.05.09-.17.09h-2.37c-.12 0-.17 0-.17-.09s0-.06.09-.06a1.66 1.66 0 0 0 .32 0c.22 0 .27-.28.31-.59s.05-1.3.05-2.33V18a.06.06 0 0 0-.06-.06h-4.56a.06.06 0 0 0-.06.06v1.1c0 1 0 1.88.05 2.33s.1.55.42.59h.48c.07 0 .09 0 .09.06s-.05.09-.17.09h-2.37c-.12 0-.17 0-.17-.09s0-.06.09-.06a1.66 1.66 0 0 0 .32 0c.22 0 .27-.28.31-.59s.05-1.3.05-2.33v-4.21s-.11-.54-.46-.61a2 2 0 0 0-.37 0s-.09 0-.09-.06.05-.09.17-.09h2.26c.12 0 .17 0 .17.09s0 .06-.09.06h-.27c-.29.05-.38.24-.4.61s0 .65 0 2.32v.23a.06.06 0 0 0 .06.06H216a.06.06 0 0 0 .06-.06v-2.55s-.11-.54-.46-.61a2 2 0 0 0-.37 0s-.09 0-.09-.06.05-.09.17-.09h2.27c.12 0 .17 0 .17.09s0 .06-.09.06h-.27c-.29.05-.38.24-.4.61s0 .65 0 2.32zm5.14-3.61c.12-.3.16-.36.23-.36s.13.13.23.33c.17.39 1.69 4.16 2.27 5.55.34.82.6.94.81 1a1.3 1.3 0 0 0 .38.05c.05 0 .12 0 .12.08s-.11.08-.21.08h-1.5c-.18 0-.33 0-.33-.06s0 0 .06-.06a.17.17 0 0 0 .09-.25l-.85-2.1s0-.05-.09-.05h-2.18a.1.1 0 0 0-.1.08l-.54 1.46a1.89 1.89 0 0 0-.14.61c0 .18.16.25.32.25h.09c.08 0 .1 0 .1.08s-.05.08-.14.08h-1.85c-.12 0-.18 0-.18-.08a.08.08 0 0 1 .09-.08h.28c.43-.05.61-.38.8-.84zm1.05 3.81v-.07l-.94-2.51c-.05-.14-.11-.14-.16 0l-.88 2.51v.07zm9.93 1.57c.24-.75 1.09-3.4 1.42-4.57a1.92 1.92 0 0 0 .11-.57c0-.16-.08-.27-.5-.27a.09.09 0 0 1-.09-.09s0-.06.16-.06h1.76c.09 0 .13 0 .13.05a.09.09 0 0 1-.09.1 1.53 1.53 0 0 0-.32 0c-.28.1-.43.46-.61 1-.42 1.16-1.36 4.07-1.73 5.09-.25.68-.3.79-.41.79s-.18-.12-.31-.47l-1.85-5c-.32.8-1.6 4.14-1.95 5-.16.39-.23.48-.33.48s-.17-.1-.37-.72l-1.68-5.42c-.15-.48-.25-.6-.49-.69a1.78 1.78 0 0 0-.43-.05.08.08 0 0 1-.09-.09s.06-.06.15-.06h2.12c.13 0 .17 0 .17.06a.09.09 0 0 1-.1.09.79.79 0 0 0-.33.05.19.19 0 0 0-.13.19 5.35 5.35 0 0 0 .18.85c.15.58 1.12 3.94 1.24 4.31l2-5.11c.14-.37.2-.42.26-.42s.14.12.26.43zm5.62-5.38c.12-.3.16-.36.23-.36s.13.13.23.33c.17.39 1.69 4.16 2.27 5.55.34.82.6.94.81 1a1.3 1.3 0 0 0 .38.05c.05 0 .12 0 .12.08s-.11.08-.21.08h-1.5c-.18 0-.33 0-.33-.06s0 0 .06-.06a.17.17 0 0 0 .09-.25l-.85-2.1s0-.05-.09-.05h-2.18a.1.1 0 0 0-.1.08l-.54 1.46a1.89 1.89 0 0 0-.14.61c0 .18.16.25.32.25h.09c.08 0 .1 0 .1.08s-.05.08-.14.08h-1.85c-.12 0-.18 0-.18-.08a.08.08 0 0 1 .09-.08h.28c.43-.05.61-.38.8-.84zm1.05 3.81v-.07l-.94-2.51q-.08-.21-.16 0l-.88 2.51v.07zm5.39.27v2s.06.44.34.48h.43a.07.07 0 0 1 .08.08s0 .08-.15.08h-2.12c-.1 0-.15 0-.15-.08a.07.07 0 0 1 .08-.08 1.35 1.35 0 0 0 .29 0c.18 0 .21-.22.25-.48s.05-1.1.05-2V16s-.1-.45-.3-.49h-.29a.08.08 0 0 1-.08-.08c0-.05 0-.08.15-.08h1.95c.11 0 .15 0 .15.08a.09.09 0 0 1-.08.08 1 1 0 0 0-.24 0c-.26.05-.31.18-.33.51s0 .55 0 2zm3.37-3.77c.09.1.1.13.1.18s-.05.06-.1.06a3.24 3.24 0 0 1-.75-.19.26.26 0 0 1-.18-.28 3.88 3.88 0 0 1 .92-2.12.16.16 0 0 1 .14-.09.06.06 0 0 1 .05.05.37.37 0 0 1 0 .14 3.82 3.82 0 0 0-.35 1.54 1.2 1.2 0 0 0 .17.71zm3.51 3.77v2s.06.44.34.48h.43a.07.07 0 0 1 .08.08s0 .08-.15.08h-2.12c-.1 0-.15 0-.15-.08a.07.07 0 0 1 .08-.08 1.35 1.35 0 0 0 .29 0c.18 0 .21-.22.25-.48s.05-1.1.05-2V16s-.1-.45-.3-.49h-.29a.08.08 0 0 1-.08-.08c0-.05 0-.08.15-.08h1.95c.11 0 .15 0 .15.08a.09.09 0 0 1-.08.08 1 1 0 0 0-.24 0c-.26.05-.31.18-.33.51s0 .55 0 2zM107.83 44.2h.17c1.05-1.15 5.58-5.77 6.48-6.82s1.55-1.8 1.55-2.33c0-.34-.12-.56-.43-.62s-.4-.12-.4-.31.15-.28.5-.28c.65 0 2.36.09 3.19.09s2.67-.09 3.63-.09c.31 0 .53.06.53.28s-.15.28-.46.28a6 6 0 0 0-1.8.34 9.89 9.89 0 0 0-3.35 2.33c-1 .93-5.64 5.58-6.7 6.7 1.12 1.46 7.19 8 8.4 9.15a14.71 14.71 0 0 0 4.43 3.35 5.41 5.41 0 0 0 1.92.46c.22 0 .4.06.4.25s-.16.31-.74.31h-2.7c-.93 0-1.49 0-2.14-.06-1.67-.15-2.51-.84-3.84-2s-7.47-8.37-8.12-9.27l-.34-.46h-.16v2.82c0 2.85 0 5.3.09 6.63.06.87.34 1.55 1.12 1.67a13 13 0 0 0 1.52.13c.25 0 .4.09.4.25s-.25.31-.59.31c-1.74 0-3.69-.09-4.46-.09s-2.67.09-3.91.09c-.4 0-.62-.09-.62-.31s.12-.25.5-.25a5 5 0 0 0 1.1-.15c.62-.12.78-.8.9-1.71.16-1.3.16-3.75.16-6.6v-5.45c0-4.71 0-5.58-.06-6.57s-.31-1.55-1.33-1.77a6.38 6.38 0 0 0-1.21-.09c-.34 0-.53-.06-.53-.28s.22-.28.68-.28c1.64 0 3.6.09 4.34.09s2.7-.09 3.75-.09c.43 0 .65.06.65.28s-.19.28-.43.28a4.62 4.62 0 0 0-.87.09c-.84.15-1.09.68-1.15 1.77s-.06 1.86-.06 6.57z" class="cls-3"/><path d="M130.43 50.65c-.16 0-.19 0-.25.19l-1.46 3.53a4.8 4.8 0 0 0-.4 1.61c0 .46.25.74 1.09.74h.4c.34 0 .4.12.4.28s-.16.28-.43.28c-.9 0-2.17-.09-3-.09-.28 0-1.74.09-3.16.09-.34 0-.5-.06-.5-.28s.09-.28.31-.28h.81c1.24-.19 1.71-1 2.26-2.33l7.13-16.59c.31-.74.53-1.05.81-1.05s.53.25.81.84c.65 1.46 5.21 12.25 6.95 16.25 1.05 2.39 1.83 2.73 2.33 2.82a6.52 6.52 0 0 0 1 .09c.25 0 .37.09.37.28s-.16.28-1.18.28-2.95 0-5.24-.06c-.5 0-.81 0-.81-.22s.06-.25.34-.28a.41.41 0 0 0 .25-.59l-2.11-5.3a.26.26 0 0 0-.28-.19zm5.83-1.46c.13 0 .16-.06.13-.15l-2.57-6.7c0-.09-.06-.25-.12-.25s-.12.16-.16.25L130.89 49c-.06.13 0 .19.09.19z" class="cls-3"/><path d="M148.16 45v-5.58s-.31-1.18-1.18-1.43a5 5 0 0 0-1.09-.09c-.28 0-.46-.09-.46-.28s.22-.25.62-.25c1.43 0 3.16.06 3.94.06 1.12 0 3.29-.06 4.53-.06 3.41 0 4.65 1.12 5.09 1.49a4.57 4.57 0 0 1 1.32 3.14c0 3.72-3 6.39-6.85 6.39a7 7 0 0 1-.81 0 .31.31 0 0 1-.34-.28c0-.22.31-.34.9-.34a4.12 4.12 0 0 0 3.66-4.28 4.9 4.9 0 0 0-1.61-3.91 4.1 4.1 0 0 0-2.73-1 4.28 4.28 0 0 0-1.18.12c-.16.06-.22.22-.22.5v10.43c0 2.42 0 4.49.12 5.64.09.74.25 1.24 1.05 1.36a10.45 10.45 0 0 0 1.39.09c.31 0 .43.15.43.28s-.22.28-.5.28c-1.83 0-3.75-.09-4.46-.09s-2.36.09-3.44.09c-.34 0-.53-.09-.53-.28s.09-.28.43-.28a4 4 0 0 0 1-.09c.56-.12.71-.62.81-1.39.12-1.12.12-3.19.12-5.61zm18.13 0v-5.58s-.34-1.21-.93-1.4a3.49 3.49 0 0 0-1-.12c-.28 0-.43-.06-.43-.31s.22-.22.65-.22c1 0 2.88.06 3.66.06s2.45-.06 3.5-.06c.34 0 .56.06.56.22s-.16.31-.43.31a3.8 3.8 0 0 0-.87.1c-.74.12-1 .5-1 1.43s-.06 1.58-.06 5.58v4.65c0 2.54 0 4.65.12 5.77.09.71.28 1.12 1.09 1.24a10.13 10.13 0 0 0 1.4.09c.31 0 .43.15.43.28s-.22.28-.53.28c-1.8 0-3.66-.09-4.4-.09s-2.48.09-3.57.09c-.34 0-.53-.09-.53-.28s.09-.28.43-.28a4 4 0 0 0 1-.09c.56-.12.71-.5.81-1.27.13-1.08.13-3.19.13-5.73zm12.8-5.67c.31.31.34.4.34.56s-.19.25-.34.25a12.42 12.42 0 0 1-2.57-.59c-.77-.22-.9-.43-.9-.9 0-1.89 2-5.21 3.41-6.64a.64.64 0 0 1 .5-.25.18.18 0 0 1 .19.19 1.1 1.1 0 0 1-.16.4 11.15 11.15 0 0 0-1.21 4.84 3.33 3.33 0 0 0 .74 2.14zm2.11 7.97c0-4.5 3.16-10.33 11.44-10.33 6.88 0 11.16 3.81 11.16 9.86s-4.4 10.79-11.44 10.79c-7.93.01-11.16-5.62-11.16-10.32zm18.54.5c0-5.83-3.5-9.43-7.91-9.43-3 0-6.6 1.61-6.6 8.12 0 5.43 3.1 9.7 8.25 9.7 1.92.01 6.26-.89 6.26-8.39zm12.03 1.83c0 3.38 0 5.05.59 5.55s1.52.56 3.63.56c1.46 0 2.51 0 3.19-.74a3.17 3.17 0 0 0 .68-1.58c0-.25.09-.4.31-.4s.25.28.25.59a20.12 20.12 0 0 1-.4 3c-.19.59-.31.71-1.74.71-2 0-3.54 0-4.9-.09s-2.51-.06-3.63-.06h-1.55s-1.33.06-1.89.06c-.34 0-.53-.09-.53-.28s.09-.28.43-.28a4 4 0 0 0 1-.09c.56-.12.71-.62.81-1.39.12-1.12.12-3.19.12-5.61V39.42s-.31-1.18-1.18-1.43a3.64 3.64 0 0 0-.9-.09q-.46 0-.46-.28c0-.19.19-.25.59-.25 1.27 0 3 .06 3.75.06s2.88-.06 3.94-.06c.4 0 .59.06.59.25s-.16.28-.5.28a6.05 6.05 0 0 0-1.05.09c-.74.12-1 .5-1 1.43s-.06 1.58-.06 5.58zm16.8 1.02c-.15 0-.19 0-.25.19l-1.46 3.53a4.77 4.77 0 0 0-.4 1.61c0 .46.25.74 1.09.74h.4c.34 0 .4.12.4.28s-.15.28-.43.28c-.9 0-2.17-.09-3-.09-.28 0-1.74.09-3.16.09-.34 0-.5-.06-.5-.28s.09-.28.31-.28h.81c1.24-.19 1.71-1 2.26-2.33l7.13-16.59c.31-.74.53-1.05.81-1.05s.53.25.81.84c.65 1.46 5.21 12.25 6.95 16.25 1.05 2.39 1.83 2.73 2.33 2.82a6.54 6.54 0 0 0 1 .09c.25 0 .37.09.37.28s-.16.28-1.18.28-2.95 0-5.24-.06c-.5 0-.81 0-.81-.22s.06-.25.34-.28a.42.42 0 0 0 .25-.59l-2.11-5.3a.26.26 0 0 0-.28-.19zm5.83-1.46c.12 0 .15-.06.12-.15l-2.57-6.7c0-.09-.06-.25-.12-.25s-.12.16-.15.25L229 49c-.06.13 0 .19.09.19zm14.85 4.5c.06 2 .4 2.67.93 2.85a4.65 4.65 0 0 0 1.43.19c.31 0 .46.12.46.28s-.25.28-.62.28c-1.77 0-3-.09-3.54-.09-.25 0-1.55.09-2.95.09-.37 0-.62 0-.62-.28s.19-.28.43-.28a5.57 5.57 0 0 0 1.23-.13c.71-.19.81-.9.84-3.19l.25-15.63c0-.53.19-.9.47-.9s.71.4 1.18.87 4.43 4.53 8.4 8.4c1.86 1.85 5.5 5.55 5.86 5.93h.12l-.28-11.72c0-1.61-.28-2.08-.93-2.33a4.57 4.57 0 0 0-1.43-.16c-.34 0-.43-.12-.43-.28s.28-.25.68-.25c1.43 0 2.88.06 3.47.06.31 0 1.33-.06 2.67-.06.37 0 .62 0 .62.25s-.16.28-.46.28a2.77 2.77 0 0 0-.84.09c-.74.22-1 .68-1 2.17l-.31 16.62c0 .59-.22.84-.43.84a1.62 1.62 0 0 1-1.12-.56c-1.71-1.58-5.12-4.84-8-7.6s-5.86-6-6.39-6.51h-.09zM272.81 45v-5.58s-.34-1.21-.93-1.4a3.5 3.5 0 0 0-1-.12c-.28 0-.43-.06-.43-.31s.22-.22.65-.22c1 0 2.88.06 3.66.06s2.45-.06 3.5-.06c.34 0 .56.06.56.22s-.16.31-.43.31a3.79 3.79 0 0 0-.81.09c-.74.12-1 .5-1 1.43s-.06 1.58-.06 5.58v4.65c0 2.54 0 4.65.13 5.77.09.71.28 1.12 1.08 1.24a10.13 10.13 0 0 0 1.4.09c.31 0 .43.15.43.28s-.22.28-.53.28c-1.8 0-3.66-.09-4.4-.09s-2.48.09-3.57.09c-.34 0-.53-.09-.53-.28s.09-.28.43-.28a4 4 0 0 0 1-.09c.56-.12.71-.5.81-1.27.12-1.08.12-3.19.12-5.73zM113.15 71.6a5.15 5.15 0 0 1-.09-7.4 5.67 5.67 0 0 1 4.11-1.38 12.81 12.81 0 0 1 1.88.13c.49.06.91.18 1.3.22.14 0 .19.08.19.16s0 .26-.07.71 0 1.14 0 1.4 0 .3-.16.3-.13-.11-.13-.29a1.85 1.85 0 0 0-.51-1.2 3.87 3.87 0 0 0-2.64-.81 3.39 3.39 0 0 0-2.44.81 4.86 4.86 0 0 0 2.9 8c1.16 0 1.86-.13 2.38-.73a2.18 2.18 0 0 0 .44-.86c0-.21.07-.26.17-.26s.12.09.12.2a12.36 12.36 0 0 1-.29 1.73.46.46 0 0 1-.34.38 7.5 7.5 0 0 1-2.34.3 6.5 6.5 0 0 1-4.48-1.41zm9.08-2.95c0-1.88 1.33-4.33 4.8-4.33 2.89 0 4.68 1.6 4.68 4.13a4.47 4.47 0 0 1-4.8 4.53 4.31 4.31 0 0 1-4.68-4.33zm7.77.21c0-2.45-1.47-4-3.32-4-1.27 0-2.77.68-2.77 3.41 0 2.28 1.3 4.07 3.46 4.07.81.04 2.63-.34 2.63-3.49zm4.94-4.35c0-.18.13-.29.22-.29s.2.05.35.35l3.07 6.16 3.07-6.24c.09-.18.2-.27.3-.27s.22.12.26.35l1 6.82c.1.69.21 1 .56 1.09a2.25 2.25 0 0 0 .65.11c.1 0 .18 0 .18.1s-.13.13-.3.13-1.91-.05-2.37-.08c-.27 0-.34-.06-.34-.13s.05-.09.13-.12.09-.16.05-.47l-.64-4.78-2.46 4.94c-.26.52-.33.63-.46.63s-.27-.22-.46-.56c-.27-.51-1.18-2.2-1.31-2.51s-.77-1.6-1.14-2.37l-.55 4.32a3.74 3.74 0 0 0 0 .52c0 .21.16.29.35.33a2 2 0 0 0 .4.05c.1 0 .18.05.18.1s-.1.13-.27.13h-2.34c-.12 0-.21 0-.21-.13s.06-.1.18-.1a2 2 0 0 0 .35 0c.31 0 .42-.48.47-.84zm12.61 0c0-.18.13-.29.22-.29s.2.05.35.35l3.07 6.16 3.07-6.24c.09-.18.2-.27.3-.27s.22.12.26.35l1 6.82c.1.69.21 1 .56 1.09a2.25 2.25 0 0 0 .65.11c.1 0 .18 0 .18.1s-.13.13-.3.13-1.91-.05-2.37-.08c-.27 0-.34-.06-.34-.13s.05-.09.13-.12.09-.16.05-.47l-.64-4.78-2.46 4.94c-.26.52-.33.63-.46.63s-.27-.22-.46-.56c-.27-.51-1.18-2.2-1.31-2.51s-.77-1.6-1.14-2.37l-.55 4.32a3.58 3.58 0 0 0 0 .52c0 .21.16.29.35.33a2 2 0 0 0 .4.05c.1 0 .18.05.18.1s-.1.13-.27.13h-2.34c-.12 0-.21 0-.21-.13s.07-.1.18-.1a2 2 0 0 0 .35 0c.31 0 .42-.48.47-.84zm11.29 3.16v-2.34s-.13-.49-.49-.6a2.13 2.13 0 0 0-.44 0c-.13 0-.2 0-.2-.12s.08-.11.25-.11h3.19c.17 0 .25 0 .25.11s-.06.12-.18.12a1.62 1.62 0 0 0-.34 0c-.3.05-.39.21-.42.6s0 .66 0 2.34v1.55c0 1.61.31 2.24.87 2.68a2.43 2.43 0 0 0 3-.14c.64-.6.66-1.56.66-2.69v-3.74s-.12-.49-.48-.6a2 2 0 0 0-.42 0c-.13 0-.2 0-.2-.12s.08-.11.23-.11h2.71c.16 0 .23 0 .23.11s-.06.12-.2.12a1.63 1.63 0 0 0-.34 0c-.31.05-.39.21-.42.6s0 .66 0 2.34v1.18a4.09 4.09 0 0 1-1.09 3.33 3.57 3.57 0 0 1-2.42.79 4 4 0 0 1-2.61-.76 3.54 3.54 0 0 1-1-2.92zm11.44 3.65c0 .86.17 1.12.39 1.2a2 2 0 0 0 .6.08c.13 0 .19.05.19.12s-.1.12-.26.12h-2.72c-.16 0-.26 0-.26-.12s.08-.12.18-.12a2.34 2.34 0 0 0 .52-.05c.3-.08.34-.38.35-1.34l.1-6.55c0-.22.08-.38.2-.38s.3.17.49.36 1.86 1.9 3.52 3.52c.78.77 2.3 2.33 2.47 2.48h.05l-.1-4.91c0-.68-.12-.87-.39-1a1.94 1.94 0 0 0-.6-.06c-.14 0-.18-.05-.18-.12s.12-.11.29-.11h2.58c.16 0 .26 0 .26.11s-.07.12-.2.12a1.22 1.22 0 0 0-.35 0c-.31.09-.4.29-.42.91l-.13 7c0 .25-.09.35-.18.35a.68.68 0 0 1-.47-.23c-.71-.66-2.15-2-3.34-3.19s-2.46-2.54-2.68-2.73zm10.55-3.65v-2.34s-.14-.51-.39-.59a1.46 1.46 0 0 0-.42-.05c-.12 0-.18 0-.18-.13s.09-.09.27-.09h3c.14 0 .23 0 .23.09s-.07.13-.18.13a1.61 1.61 0 0 0-.34 0c-.31.05-.4.21-.43.6s0 .66 0 2.34v1.95c0 1.07 0 2 .05 2.42 0 .3.12.47.46.52a4.38 4.38 0 0 0 .59 0c.13 0 .18.06.18.12s-.09.12-.22.12h-3.35c-.14 0-.22 0-.22-.12s0-.12.18-.12a1.72 1.72 0 0 0 .4 0c.23-.05.3-.21.34-.53s.05-1.34.05-2.41zm7.17-2.52h-1.7c-.66 0-.94.09-1.1.34a1.25 1.25 0 0 0-.2.38c0 .09-.05.14-.13.14s-.1-.07-.1-.18.22-1.25.25-1.34.07-.21.13-.21.21.09.49.13a10.71 10.71 0 0 0 1.14.05h4.64a5.12 5.12 0 0 0 .78-.05l.31-.05c.08 0 .09.07.09.23v1.34c0 .12 0 .18-.1.18s-.12-.05-.13-.22v-.12c0-.29-.33-.62-1.35-.64h-1.44v4.47c0 1 0 1.88.06 2.37 0 .31.1.52.44.57a4.38 4.38 0 0 0 .58 0c.13 0 .18.06.18.12s-.09.12-.22.12h-3.35c-.14 0-.22 0-.22-.12s0-.12.18-.12a1.65 1.65 0 0 0 .4 0c.23-.05.3-.26.34-.59s.05-1.34.05-2.35zm8.65 4.85a2.2 2.2 0 0 0-.26-1.16c-.08-.17-1.64-2.6-2-3.19a2.52 2.52 0 0 0-.74-.78 1.14 1.14 0 0 0-.48-.14c-.09 0-.17 0-.17-.12s.08-.11.22-.11h2.73c.1 0 .17 0 .17.11s-.08.09-.26.14-.16.08-.16.17a.85.85 0 0 0 .14.38c.21.34 1.7 2.93 1.9 3.24.14-.26 1.53-2.63 1.7-3a1.45 1.45 0 0 0 .17-.58c0-.11-.05-.21-.25-.25s-.21 0-.21-.13.07-.11.2-.11h2.34c.13 0 .21 0 .21.09s-.09.13-.22.13a1.39 1.39 0 0 0-.49.13 1.53 1.53 0 0 0-.6.52 37.2 37.2 0 0 0-2.22 3.54 2.57 2.57 0 0 0-.14 1.11v1.99s.13.53.47.59a4.48 4.48 0 0 0 .57 0c.13 0 .2.06.2.12s-.09.12-.25.12h-3.27c-.16 0-.25 0-.25-.12s.05-.12.18-.12a1.79 1.79 0 0 0 .4 0c.23-.05.33-.26.35-.59s0-.92 0-1.11zm12.02 1.6a5.15 5.15 0 0 1-.09-7.4 5.66 5.66 0 0 1 4.11-1.38 12.84 12.84 0 0 1 1.89.13c.49.06.91.18 1.3.22.14 0 .2.08.2.16s0 .26-.07.71 0 1.14 0 1.4 0 .3-.16.3-.13-.11-.13-.29a1.85 1.85 0 0 0-.51-1.2 3.87 3.87 0 0 0-2.64-.81 3.39 3.39 0 0 0-2.44.81 4.86 4.86 0 0 0 2.9 8 2.82 2.82 0 0 0 2.38-.73 2.19 2.19 0 0 0 .44-.86c0-.21.06-.26.17-.26s.12.09.12.2a12.32 12.32 0 0 1-.29 1.73.46.46 0 0 1-.34.38 7.49 7.49 0 0 1-2.34.3 6.5 6.5 0 0 1-4.5-1.41zm9.07-2.95c0-1.88 1.33-4.33 4.8-4.33 2.89 0 4.68 1.6 4.68 4.13a4.47 4.47 0 0 1-4.8 4.53 4.31 4.31 0 0 1-4.68-4.33zm7.77.21c0-2.45-1.47-4-3.32-4-1.27 0-2.77.68-2.77 3.41 0 2.28 1.3 4.07 3.46 4.07.81.04 2.63-.34 2.63-3.49zm5.81.76c0 1.42 0 2.12.25 2.33s.64.23 1.52.23c.61 0 1.05 0 1.34-.31a1.33 1.33 0 0 0 .29-.66c0-.1 0-.17.13-.17s.1.12.1.25a8.46 8.46 0 0 1-.17 1.28c-.08.25-.13.3-.73.3h-5.01c-.14 0-.22 0-.22-.12s0-.12.18-.12a1.72 1.72 0 0 0 .4 0c.23-.05.3-.26.34-.59s.05-1.34.05-2.35v-4.36s-.13-.49-.49-.6a1.57 1.57 0 0 0-.38 0c-.13 0-.2 0-.2-.12s.08-.11.25-.11h3.22c.17 0 .25 0 .25.11s-.06.12-.21.12a2.59 2.59 0 0 0-.44 0c-.31.05-.4.21-.43.6s0 .66 0 2.34zm7.79 0c0 1.42 0 2.12.25 2.33s.64.23 1.52.23c.61 0 1.05 0 1.34-.31a1.33 1.33 0 0 0 .29-.66c0-.1 0-.17.13-.17s.1.12.1.25a8.45 8.45 0 0 1-.17 1.28c-.08.25-.13.3-.73.3h-5.01c-.14 0-.22 0-.22-.12s0-.12.18-.12a1.72 1.72 0 0 0 .4 0c.23-.05.3-.26.34-.59s.05-1.34.05-2.35v-4.36s-.13-.49-.49-.6a1.57 1.57 0 0 0-.38 0c-.13 0-.2 0-.2-.12s.08-.11.25-.11h3.22c.17 0 .25 0 .25.11s-.06.12-.21.12a2.59 2.59 0 0 0-.44 0c-.31.05-.4.21-.43.6s0 .66 0 2.34zm6.04-1.95v-2.34s-.13-.49-.49-.6a2.17 2.17 0 0 0-.45 0c-.12 0-.2 0-.2-.12s.09-.11.26-.11h4.77a4.83 4.83 0 0 0 .48-.07 1.49 1.49 0 0 1 .18-.05c.07 0 .08.05.08.1a4.84 4.84 0 0 0-.09.71c0 .12 0 .6-.07.73s0 .18-.13.18-.09-.05-.09-.14a1 1 0 0 0-.08-.4c-.09-.19-.18-.35-.75-.4-.2 0-1.56-.05-1.79-.05-.05 0-.08 0-.08.1v2.73c0 .06 0 .12.08.12h2s.44-.05.55-.17.13-.14.18-.14a.11.11 0 0 1 .09.12c0 .07 0 .25-.09.81 0 .22-.05.66-.05.74s0 .25-.12.25-.1 0-.1-.09v-.4s-.21-.39-.64-.43c-.21 0-1.51-.05-1.79-.05-.05 0-.06.05-.06.12v2.52c0 .75.38.92 1.55.92a3.07 3.07 0 0 0 1.08-.14c.29-.13.42-.36.49-.82 0-.12.05-.17.13-.17s.1.14.1.26a7.54 7.54 0 0 1-.16 1.22c-.08.29-.18.29-.61.29h-4.88c-.14 0-.22 0-.22-.12s0-.12.18-.12a1.72 1.72 0 0 0 .4 0c.23-.05.3-.26.34-.59s.05-1.34.05-2.35zm14.94 4.42c0 .3 0 .31-.14.39a6.89 6.89 0 0 1-2.79.49c-2.81 0-5.29-1.28-5.29-4.33a4.09 4.09 0 0 1 2-3.61 5.72 5.72 0 0 1 3.08-.72 12.9 12.9 0 0 1 2 .18c.23 0 .64.1.91.12s.16.05.16.13a15 15 0 0 0-.08 1.82c0 .17-.07.25-.16.25s-.1-.05-.12-.14a1.47 1.47 0 0 0-.39-.91 3.55 3.55 0 0 0-2.48-.84 3 3 0 0 0-3.26 3.34 3.84 3.84 0 0 0 4 4.11 1.87 1.87 0 0 0 .81-.12.37.37 0 0 0 .22-.39v-2.3s-.13-.49-.49-.6a2.1 2.1 0 0 0-.44 0c-.1 0-.18-.05-.18-.12s.09-.1.25-.1h3.09c.16 0 .23 0 .23.1a.13.13 0 0 1-.14.12 1.6 1.6 0 0 0-.31 0c-.31.05-.43.21-.44.6s0 .78 0 1.33zm3.38-4.42v-2.34s-.13-.49-.49-.6a2.17 2.17 0 0 0-.46 0c-.12 0-.2 0-.2-.12s.09-.11.26-.11h4.77a4.79 4.79 0 0 0 .48-.07 1.49 1.49 0 0 1 .18-.05c.07 0 .08.05.08.1a4.84 4.84 0 0 0-.09.71c0 .12 0 .6-.07.73s0 .18-.13.18-.09-.05-.09-.14a1 1 0 0 0-.08-.4c-.09-.19-.18-.35-.75-.4-.2 0-1.56-.05-1.79-.05-.05 0-.08 0-.08.1v2.73c0 .06 0 .12.08.12h2s.44-.05.55-.17.13-.14.18-.14a.11.11 0 0 1 .09.12c0 .07 0 .25-.09.81 0 .22-.05.66-.05.74s0 .25-.12.25-.1 0-.1-.09v-.4s-.21-.39-.64-.43c-.21 0-1.51-.05-1.79-.05-.05 0-.06.05-.06.12v2.52c0 .75.38.92 1.55.92a3.07 3.07 0 0 0 1.08-.14c.29-.13.42-.36.49-.82 0-.12.05-.17.13-.17s.1.14.1.26a7.54 7.54 0 0 1-.16 1.22c-.08.29-.18.29-.61.29h-4.88c-.14 0-.22 0-.22-.12s0-.12.18-.12a1.72 1.72 0 0 0 .4 0c.23-.05.3-.26.34-.59s.05-1.34.05-2.35z" class="cls-3"/><path d="M142.6 27.11h95.17v.88H142.6z" class="cls-1"/><path d="M256.8 16.33a1.14 1.14 0 1 1-1.14-1.11 1.12 1.12 0 0 1 1.14 1.11zm-2 0a.86.86 0 0 0 .87.89.85.85 0 0 0 .85-.88.86.86 0 1 0-1.71 0zm.68.58h-.26V15.8a2.23 2.23 0 0 1 .43 0 .69.69 0 0 1 .39.08.31.31 0 0 1 .11.24.29.29 0 0 1-.23.26.33.33 0 0 1 .2.27.83.83 0 0 0 .08.28h-.28a1 1 0 0 1-.09-.27c0-.12-.09-.18-.23-.18h-.12zm0-.63h.12c.14 0 .26 0 .26-.16s-.07-.17-.24-.17h-.14z" class="cls-3"/></svg>