<?xml version="1.0" encoding="UTF-8" standalone="no"?>
<svg
   xmlns:dc="http://purl.org/dc/elements/1.1/"
   xmlns:cc="http://creativecommons.org/ns#"
   xmlns:rdf="http://www.w3.org/1999/02/22-rdf-syntax-ns#"
   xmlns:svg="http://www.w3.org/2000/svg"
   xmlns="http://www.w3.org/2000/svg"
   viewBox="0 0 330.97333 115.78667"
   height="115.78667"
   width="330.97333"
   xml:space="preserve"
   id="svg2"
   version="1.1"><metadata
     id="metadata8"><rdf:RDF><cc:Work
         rdf:about=""><dc:format>image/svg+xml</dc:format><dc:type
           rdf:resource="http://purl.org/dc/dcmitype/StillImage" /></cc:Work></rdf:RDF></metadata><defs
     id="defs6" /><g
     transform="matrix(1.3333333,0,0,-1.3333333,0,115.78667)"
     id="g10"><g
       transform="scale(0.1)"
       id="g12"><path
         id="path14"
         style="fill:#00452a;fill-opacity:1;fill-rule:nonzero;stroke:none"
         d="m 466.094,176.875 h 15.261 l -10.488,-17.578 c -0.215,-0.352 -0.387,-0.625 -0.664,-0.859 -0.223,-0.235 -0.515,-0.293 -0.867,-0.372 v -0.546 h 10.461 v 0.546 c -0.234,0.079 -0.481,0.079 -0.734,0.176 -0.235,0.098 -0.391,0.313 -0.391,0.684 0,0.156 0.129,0.449 0.332,0.84 0.266,0.332 0.469,0.664 0.652,1.054 l 9.133,16.68 v 6.055 h -0.574 c 0,-0.43 -0.117,-0.703 -0.324,-0.879 -0.188,-0.156 -0.352,-0.196 -0.555,-0.196 h -21.242 c -0.196,0 -0.364,0.04 -0.574,0.196 -0.188,0.176 -0.325,0.469 -0.325,0.957 h -0.515 v -7.832 h 0.515 c 0,0.429 0.137,0.762 0.325,0.859 0.21,0.176 0.378,0.215 0.574,0.215 z m -18.098,-0.508 c 1.035,0 1.859,-0.195 2.629,-0.605 0.742,-0.41 1.316,-0.957 1.836,-1.66 0.461,-0.664 0.832,-1.426 1.086,-2.286 0.191,-0.839 0.293,-1.718 0.293,-2.597 0,-0.899 -0.102,-1.758 -0.293,-2.617 -0.254,-0.84 -0.625,-1.622 -1.086,-2.286 -0.52,-0.683 -1.094,-1.23 -1.836,-1.66 -0.77,-0.429 -1.594,-0.605 -2.629,-0.605 -1.094,0 -1.98,0.176 -2.703,0.605 -0.75,0.43 -1.406,0.977 -1.848,1.66 -0.496,0.664 -0.816,1.446 -1.035,2.286 -0.222,0.859 -0.32,1.718 -0.32,2.617 0,0.879 0.098,1.758 0.32,2.597 0.219,0.86 0.539,1.622 1.035,2.286 0.442,0.703 1.098,1.25 1.848,1.66 0.723,0.41 1.609,0.605 2.703,0.605 z m 0,5.567 c -1.805,0 -3.453,-0.293 -5,-0.957 -1.543,-0.625 -2.898,-1.524 -4.129,-2.657 -1.172,-1.152 -2.109,-2.5 -2.754,-4.043 -0.703,-1.543 -1.062,-3.222 -1.062,-5.058 0,-1.856 0.359,-3.535 1.062,-5.117 0.645,-1.485 1.582,-2.872 2.754,-4.024 1.231,-1.133 2.586,-1.992 4.129,-2.578 1.547,-0.645 3.195,-0.937 5,-0.937 1.699,0 3.371,0.292 4.926,0.937 1.582,0.586 2.93,1.445 4.121,2.578 1.148,1.152 2.129,2.539 2.812,4.024 0.68,1.582 0.985,3.261 0.985,5.117 0,1.836 -0.305,3.515 -0.985,5.058 -0.683,1.543 -1.664,2.891 -2.812,4.043 -1.191,1.133 -2.539,2.032 -4.121,2.657 -1.555,0.664 -3.227,0.957 -4.926,0.957 z m -31.043,-3.985 c 0.442,0 0.985,-0.078 1.563,-0.156 0.625,-0.098 1.152,-0.293 1.687,-0.625 0.559,-0.234 0.996,-0.508 1.391,-0.996 0.379,-0.43 0.601,-1.035 0.601,-1.738 0,-0.723 -0.222,-1.25 -0.601,-1.7 -0.395,-0.546 -0.832,-0.859 -1.391,-1.093 -0.535,-0.235 -1.062,-0.411 -1.687,-0.547 -0.578,-0.117 -1.121,-0.137 -1.563,-0.137 -0.39,0 -0.937,0.02 -1.543,0.137 -0.566,0.136 -1.199,0.312 -1.699,0.547 -0.559,0.234 -1.008,0.547 -1.387,1.093 -0.332,0.45 -0.515,0.977 -0.515,1.7 0,0.703 0.183,1.308 0.515,1.738 0.379,0.488 0.828,0.762 1.387,0.996 0.5,0.332 1.133,0.527 1.699,0.625 0.606,0.078 1.153,0.156 1.543,0.156 z m -7.949,-13.027 -3.738,-6.367 0.562,-0.254 c 0.324,0.371 0.676,0.547 1.086,0.547 0.106,0 0.352,-0.078 0.781,-0.235 0.45,-0.175 1.035,-0.371 1.868,-0.547 0.757,-0.195 1.621,-0.351 2.656,-0.449 1.011,-0.176 2.144,-0.234 3.379,-0.234 1.882,0 3.757,0.293 5.488,0.82 1.836,0.547 3.355,1.387 4.656,2.5 1.348,1.094 2.434,2.5 3.153,4.16 0.8,1.621 1.21,3.457 1.21,5.547 0,2.129 -0.332,3.906 -0.957,5.449 -0.613,1.543 -1.511,2.774 -2.695,3.809 -1.101,1.094 -2.5,1.816 -4.09,2.324 -1.66,0.508 -3.457,0.781 -5.449,0.781 -1.269,0 -2.551,-0.117 -3.918,-0.449 -1.285,-0.312 -2.476,-0.82 -3.601,-1.465 -1.133,-0.625 -2,-1.523 -2.762,-2.558 -0.649,-1.094 -1.02,-2.363 -1.02,-3.867 0,-1.289 0.254,-2.461 0.688,-3.477 0.574,-1.016 1.226,-1.934 2.039,-2.637 0.957,-0.761 1.914,-1.289 3.015,-1.699 1.094,-0.371 2.297,-0.566 3.508,-0.566 1.59,0 3.035,0.195 4.414,0.644 1.289,0.41 2.871,1.055 4.5,1.856 -0.105,-1.172 -0.418,-2.149 -0.855,-2.93 -0.473,-0.82 -1.176,-1.543 -1.926,-2.07 -0.73,-0.567 -1.57,-0.938 -2.48,-1.27 -0.938,-0.254 -1.922,-0.39 -2.918,-0.39 -0.735,0 -1.496,0.058 -2.246,0.156 -0.754,0.058 -1.372,0.215 -1.946,0.41 -0.586,0.195 -1.023,0.43 -1.386,0.742 -0.364,0.274 -0.528,0.625 -0.528,1.074 v 0.45 z m -22.727,6.992 h 0.586 c 0,0.274 0.063,0.547 0.149,0.762 0.078,0.195 0.215,0.371 0.449,0.508 0.242,0.117 0.586,0.254 1.144,0.351 0.426,0.156 1.043,0.293 1.833,0.528 v -15.118 c 0,-0.332 -0.106,-0.527 -0.321,-0.664 -0.262,-0.097 -0.508,-0.136 -0.84,-0.195 v -0.547 h 9.473 v 0.547 c -0.305,0.059 -0.547,0.098 -0.781,0.195 -0.227,0.137 -0.364,0.332 -0.364,0.664 v 22.11 c 0,0.351 0.137,0.586 0.364,0.683 0.234,0.098 0.515,0.157 0.871,0.157 v 0.605 h -9.336 v -0.605 c 0.191,0 0.43,-0.059 0.625,-0.157 0.223,-0.097 0.309,-0.332 0.309,-0.683 v -1.504 c -0.086,-0.059 -0.282,-0.117 -0.583,-0.254 -0.304,-0.098 -0.625,-0.254 -0.968,-0.391 -0.34,-0.097 -0.696,-0.273 -0.949,-0.351 -0.321,-0.078 -0.477,-0.157 -0.528,-0.157 -0.262,0 -0.398,0.157 -0.445,0.45 -0.051,0.293 -0.102,0.547 -0.102,0.703 h -0.586 z m 117.239,469.164 c -6.868,16.504 1.14,39.277 1.14,39.277 -35.926,-8.542 -42.926,-30.183 -53.523,-32.273 -8.391,-1.652 -6.074,18.613 -6.074,18.613 0,0 -50.899,-26.027 -68.528,-67.109 -15.113,-35.52 -1.226,-55.285 -1.226,-55.285 l 18.648,-0.008 c -1.805,59.207 39.563,81.844 67.356,97.051 6.191,3.386 12.097,6.57 16.574,9.676 l 9.715,6.777 -1.883,-11.699 c -0.031,-0.145 -2.309,-14.481 0.586,-28.028 0.879,-3.992 2.293,-7.5 3.594,-10.879 3.289,-8.289 6.66,-16.843 2.793,-31.152 -3.313,-12.137 -13.418,-24.168 -20.891,-31.785 h 13.457 c 0,0 14.043,5.781 25.156,30.644 11.055,31.883 0.028,44.93 -6.894,66.18 z m -20.547,-62.383 c 1.035,3.614 1.418,6.641 1.418,9.407 0,5.75 -1.797,10.214 -3.86,15.398 -1.394,3.77 -2.961,7.676 -4.023,12.422 -1.316,6.172 -1.719,12.402 -1.719,17.648 0,1.348 0,2.586 0.059,3.778 -2.766,-1.582 -5.762,-3.231 -8.731,-4.864 -26.496,-14.472 -62.16,-33.933 -62.16,-84.453 0,-1.23 0.078,-2.468 0.102,-3.738 l 52.988,-0.039 c 2.645,2.246 21.758,18.926 25.926,34.441 z m -22.317,-151.562 4.961,56.387 c -7.246,-3.262 -15.703,-5.528 -25.23,-6.231 l -5.07,-93.164 c 0,-0.691 -0.657,-1.211 -1.348,-1.211 v 0 h -0.059 c 0,0 0,0 0.059,0 -0.735,0 -1.336,0.52 -1.36,1.211 l -5.078,93.164 c -9.539,0.676 -17.957,2.902 -25.242,6.094 l 4.922,-56.25 -178.738,74.316 c 5.379,-14.238 70.711,-186.875 71.66,-189.496 l 113.562,-50.39 2.571,44.414 c 0,0.39 0.359,0.781 0.742,0.781 0.457,0 0.84,-0.391 0.84,-0.781 l 4.234,-48.164 h 0.031 l 3.996,-45.977 c 0.235,-4.16 3.668,-7.461 7.801,-7.461 4.258,0 7.617,3.281 7.805,7.441 l 4.129,45.997 v 0 l 4.199,48.164 c 0,0.39 0.359,0.781 0.789,0.781 0.442,0 0.805,-0.391 0.805,-0.781 l 2.578,-44.414 113.582,50.39 c 0.945,2.621 66.211,175.258 71.594,189.496 z m -139.004,94.933 c 18.821,-12.187 50.723,-39.582 67.524,-56.953 -40.703,71.063 -71.25,86.68 -79.582,88.934 z m 72.161,-76.945 c -66.454,66.367 -109.727,86.758 -130.371,90.567 l 15.71,-41.368 z m 104.687,91.387 h -129.16 c -2.891,0 -5.281,-2.403 -5.281,-5.352 0,-2.918 2.39,-5.34 5.281,-5.34 h 129.16 c 2.981,0 5.313,2.422 5.313,5.34 0,2.949 -2.332,5.352 -5.313,5.352 z m -122.48,-18.524 c 6.004,-14.25 25.879,-33.254 57.89,-33.254 32.141,0 51.094,19.004 58.391,33.254 z m 182.265,36.063 c -8.32,-2.254 -38.867,-17.871 -79.621,-88.934 16.848,17.371 48.75,44.766 67.641,56.953 z m 30.457,-59.727 15.649,41.368 c -20.586,-3.809 -63.852,-24.2 -130.305,-90.567 z m 150.039,-63.757 -0.047,7.058 h -49.835 c -0.653,64.453 -16.571,124.328 -43.551,174.18 h 36.836 l -5.293,7.07 h -35.5 c -23.282,40.625 -53.977,74.18 -89.59,97.453 0,0 -2.383,0.906 -3.731,1.551 -1.464,0.734 -11.406,4.414 -11.406,4.414 -9.719,3.586 -27.019,8.254 -27.019,8.254 49.961,-20.156 93.004,-59.746 123.64,-111.672 h -88.164 c -4.199,13.77 -8.855,26.856 -14.054,39.094 -15.516,36.902 -34.227,63.711 -54.852,79.16 0,0 -3.281,0.496 -5.43,0.789 -2.09,0.254 -10.715,1.113 -10.715,1.113 31.653,-15.672 59.204,-59.519 77.805,-120.156 h -13.137 c 0,0 1.067,-2.832 1.719,-7.07 h 13.535 c 4.282,-14.793 8.047,-30.508 11.274,-47 0,0 3.355,1.375 5.242,1.972 l 1.406,0.489 c -3.074,15.476 -6.633,30.32 -10.703,44.539 h 90.117 c 27.461,-49.52 43.867,-109.492 44.531,-174.18 h -53.347 l -2.656,-7.058 h 56.003 c -0.527,-64.649 -16.867,-124.606 -44.21,-174.157 h -90.274 c 3.442,11.914 6.457,24.239 9.133,37.071 l -7.883,-3.516 c -2.508,-11.641 -5.391,-22.832 -8.433,-33.555 h -67.227 l -15.918,-7.09 h 81.016 c -18.188,-59.687 -45.09,-103.164 -76.016,-119.746 0,0 7.605,0.84 9.773,1.055 2.129,0.195 5.735,0.781 5.735,0.781 20.047,15.606 38.316,42.051 53.512,78.164 5.265,12.461 9.992,25.743 14.257,39.746 h 88.301 c -29.551,-50.39 -70.75,-89.238 -118.66,-110.058 0,0 13.152,3.652 21.301,6.68 0,0 12.859,4.804 15.984,6.347 l 2.695,1.035 c 34.461,23.34 64.2,56.27 86.829,95.996 h 34.929 c 1.223,1.446 5.274,7.09 5.274,7.09 h -36.297 c 26.836,49.883 42.703,109.75 43.262,174.157 z m 0,0 v 0 -0.098 z M 394.766,256.406 h -66.844 c -3.117,10.684 -5.93,21.817 -8.418,33.399 l -7.934,3.496 c 2.676,-12.774 5.715,-25.039 9.094,-36.895 h -90.266 c -27.371,49.551 -43.628,109.508 -44.187,174.157 h 55.723 l -2.664,7.058 h -53.008 c 0.601,64.688 16.968,124.66 44.519,174.18 h 90.059 c -4.07,-14.317 -7.664,-29.246 -10.711,-44.863 0,0 2.469,-0.594 3.941,-1.211 l 2.754,-1.153 c 3.156,16.582 6.946,32.364 11.242,47.227 h 40.196 c 1.433,2.726 4.082,7.07 4.082,7.07 h -42.149 c 18.606,60.625 46.106,104.473 77.813,120.156 0,0 -2.969,-0.203 -5.281,-0.398 -2.395,-0.188 -10.579,-1.25 -10.579,-1.25 -20.71,-15.41 -39.621,-42.324 -55.214,-79.414 -5.157,-12.238 -9.817,-25.324 -14.004,-39.094 h -88.184 c 30.93,52.434 74.602,92.317 125.215,112.305 l -2.219,-0.399 c -2.879,-0.8 -11.187,-3.136 -11.187,-3.136 -11.157,-2.879 -28.325,-10.039 -28.325,-10.039 -36.453,-23.329 -67.871,-57.274 -91.492,-98.582 -0.058,-0.051 -0.066,-0.098 -0.09,-0.149 h -36.66 l -5.261,-7.07 h 38.015 c -26.89,-49.852 -42.969,-109.727 -43.543,-174.18 h -51.101 v -7.058 h 51.082 c 0.476,-64.407 16.355,-124.274 43.215,-174.157 h -37.473 c 0,0 4.922,-6.738 5.234,-7.09 h 36.114 c 23.027,-40.39 53.437,-73.847 88.652,-97.187 0,0 12.859,-5.274 18.262,-7.031 0,0 10.793,-3.848 17.031,-5.371 2.422,-0.567 4.746,-1.25 4.746,-1.25 -48.699,20.644 -90.625,59.824 -120.574,110.839 h 88.308 c 4.258,-14.043 9.016,-27.324 14.239,-39.746 15.285,-36.23 33.613,-62.754 53.808,-78.34 0,0 6.36,-0.859 11.406,-1.386 l 4.129,-0.43 c -31.023,16.445 -58.035,60.059 -76.265,119.902 h 80.75 z m -16.563,100.043 c 0.36,1.692 1.699,7.121 1.902,8.36 1.016,-2.129 4.348,-9.774 5.305,-11.864 z m 18.215,-17.605 c -1.887,3.886 -15.207,31.922 -18.254,37.918 l -0.242,0.078 c -2.246,-6.328 -7.277,-23.27 -8.402,-26.18 l 5.785,-6.476 c 0.515,1.769 1.797,7.187 2.039,7.726 l 10.715,-5.176 c 0.488,-1.074 3.191,-7.5 4.254,-9.824 z m -66.301,36.375 c 0.266,1.543 1.133,6.601 1.321,7.754 1.05,-1.973 4.91,-8.868 5.972,-10.821 z m 19.016,-15.653 c -2.18,3.516 -17.113,28.965 -20.5,34.403 l -0.254,0.078 c -1.758,-5.945 -5.441,-21.863 -6.336,-24.551 l 6.102,-5.848 c 0.351,1.68 1.269,6.766 1.433,7.274 l 10.82,-4.395 c 0.54,-0.984 3.579,-6.777 4.731,-8.953 z m -29.289,10.645 c -1.289,2.305 -17.141,33.379 -19.715,38.094 l -0.234,0.09 c -0.266,-3.575 -1.067,-15.696 -1.262,-17.883 -2.227,3.457 -12.442,20.558 -14.754,24.269 l -0.234,0.067 c 0.105,-5.352 1.382,-26.688 1.46,-30.086 l 6.235,-5.508 c -0.266,3.543 -1.485,18.184 -1.496,19.355 1.211,-1.953 10.039,-16.105 13.426,-21.347 l 0.199,-0.129 c 0.476,4.805 1.004,13.476 1.004,15.246 h 0.007 c 1.387,-2.539 10.083,-20.539 11.282,-22.969 z m 182.129,-8.059 c 0.937,2.09 4.472,9.543 5.476,11.614 0.239,-1.25 1.543,-6.582 1.899,-8.301 z m -7.246,-15.73 c 1.164,2.246 4.011,8.562 4.472,9.648 l 10.899,4.969 c 0.273,-0.574 1.504,-5.918 2.004,-7.703 l 5.906,6.355 c -1.145,2.864 -5.938,19.668 -8.137,25.911 l -0.215,-0.071 c -3.211,-5.808 -17.129,-33.379 -19.058,-37.117 z m 76.386,43.777 c 1.309,2.18 5.907,10.196 7.207,12.324 0,-1.296 0.118,-7.05 0.118,-8.894 z m -9.531,-16.719 c 1.477,2.325 5.195,9.043 5.828,10.227 l 10.969,5.047 c 0.137,-0.594 0.332,-6.434 0.371,-8.32 l 6.738,6.64 c -0.508,3.176 -1.836,21.387 -2.707,28.203 l -0.242,-0.105 c -4.023,-6.211 -21.953,-35.402 -24.394,-39.531 z m -36.785,-15.437 c 1.07,2.332 8.789,19.98 10,22.5 h 0.066 c 0.078,-1.73 1.172,-10.227 2.024,-14.797 l 0.144,0.059 c 3.211,5.156 11.25,19.035 12.395,20.91 0.047,-1.113 -0.18,-15.383 -0.18,-18.82 l 5.942,5.46 c -0.083,3.262 -0.364,24.083 -0.618,29.227 l -0.222,-0.059 c -2.075,-3.543 -11.489,-20.429 -13.45,-23.71 -0.293,2.089 -1.921,14.394 -2.453,17.91 l -0.254,-0.118 c -2.246,-4.609 -16.543,-35.566 -17.605,-37.832 z m -37.168,-8.516 c -2.883,-1.339 -6.801,-2.91 -7.617,-3.222 l 1.492,10.457 c 0.859,5.82 2.383,15.304 2.578,16.386 l -5.937,-2.41 c -0.047,-0.82 -1.707,-12.304 -1.79,-13.078 l -0.859,-6.18 c -0.152,-1.144 -1.656,-11.085 -2.156,-13.625 1.973,0.821 12.629,4.629 13.332,4.954 z m -36.555,-3.066 c 0.672,1.855 3.196,8.426 3.926,10.203 0.488,-1.394 3.242,-7.754 4.031,-9.726 z m -5.027,-13.82 c 0.789,1.933 2.793,7.519 3.094,8.457 l 11.836,0.703 c 0.371,-0.703 2.293,-5.867 3.222,-7.969 l 5.567,4.297 c -1.934,3.566 -10.578,22.57 -14.493,30.305 H 455 c -2.441,-4.993 -12.832,-28.653 -14.297,-31.875 z m -42.109,1.476 c 0.574,2.031 4.39,16.141 4.98,18.34 h 0.086 c 0.769,-1.894 4.883,-11.32 7.449,-16.523 h 0.219 c 2.234,4.07 7.769,15.312 8.531,16.816 0.449,-1.23 4.824,-16.191 5.91,-19.836 l 5.703,3.176 c -1.125,3.555 -8.281,25.273 -10.312,30.887 h -0.313 c -1.386,-2.93 -7.605,-16.278 -9.003,-18.973 -1.075,2.41 -7.168,15.566 -8.973,19.512 h -0.293 c -1.313,-3.946 -8.469,-27.93 -9.082,-29.856 z m -38.333,21.434 c -3.183,1.211 -5.429,2.355 -6.347,2.754 l -2.078,10.879 c -1.086,5.839 -2.649,15.07 -2.785,16.113 l -6.817,2.863 c 0.195,-0.949 2.461,-12.324 2.551,-13.039 l 1.18,-6.152 c 0.234,-1.114 2.148,-11.571 2.421,-13.887 2.215,-0.906 12.391,-5.879 13.172,-6.219 z m -44.707,44.875 14.7,-6.164 -1.516,6.301 -14.578,6.074 z m 464.524,-40 c 0.254,1.211 0.683,2.254 1.297,3.164 0.594,0.945 1.418,1.707 2.351,2.351 0.996,0.637 2.121,1.008 3.352,1.243 1.172,0.175 2.578,0.144 3.984,-0.176 1.477,-0.235 2.703,-0.723 3.762,-1.438 1.031,-0.605 1.875,-1.453 2.508,-2.39 0.715,-0.957 1.152,-1.946 1.355,-3.059 0.227,-1.121 0.227,-2.246 0,-3.457 -0.203,-1.133 -0.64,-2.195 -1.355,-3.125 -0.633,-0.984 -1.446,-1.738 -2.422,-2.363 -0.899,-0.613 -2.024,-1.043 -3.262,-1.231 -1.191,-0.195 -2.558,-0.125 -3.972,0.098 -1.426,0.332 -2.715,0.781 -3.801,1.477 -0.996,0.632 -1.906,1.464 -2.5,2.382 -0.625,0.965 -1.043,2.02 -1.297,3.075 -0.285,1.164 -0.285,2.265 0,3.449 z m -8.266,1.64 c -0.34,-1.945 -0.379,-3.957 -0.152,-6.066 0.293,-2.098 0.984,-4.043 2.105,-5.965 1.118,-1.875 2.688,-3.547 4.7,-4.992 2.011,-1.375 4.511,-2.43 7.558,-3.047 3.074,-0.644 5.899,-0.664 8.203,-0.098 2.41,0.567 4.524,1.477 6.211,2.805 1.707,1.297 3.098,2.879 4.09,4.727 1.027,1.816 1.684,3.738 2.109,5.691 0.333,1.887 0.481,3.926 0.227,6.016 -0.227,2.07 -0.898,4.062 -1.965,5.937 -1.043,1.867 -2.566,3.489 -4.597,4.942 -1.946,1.476 -4.551,2.472 -7.618,3.105 -3.027,0.586 -5.761,0.617 -8.242,0.098 -2.472,-0.547 -4.414,-1.465 -6.23,-2.793 -1.707,-1.328 -3.145,-2.86 -4.129,-4.688 -1.156,-1.843 -1.828,-3.718 -2.27,-5.672 z M 361.008,81.3477 c 1.18,-0.1954 2.176,-0.6836 3.125,-1.3282 0.906,-0.625 1.68,-1.4453 2.312,-2.4023 0.567,-0.9961 0.996,-2.0899 1.184,-3.3008 0.152,-1.2109 0.144,-2.5391 -0.156,-4.0039 -0.285,-1.4648 -0.715,-2.6953 -1.438,-3.75 -0.664,-1.0742 -1.472,-1.875 -2.449,-2.5586 -0.898,-0.6445 -1.898,-1.0351 -3.027,-1.2305 -1.118,-0.2539 -2.246,-0.2539 -3.528,0.0196 -1.133,0.2343 -2.082,0.6054 -3.047,1.289 -0.957,0.6446 -1.687,1.4453 -2.336,2.4414 -0.632,0.9571 -0.996,2.0899 -1.187,3.3008 -0.246,1.2305 -0.141,2.5781 0.191,3.9844 0.239,1.4258 0.703,2.6953 1.411,3.7695 0.64,1.0547 1.472,1.875 2.378,2.5391 0.957,0.6445 2.043,1.0351 3.11,1.2695 1.109,0.2344 2.254,0.2344 3.457,-0.039 z m 1.66,8.2617 c -1.867,0.3906 -3.977,0.4297 -6.02,0.2148 -2.078,-0.2734 -4.089,-0.9765 -5.957,-2.0898 -1.89,-1.0352 -3.648,-2.6367 -5.039,-4.6094 -1.464,-2.0312 -2.488,-4.5703 -3.101,-7.5977 -0.664,-3.1054 -0.696,-5.8789 -0.168,-8.2812 0.515,-2.3828 1.457,-4.4141 2.722,-6.1719 1.274,-1.6797 2.942,-3.0664 4.731,-4.1601 1.812,-0.9961 3.699,-1.6993 5.602,-2.1094 1.925,-0.3711 4.003,-0.5078 6.117,-0.2734 1.968,0.1953 3.992,0.8398 5.855,1.875 1.86,1.0937 3.574,2.5976 5.012,4.6289 1.433,1.9921 2.48,4.4921 3.086,7.6367 0.644,3.0273 0.676,5.7422 0.168,8.125 -0.508,2.5195 -1.418,4.5508 -2.766,6.3281 -1.25,1.7578 -2.812,3.1836 -4.609,4.2578 -1.836,1.0547 -3.738,1.7969 -5.633,2.2266 z m -55.512,-7.7344 -9.851,3.7109 9.715,11.1329 z m -1.426,-12.9297 9.75,-3.2812 0.348,0.8593 c -0.269,0.0586 -0.445,0.2344 -0.613,0.4102 -0.215,0.2148 -0.293,0.4687 -0.293,0.8203 0.058,1.3867 -0.098,29.3555 -0.086,30.7227 0,1.289 0.074,2.0314 0.125,2.2074 0.156,0.429 0.488,0.586 1.047,0.429 l 0.347,0.918 -12.41,4.629 -0.3,-0.918 c 0.476,-0.234 0.64,-0.605 0.425,-1.035 -0.066,-0.273 -0.75,-1.133 -2.031,-2.676 -1.309,-1.601 -16.375,-19.4529 -18.836,-22.4607 -0.195,-0.1758 -0.398,-0.3125 -0.652,-0.3515 -0.317,-0.0196 -0.547,0 -0.774,0.0781 l -0.363,-0.8985 8.691,-3.5546 0.317,0.8203 c -0.149,0.0586 -0.219,0.1562 -0.422,0.2539 -0.195,0.1367 -0.227,0.4101 -0.098,0.7031 0.098,0.1562 0.301,0.4687 0.594,0.8203 0.305,0.3711 2.656,3.125 2.949,3.5156 l 13.711,-5.1367 c 0,-0.3906 0,-4.1211 0,-4.6094 0,-0.4687 -0.047,-0.8398 -0.105,-1.0351 -0.176,-0.293 -0.332,-0.5078 -0.535,-0.4688 -0.254,0.0391 -0.356,0.0782 -0.453,0.1172 z M 79.5234,314.43 l -3.2929,9.988 14.8242,-0.633 z m -10.9804,-6.871 3.4375,-9.786 0.9609,0.293 c -0.1406,0.254 -0.1406,0.508 -0.0976,0.782 0.0976,0.254 0.2031,0.468 0.4375,0.625 1.125,0.898 22.9492,18.433 23.9453,19.203 1.0468,0.812 1.6211,1.269 1.7656,1.32 0.4531,0.117 0.7734,-0.051 0.9883,-0.547 l 0.9175,0.301 -4.0503,12.52 -0.8633,-0.235 c 0.1172,-0.574 -0.0352,-0.906 -0.4571,-1.043 -0.2421,-0.07 -1.4335,-0.097 -3.457,-0.07 -2.039,0.07 -25.3515,0.754 -29.289,0.832 -0.2422,0 -0.4961,0.098 -0.6641,0.301 -0.2031,0.195 -0.3789,0.41 -0.418,0.664 l -0.9179,-0.301 2.6093,-9.055 0.9727,0.371 c -0.0781,0.09 -0.1524,0.274 -0.1524,0.489 -0.0117,0.187 0.2032,0.363 0.5157,0.468 0.2148,0.051 0.5547,0.079 0.9882,0.051 0.504,-0.019 4.0625,-0.137 4.5391,-0.137 l 4.5391,-14.019 c -0.3203,-0.156 -3.25,-2.5 -3.5821,-2.793 -0.3789,-0.293 -0.664,-0.43 -0.8789,-0.508 -0.3632,-0.156 -0.5859,-0.078 -0.7148,0.117 -0.1133,0.157 -0.2031,0.332 -0.2227,0.391 z m 56.359,-84.336 -5.832,8.75 14.414,3.34 z m -8.679,-9.59 5.996,-8.516 0.742,0.547 c -0.09,0.215 -0.219,0.488 -0.219,0.781 -0.066,0.274 0.024,0.508 0.18,0.723 0.887,1.113 17.144,23.926 17.969,24.98 0.757,1.055 1.226,1.641 1.336,1.719 0.418,0.235 0.781,0.196 1.132,-0.254 l 0.75,0.508 -7.363,10.977 -0.762,-0.469 c 0.254,-0.469 0.2,-0.879 -0.183,-1.152 -0.203,-0.098 -1.348,-0.469 -3.281,-0.997 -1.973,-0.507 -24.582,-6.171 -28.332,-7.148 -0.25,-0.078 -0.528,-0.078 -0.782,0.078 -0.269,0.156 -0.445,0.352 -0.613,0.547 l -0.773,-0.547 5.031,-7.969 0.676,0.508 c -0.032,0.156 -0.082,0.254 -0.176,0.489 -0.063,0.214 0.086,0.429 0.379,0.625 0.168,0.117 0.5,0.195 0.937,0.312 0.488,0.078 3.938,0.938 4.348,1.074 l 8.164,-12.246 c -0.219,-0.273 -2.395,-3.242 -2.668,-3.652 -0.32,-0.371 -0.488,-0.645 -0.676,-0.723 -0.332,-0.195 -0.515,-0.195 -0.68,-0.098 -0.199,0.157 -0.265,0.313 -0.343,0.411 z M 464.246,61.2109 453.77,60.4883 l 4.277,14.1406 z m 3.93,-12.4218 10.34,1.0351 -0.02,0.9375 c -0.281,0 -0.527,0.0586 -0.781,0.1367 -0.242,0.1368 -0.41,0.3125 -0.559,0.5469 -0.586,1.4063 -12.195,26.8555 -12.683,28.0664 -0.567,1.2305 -0.813,1.836 -0.813,2.0508 -0.055,0.4102 0.246,0.7227 0.735,0.8203 l -0.059,0.9766 -13.145,-0.918 0.039,-0.957 c 0.547,-0.0391 0.879,-0.2735 0.887,-0.7227 0.051,-0.2929 -0.262,-1.3672 -0.801,-3.3398 -0.523,-1.9922 -6.921,-24.4336 -7.898,-28.2031 -0.051,-0.293 -0.234,-0.4688 -0.48,-0.6446 -0.196,-0.1367 -0.465,-0.2344 -0.704,-0.2344 l 0.051,-0.9375 9.356,0.2735 -0.059,0.957 c -0.078,0 -0.273,0 -0.508,0.0195 -0.176,0.0782 -0.344,0.254 -0.344,0.6055 0,0.2344 0.032,0.5664 0.2,1.0547 0.144,0.3906 1.113,3.9063 1.238,4.375 l 14.531,0.9961 c 0.235,-0.4102 1.746,-3.7695 1.906,-4.2383 0.172,-0.3515 0.282,-0.7422 0.282,-0.8984 0.019,-0.3906 -0.059,-0.625 -0.266,-0.6836 -0.176,-0.0391 -0.379,-0.0977 -0.516,-0.0977 z m -285.156,90.9179 9.761,-8.203 0.625,0.703 c -0.203,0.195 -0.301,0.508 -0.386,0.762 -0.071,0.273 -0.071,0.625 0.085,1.094 l 4.727,21.21 c 1.152,0.079 8.059,1.231 9.746,1.446 1.731,0.234 3.274,0.39 4.656,0.469 1.477,0.097 2.422,-0.04 2.993,-0.333 l 0.64,0.684 -9.683,7.969 -0.598,-0.684 c 0.203,-0.254 0.391,-0.586 0.598,-0.996 0.078,-0.273 0,-0.664 -0.344,-1.133 -0.125,-0.078 -0.559,-0.254 -1.238,-0.41 -0.707,-0.117 -1.614,-0.293 -2.778,-0.469 -1.062,-0.175 -14.16,-1.679 -15.113,-1.757 l 9.559,10.996 c 0.371,0.449 0.75,0.586 1.132,0.449 0.364,-0.117 0.782,-0.274 1.184,-0.547 l 0.547,0.762 -8.637,7.949 -0.625,-0.742 c 0.285,-0.176 0.512,-0.469 0.625,-0.821 0.149,-0.41 0,-0.839 -0.391,-1.269 l -19.753,-22.617 c -0.352,-0.43 -0.735,-0.625 -1.164,-0.606 -0.399,0.098 -0.719,0.274 -0.965,0.567 l -0.618,-0.723 8.762,-8.027 0.664,0.722 c -0.293,0.274 -0.539,0.664 -0.676,1.055 -0.234,0.371 -0.156,0.762 0.278,1.191 l 4.187,4.883 8.535,1.426 c -0.097,-0.43 -2.968,-12.676 -3.144,-13.34 -0.137,-0.644 -0.332,-0.996 -0.41,-1.133 -0.403,-0.449 -0.75,-0.586 -1.223,-0.41 -0.445,0.196 -0.73,0.352 -0.992,0.547 z m 241.875,-92.3047 12.75,-0.1562 0.05,0.918 c -0.293,0.0976 -0.547,0.2148 -0.859,0.332 -0.176,0.2344 -0.332,0.5078 -0.527,0.957 l -9.793,19.4922 c 0.82,0.7227 5.437,5.9961 6.636,7.2461 1.223,1.25 2.368,2.3828 3.364,3.3203 1.035,0.9961 1.875,1.5235 2.5,1.6211 l 0.086,0.918 -12.586,0.039 v -0.9375 c 0.332,-0.0195 0.664,-0.1562 1.035,-0.3125 0.308,-0.1757 0.562,-0.5468 0.484,-1.1718 0,-0.1172 -0.222,-0.4492 -0.664,-1.0352 -0.437,-0.5273 -1.148,-1.3086 -1.891,-2.1289 -0.746,-0.8789 -9.945,-10.293 -10.546,-10.9766 l 0.418,14.5899 c 0.007,0.625 0.207,0.9375 0.593,1.0937 0.383,0.1172 0.766,0.2149 1.211,0.2344 l 0.032,0.957 -11.766,0.7813 -0.051,-1.0352 c 0.41,0.0391 0.75,-0.0586 1.024,-0.2343 0.304,-0.2149 0.519,-0.625 0.519,-1.1719 L 405.93,50.625 c -0.051,-0.5664 -0.215,-0.957 -0.559,-1.1719 -0.332,-0.1953 -0.703,-0.2343 -1.101,-0.1953 v -0.918 l 11.843,-0.664 0.032,0.957 c -0.454,0.0195 -0.801,0.1367 -1.165,0.332 -0.39,0.1368 -0.617,0.5274 -0.585,1.1329 l 0.234,6.4453 5.652,6.5039 c 0.168,-0.4102 5.766,-11.6797 6.047,-12.2852 0.242,-0.625 0.43,-0.9961 0.43,-1.1523 0,-0.6055 -0.305,-0.9375 -0.75,-1.1133 -0.403,-0.1172 -0.781,-0.1563 -1.106,-0.1563 z m -148.782,40.918 -16.074,8.086 3.547,6.9917 10.586,-5.4097 c 0.281,-0.0781 0.445,-0.293 0.555,-0.6641 0.128,-0.3125 0,-0.7812 -0.332,-1.4648 l 0.695,-0.3711 4.656,9.2187 -0.703,0.332 c -0.359,-0.644 -0.684,-1.035 -0.984,-1.133 -0.383,-0.058 -0.657,-0.058 -0.864,0.039 l -10.586,5.371 2.864,5.704 16.433,-8.321 c 0.239,-0.136 0.422,-0.41 0.532,-0.761 0.105,-0.274 0,-0.801 -0.352,-1.504 l 0.672,-0.332 4.785,9.472 -0.691,0.313 c -0.305,-0.645 -0.618,-0.977 -0.95,-1.055 -0.351,-0.098 -0.566,-0.039 -0.832,0.078 l -25.547,12.969 -0.418,-0.899 c 0.411,-0.234 0.704,-0.527 0.938,-0.781 0.281,-0.351 0.281,-0.761 -0.027,-1.269 L 250.43,96.1133 c -0.242,-0.5078 -0.567,-0.7227 -0.95,-0.7227 -0.386,0.0196 -0.781,0.0977 -1.226,0.2344 l -0.434,-0.7812 25.078,-12.7735 c 0.469,-0.2148 0.754,-0.4101 0.93,-0.625 0.176,-0.1953 0.176,-0.6445 0.051,-1.4258 l 0.535,-0.2539 4.688,9.2188 -0.657,0.3711 c -0.816,-1.0742 -1.609,-1.4453 -2.332,-1.0352 z m -51.047,28.1837 -14.546,10.488 4.531,6.367 9.605,-6.972 c 0.18,-0.137 0.364,-0.41 0.41,-0.684 0.122,-0.41 -0.105,-0.84 -0.535,-1.445 l 0.657,-0.449 5.964,8.398 -0.644,0.41 c -0.41,-0.586 -0.781,-0.918 -1.113,-0.957 -0.352,-0.058 -0.606,0 -0.872,0.137 l -9.585,6.953 3.667,5.156 15.024,-10.722 c 0.164,-0.176 0.359,-0.391 0.406,-0.723 0.063,-0.391 -0.191,-0.879 -0.633,-1.484 l 0.664,-0.45 6.114,8.614 -0.633,0.41 c -0.402,-0.567 -0.781,-0.86 -1.113,-0.879 -0.317,-0.059 -0.579,0.019 -0.801,0.195 l -23.254,16.68 -0.527,-0.762 c 0.332,-0.293 0.617,-0.625 0.761,-0.957 0.188,-0.371 0.157,-0.742 -0.195,-1.211 l -17.461,-24.453 c -0.32,-0.488 -0.703,-0.664 -1.133,-0.586 -0.371,0.098 -0.761,0.195 -1.133,0.41 l -0.554,-0.742 22.832,-16.426 c 0.445,-0.273 0.672,-0.547 0.816,-0.761 0.129,-0.215 0.039,-0.704 -0.183,-1.407 l 0.468,-0.39 6.075,8.476 -0.579,0.45 c -0.957,-0.958 -1.796,-1.172 -2.5,-0.684 z M 84.582,375.219 67.2578,371.449 c -2.082,-0.476 -3.9961,-1.133 -5.6836,-1.914 -1.75,-0.918 -3.1836,-2.109 -4.2969,-3.496 -1.1445,-1.355 -1.8085,-3.105 -2.2304,-5.144 -0.3281,-1.993 -0.211,-4.356 0.2851,-7.11 0.625,-2.707 1.4649,-4.953 2.5782,-6.66 1.1328,-1.711 2.5,-2.988 4.1015,-3.801 1.6094,-0.84 3.418,-1.269 5.3399,-1.406 1.9179,-0.098 3.8984,0.059 6.0078,0.469 l 17.3945,3.722 c 0.5664,0.118 0.9453,0.02 1.1914,-0.304 0.2149,-0.34 0.3985,-0.762 0.5078,-1.2 l 0.9961,0.165 -2.7344,11.105 -0.9101,-0.195 c -0.0391,-0.274 -0.0859,-0.469 -0.1953,-0.742 -0.1367,-0.293 -0.4297,-0.489 -1.0156,-0.625 l -18.8165,-3.938 c -1.9531,-0.43 -3.4687,-0.164 -4.5351,0.801 -1.1094,0.929 -1.9024,2.363 -2.3125,4.219 -0.3594,1.835 -0.2813,3.476 0.3789,4.757 0.5977,1.356 1.9336,2.168 3.918,2.598 l 18.7812,3.973 c 0.5547,0.097 0.9063,0.05 1.1211,-0.145 0.1758,-0.195 0.3125,-0.441 0.4414,-0.637 l 0.9375,0.196 -1.9922,11.269 -0.8789,-0.176 c 0.0469,-0.468 0.0469,-0.957 -0.039,-1.328 -0.0508,-0.371 -0.4219,-0.613 -1.0157,-0.683 z M 150.547,221.328 136.738,209.98 c -1.601,-1.328 -3.008,-2.773 -4.101,-4.375 -1.153,-1.542 -1.875,-3.242 -2.239,-5.039 -0.339,-1.718 -0.242,-3.554 0.415,-5.546 0.613,-1.973 1.804,-3.985 3.601,-6.172 1.707,-2.168 3.457,-3.711 5.293,-4.727 1.824,-0.937 3.621,-1.445 5.41,-1.445 1.797,0 3.606,0.41 5.363,1.172 1.786,0.82 3.458,1.875 5.067,3.183 l 13.75,11.387 c 0.488,0.332 0.867,0.43 1.238,0.273 0.324,-0.175 0.656,-0.449 1.028,-0.82 l 0.722,0.606 -7.48,8.593 -0.742,-0.625 c 0.097,-0.215 0.136,-0.468 0.175,-0.761 0.059,-0.293 -0.144,-0.645 -0.586,-0.996 L 148.77,192.461 c -1.551,-1.231 -2.989,-1.719 -4.407,-1.348 -1.402,0.352 -2.715,1.211 -3.925,2.676 -1.18,1.504 -1.833,2.969 -1.883,4.434 -0.078,1.406 0.683,2.793 2.207,4.023 l 14.902,12.285 c 0.449,0.371 0.828,0.528 1.106,0.43 0.308,-0.078 0.527,-0.195 0.691,-0.371 l 0.754,0.625 -6.992,9.043 -0.743,-0.567 c 0.262,-0.449 0.477,-0.859 0.583,-1.191 0.07,-0.41 -0.079,-0.781 -0.516,-1.172 z m -62.7931,45.508 20.2541,10.41 0.09,-0.098 -16.0863,-18.613 24.5703,2.09 0.051,-0.098 -20.2658,-10.468 c -0.4297,-0.254 -0.8399,-0.254 -1.1445,-0.059 -0.2813,0.195 -0.5547,0.488 -0.8282,0.898 l -0.8203,-0.468 5.1289,-9.18 0.7891,0.391 c -0.0859,0.332 -0.1367,0.644 -0.1367,0.937 0.0508,0.371 0.2734,0.664 0.7615,0.899 l 26.719,13.769 c 0.535,0.274 0.879,0.313 1.16,0.098 0.266,-0.176 0.512,-0.371 0.703,-0.606 l 0.84,0.43 -6.863,12.246 -0.852,-0.469 c 0.156,-0.312 0.207,-0.566 0.305,-0.8 0.027,-0.196 -0.059,-0.43 -0.305,-0.528 -0.23,-0.156 -0.84,-0.254 -1.941,-0.39 -1.067,-0.098 -10.977,-0.84 -12.344,-0.977 0.32,0.332 6.992,7.91 7.949,8.887 0.95,1.074 1.524,1.601 1.668,1.718 0.266,0.098 0.41,0.079 0.598,-0.117 0.137,-0.175 0.281,-0.429 0.5,-0.703 l 0.816,0.449 -5.945,12.559 -0.84,-0.41 c 0.137,-0.332 0.149,-0.625 0.149,-1.035 0,-0.352 -0.254,-0.664 -0.762,-0.879 l -26.6407,-13.77 c -0.4805,-0.273 -0.879,-0.312 -1.2032,-0.078 -0.2734,0.234 -0.5078,0.488 -0.7226,0.703 l -0.8282,-0.41 4.1485,-9.043 0.8672,0.43 c -0.1836,0.508 -0.3008,0.918 -0.3008,1.289 0,0.39 0.2148,0.723 0.7617,0.996 z m 674.4921,21.641 c 0.527,1.113 1.199,2.031 1.984,2.793 0.821,0.8 1.833,1.386 2.887,1.816 1.035,0.371 2.219,0.547 3.449,0.527 1.25,-0.078 2.547,-0.41 3.86,-1.015 1.367,-0.586 2.488,-1.328 3.379,-2.207 0.879,-0.821 1.558,-1.758 1.953,-2.871 0.476,-1.075 0.652,-2.149 0.652,-3.262 0,-1.113 -0.234,-2.246 -0.691,-3.399 -0.442,-1.035 -1.156,-2.011 -1.965,-2.793 -0.84,-0.761 -1.824,-1.328 -2.871,-1.757 -1.055,-0.391 -2.18,-0.586 -3.418,-0.508 -1.27,0.039 -2.5,0.41 -3.906,0.957 -1.336,0.586 -2.508,1.308 -3.387,2.168 -0.852,0.898 -1.535,1.797 -1.977,2.851 -0.41,1.133 -0.574,2.188 -0.574,3.379 0,1.094 0.215,2.227 0.625,3.321 z m -7.59,3.339 c -0.828,-1.855 -1.297,-3.789 -1.453,-5.898 -0.183,-2.148 0.059,-4.238 0.735,-6.289 0.718,-2.031 1.882,-3.984 3.542,-5.801 1.731,-1.875 3.958,-3.398 6.79,-4.609 2.91,-1.27 5.535,-1.914 8.113,-1.856 2.363,0.039 4.59,0.528 6.523,1.446 1.922,0.879 3.633,2.168 5,3.711 1.375,1.64 2.442,3.32 3.184,5.136 0.808,1.778 1.316,3.75 1.57,5.84 0.195,2.07 0,4.16 -0.68,6.211 -0.707,2.051 -1.82,4.023 -3.429,5.801 -1.707,1.836 -3.953,3.379 -6.875,4.629 -2.832,1.23 -5.41,1.875 -7.969,1.836 -2.41,-0.02 -4.746,-0.489 -6.687,-1.387 -1.997,-0.938 -3.606,-2.168 -5.051,-3.711 -1.465,-1.543 -2.539,-3.242 -3.313,-5.059 z m -3.472,-42.675 -8.039,4.804 3.339,5.586 c 0.86,1.367 1.758,2.168 2.704,2.364 0.988,0.195 2.14,-0.059 3.632,-0.997 1.457,-0.839 2.285,-1.738 2.532,-2.793 0.183,-1.015 -0.11,-2.265 -1.043,-3.789 z m -16.008,-0.274 25.73,-15.429 c 0.547,-0.293 0.813,-0.606 0.813,-0.899 0,-0.371 -0.031,-0.547 -0.047,-0.684 l 0.801,-0.488 5.613,9.336 -0.789,0.547 c -0.234,-0.273 -0.488,-0.547 -0.805,-0.703 -0.281,-0.215 -0.691,-0.137 -1.226,0.156 l -8.352,5.02 3.633,6.132 c 0.808,1.407 1.445,2.754 1.926,4.161 0.449,1.386 0.613,2.754 0.449,4.14 -0.188,1.407 -0.727,2.774 -1.621,4.102 -0.942,1.308 -2.336,2.578 -4.297,3.769 -1.965,1.192 -3.801,1.856 -5.422,2.012 -1.594,0.117 -2.996,0 -4.246,-0.488 -1.281,-0.567 -2.473,-1.328 -3.496,-2.422 -0.957,-1.074 -1.887,-2.305 -2.746,-3.672 l -8.465,-14.297 0.789,-0.469 c 0.09,0.079 0.32,0.215 0.559,0.411 0.269,0.117 0.679,0.058 1.199,-0.235 z m 68.144,82.153 -28.574,9.179 c -0.535,0.196 -0.851,0.481 -0.898,0.832 -0.02,0.321 -0.02,0.789 0.078,1.258 l -0.891,0.324 -3.062,-10.597 0.879,-0.34 c 0.203,0.496 0.437,0.859 0.703,1.113 0.261,0.293 0.711,0.293 1.238,0.125 l 14.734,-4.785 c -2.089,-0.711 -15.254,-5.242 -16.433,-5.625 -1.145,-0.371 -1.641,-0.496 -1.809,-0.469 -0.633,0.098 -0.84,0.422 -0.926,0.715 -0.019,0.34 -0.066,0.664 -0.019,1.004 l -0.891,0.273 -5.066,-14.242 0.937,-0.273 c 0.235,0.449 0.43,0.801 0.664,1.074 0.246,0.234 0.645,0.254 1.161,0.098 l 28.566,-9.2 c 0.605,-0.175 0.891,-0.488 0.945,-0.8 0.024,-0.332 0.024,-0.743 -0.027,-1.153 l 0.891,-0.312 3.589,10.195 -0.906,0.313 c -0.168,-0.469 -0.383,-0.801 -0.644,-1.036 -0.246,-0.253 -0.633,-0.293 -1.192,-0.097 l -19.637,6.371 -0.109,0.168 c 3.027,0.847 13.938,4.687 16.262,5.527 2.207,0.731 4.187,1.434 5.652,1.895 1.477,0.468 2.512,0.633 2.981,0.488 0.386,-0.117 0.613,-0.391 0.586,-0.91 0,-0.438 -0.122,-0.84 -0.247,-1.153 l 0.887,-0.222 3.344,11.258 -0.93,0.254 c -0.215,-0.438 -0.468,-0.868 -0.691,-1.102 -0.235,-0.273 -0.61,-0.332 -1.145,-0.148 z M 607.285,91.3477 594.805,118.574 c -0.293,0.508 -0.293,0.899 0,1.192 0.195,0.293 0.515,0.605 0.988,0.839 l -0.402,0.86 -9.903,-4.922 0.364,-0.859 c 0.464,0.136 0.894,0.214 1.257,0.214 0.325,0 0.645,-0.253 0.899,-0.8 l 6.504,-14.18 c -1.992,1.113 -14.219,7.773 -15.282,8.398 -1.039,0.567 -1.425,0.801 -1.562,1.036 -0.305,0.429 -0.273,0.859 -0.07,1.152 0.222,0.254 0.449,0.488 0.695,0.605 l -0.395,0.879 -13.843,-5.898 0.449,-0.899 c 0.398,0.176 0.816,0.215 1.16,0.215 0.383,0 0.684,-0.273 0.945,-0.84 l 12.473,-27.2262 c 0.242,-0.5273 0.242,-0.9179 0.051,-1.1914 -0.254,-0.3515 -0.512,-0.5273 -0.903,-0.7421 l 0.422,-0.879 9.922,4.2383 -0.398,0.8594 c -0.422,-0.1562 -0.832,-0.2344 -1.184,-0.2344 -0.359,0.0586 -0.676,0.3516 -0.879,0.8203 l -8.613,18.7696 0.098,0.1955 c 2.629,-1.6213 12.824,-7.0705 14.98,-8.2033 2.117,-1.1329 3.848,-2.1094 5.305,-2.8907 1.336,-0.7812 2.144,-1.4257 2.312,-1.8359 0.203,-0.4102 0.196,-0.7813 -0.168,-1.0352 -0.457,-0.3125 -0.757,-0.5078 -1.062,-0.6445 l 0.422,-0.918 10.426,5.2735 -0.372,0.8594 c -0.515,-0.1563 -0.906,-0.2735 -1.257,-0.2735 -0.332,0 -0.645,0.293 -0.899,0.8399 z m 47.11,68.8473 -9.805,-7.636 0.539,-0.743 c 0.594,0.313 0.984,0.586 1.363,0.684 0.383,0.098 0.766,-0.098 1.125,-0.566 l 18.555,-23.516 c 0.351,-0.469 0.398,-0.82 0.234,-1.172 -0.168,-0.351 -0.515,-0.762 -0.996,-1.191 l 0.653,-0.762 9.804,7.676 -0.523,0.761 c -0.571,-0.351 -1.02,-0.546 -1.36,-0.664 -0.379,-0.097 -0.769,0.098 -1.171,0.528 l -18.489,23.515 c -0.418,0.43 -0.515,0.84 -0.308,1.192 0.156,0.371 0.504,0.742 0.945,1.191 z m -96.457,-55.527 -11.786,-4.199 0.325,-0.8987 c 0.632,0.1563 1.082,0.2149 1.484,0.1758 0.406,-0.0195 0.66,-0.293 0.855,-0.8398 l 10.129,-28.2618 c 0.215,-0.5664 0.215,-0.9765 -0.105,-1.1914 -0.293,-0.3125 -0.703,-0.5078 -1.313,-0.8008 l 0.325,-0.8984 11.691,4.2578 -0.305,0.8985 c -0.617,-0.1954 -1.086,-0.2539 -1.484,-0.2344 -0.43,0.039 -0.676,0.3515 -0.867,0.8594 l -10.078,28.2418 c -0.188,0.489 -0.176,0.938 0.156,1.172 0.269,0.293 0.711,0.547 1.297,0.821 z m -52.168,-15.3125 -0.465,2.2656 c -0.969,-0.7227 -2.024,-1.5234 -2.961,-2.4609 -1.035,-0.9571 -1.856,-2.0899 -2.571,-3.2618 -0.625,-1.1914 -1.082,-2.5195 -1.367,-3.9453 -0.281,-1.4062 -0.281,-2.9883 0.039,-4.6484 0.356,-1.9727 1.02,-3.457 2.129,-4.6875 0.989,-1.25 2.336,-1.7188 4.016,-1.4063 1.262,0.2735 2.234,0.9571 2.961,2.0704 0.84,1.0937 1.023,2.4414 0.75,4.1406 -0.43,1.9922 -1.238,3.3203 -2.41,3.9648 -1.235,0.6836 -2.524,0.8399 -3.989,0.5664 -0.047,1.7383 0.325,3.1836 1.086,4.3946 0.821,1.1914 1.758,2.2656 2.782,3.0078 z m 224.347,117.2855 -6.496,-8.301 -7.625,12.598 z m 11.77,-5.371 6.133,8.359 -0.793,0.586 c -0.164,-0.176 -0.391,-0.371 -0.645,-0.469 -0.281,-0.117 -0.488,-0.156 -0.742,-0.058 -1.399,0.507 -27.86,8.867 -29.168,9.238 -1.184,0.449 -1.984,0.762 -2.121,0.859 -0.34,0.293 -0.379,0.684 -0.11,1.113 l -0.742,0.606 -8.113,-10.352 0.769,-0.605 c 0.333,0.391 0.801,0.469 1.145,0.195 0.176,-0.195 0.852,-1.211 1.926,-2.89 1.109,-1.758 13.445,-21.465 15.574,-24.727 0.137,-0.215 0.203,-0.469 0.137,-0.781 -0.008,-0.274 -0.137,-0.547 -0.282,-0.703 l 0.719,-0.645 6.059,7.266 -0.715,0.566 c -0.098,-0.117 -0.227,-0.215 -0.391,-0.332 -0.168,-0.137 -0.41,-0.098 -0.714,0.117 -0.125,0.137 -0.333,0.371 -0.567,0.801 -0.269,0.43 -2.156,3.438 -2.43,3.789 l 9.082,11.524 c 0.364,-0.118 3.782,-1.192 4.231,-1.348 0.391,-0.176 0.738,-0.332 0.879,-0.43 0.308,-0.293 0.418,-0.469 0.308,-0.703 -0.086,-0.156 -0.195,-0.273 -0.269,-0.371 z m -113.098,-86.172 -8.992,-5.391 -2.688,14.551 z m 9.18,-9.219 8.664,5.625 -0.488,0.84 c -0.215,-0.156 -0.422,-0.254 -0.715,-0.254 -0.301,0 -0.535,0.098 -0.774,0.254 -1.062,0.937 -22.968,18.281 -23.926,19.16 -1.035,0.82 -1.589,1.328 -1.675,1.504 -0.285,0.39 -0.129,0.781 0.3,1.074 l -0.468,0.84 -11.336,-6.758 0.457,-0.781 c 0.508,0.215 0.82,0.117 1.074,-0.274 0.106,-0.254 0.449,-1.484 0.879,-3.457 0.398,-1.992 4.875,-24.8434 5.703,-28.6325 0.051,-0.2929 0,-0.5859 -0.203,-0.8007 -0.078,-0.2344 -0.285,-0.4297 -0.481,-0.5274 l 0.458,-0.8203 8.253,4.5117 -0.5,0.8008 c -0.117,-0.0391 -0.242,-0.1172 -0.464,-0.1953 -0.215,-0.0195 -0.391,0.0781 -0.61,0.3711 -0.113,0.2539 -0.183,0.5469 -0.32,1.0156 -0.051,0.4688 -0.664,3.984 -0.774,4.434 l 12.563,7.5 c 0.262,-0.215 3.152,-2.52 3.543,-2.852 0.332,-0.293 0.605,-0.547 0.715,-0.742 0.215,-0.313 0.222,-0.527 0.027,-0.664 -0.137,-0.156 -0.281,-0.254 -0.41,-0.352 z M 536.133,74.3164 526.055,71.582 l 1.347,14.7266 z m 6.34,-11.3281 9.898,3.0273 -0.176,0.8985 c -0.23,-0.0782 -0.535,-0.0782 -0.8,0 -0.282,0.0195 -0.489,0.1953 -0.582,0.4492 -0.903,1.1719 -17.305,23.8672 -18.047,24.9414 -0.754,1.0937 -1.157,1.6797 -1.203,1.8164 -0.168,0.4297 0.097,0.8203 0.585,0.9961 l -0.273,0.8984 -12.703,-3.4179 0.281,-0.9375 c 0.535,0.0976 0.867,-0.0977 0.969,-0.5274 0.086,-0.293 0.027,-1.3867 -0.102,-3.4961 -0.144,-1.9726 -2.019,-25.2539 -2.234,-29.1797 0,-0.2734 -0.09,-0.5078 -0.313,-0.7226 -0.214,-0.1953 -0.468,-0.293 -0.71,-0.4102 l 0.242,-0.9179 9.133,2.1289 -0.254,0.9375 c -0.11,-0.0196 -0.239,-0.0196 -0.43,-0.0391 -0.227,0 -0.383,0.1758 -0.5,0.5469 -0.02,0.2148 -0.02,0.5078 0,1.0156 0.078,0.4297 0.32,4.1406 0.332,4.5312 l 14.148,3.8868 c 0.215,-0.3125 2.344,-3.3203 2.637,-3.6914 0.274,-0.4297 0.383,-0.7618 0.473,-0.9375 0.086,-0.3907 0.008,-0.6055 -0.149,-0.7032 -0.168,-0.1172 -0.324,-0.1953 -0.429,-0.1953 z m 171.558,105.3317 8.657,9.512 -0.676,0.664 c -0.188,-0.176 -0.481,-0.332 -0.762,-0.351 -0.266,-0.098 -0.645,-0.02 -1.184,0.078 l -20.828,5.781 c -0.027,1.152 -0.742,8.125 -0.886,9.863 -0.137,1.699 -0.176,3.301 -0.215,4.688 0,1.465 0.183,2.402 0.515,2.968 l -0.714,0.665 -8.465,-9.297 0.73,-0.625 c 0.235,0.195 0.567,0.351 0.91,0.527 0.371,0.137 0.742,0 1.172,-0.332 0.117,-0.137 0.235,-0.566 0.391,-1.289 0.097,-0.742 0.234,-1.641 0.371,-2.774 0.066,-1.191 0.832,-14.316 0.945,-15.214 l -10.484,10.097 c -0.434,0.352 -0.57,0.742 -0.422,1.133 0.168,0.391 0.383,0.742 0.613,1.133 l -0.679,0.644 -8.372,-8.261 0.665,-0.723 c 0.214,0.371 0.527,0.586 0.886,0.664 0.344,0.098 0.766,-0.039 1.172,-0.449 l 21.547,-20.899 c 0.418,-0.41 0.516,-0.8 0.418,-1.171 0,-0.411 -0.203,-0.645 -0.449,-0.899 l 0.644,-0.664 8.496,8.262 -0.683,0.683 c -0.274,-0.293 -0.696,-0.527 -1.055,-0.683 -0.398,-0.176 -0.742,-0.059 -1.199,0.371 l -4.602,4.473 -1.086,8.574 c 0.453,-0.117 12.5,-3.555 13.11,-3.75 0.703,-0.215 0.996,-0.371 1.133,-0.469 0.386,-0.43 0.527,-0.84 0.371,-1.23 -0.239,-0.43 -0.461,-0.801 -0.625,-0.997 z m -197.156,-66.113 1.465,-4.8632 11.816,3.5352 -1.418,4.883 z m 0.754,-2.4218 11.785,3.5548 m 288.508,429.828 2.976,0.801 c -1.113,1.484 -2.304,2.941 -3.742,4.308 -1.394,1.395 -2.976,2.567 -4.636,3.418 -1.68,0.926 -3.477,1.504 -5.457,1.836 -1.946,0.293 -3.977,0.164 -6.157,-0.449 -2.422,-0.715 -4.351,-1.867 -5.847,-3.527 -1.485,-1.649 -1.844,-3.692 -1.192,-6.102 0.528,-1.828 1.602,-3.273 3.223,-4.308 1.594,-1.036 3.445,-1.231 5.578,-0.645 2.586,0.723 4.18,2.012 4.871,3.859 0.664,1.883 0.723,3.856 0.137,6.036 2.195,0.195 4.16,-0.235 5.879,-1.329 1.738,-1.105 3.215,-2.402 4.367,-3.898 z m 0.973,-29.434 -3.692,18.047 -1.25,-0.242 c 0.18,-0.937 0.18,-1.672 0.117,-2.207 -0.117,-0.578 -0.535,-0.918 -1.265,-1.055 l -38.242,-8.086 c -0.735,-0.156 -1.25,0 -1.575,0.477 -0.222,0.48 -0.527,1.164 -0.769,2.062 l -1.235,-0.246 3.704,-18.093 1.191,0.273 c -0.137,0.906 -0.156,1.66 -0.051,2.227 0.09,0.566 0.488,0.937 1.262,1.082 L 815.281,506 c 0.735,0.176 1.262,0 1.574,-0.488 0.293,-0.457 0.586,-1.141 0.848,-1.992 z m -714.715,142.735 -9.6214,-15.711 1.0977,-0.617 c 0.4765,0.754 0.9531,1.289 1.4335,1.64 0.4102,0.344 0.9375,0.313 1.6133,-0.058 L 132.102,611.41 c 0.625,-0.371 0.894,-0.84 0.789,-1.387 -0.11,-0.535 -0.352,-1.269 -0.782,-2.117 l 1.075,-0.605 9.582,15.722 -1.02,0.645 c -0.555,-0.781 -1.043,-1.309 -1.504,-1.652 -0.429,-0.352 -0.957,-0.321 -1.609,0.05 l -33.399,20.262 c -0.625,0.402 -0.898,0.899 -0.82,1.445 0.106,0.54 0.391,1.262 0.789,2.071 z m 216.758,163.605 -17.469,-5.715 0.347,-1.179 c 0.918,0.242 1.692,0.34 2.247,0.312 0.492,-0.012 0.871,-0.422 1.183,-1.133 l 12.234,-37.148 c 0.254,-0.703 0.137,-1.223 -0.261,-1.563 -0.481,-0.402 -1.114,-0.761 -1.985,-1.085 l 0.383,-1.161 17.512,5.703 -0.41,1.153 c -0.957,-0.235 -1.653,-0.313 -2.141,-0.285 -0.652,0.019 -1.055,0.351 -1.277,1.086 l -12.18,37.117 c -0.234,0.722 -0.156,1.262 0.293,1.621 0.399,0.363 0.984,0.695 1.934,1.086 z m 484.523,-253.332 -6.191,17.375 -1.133,-0.39 c 0.23,-0.938 0.379,-1.653 0.379,-2.227 -0.032,-0.586 -0.391,-0.988 -1.043,-1.203 l -36.731,-13.328 c -0.676,-0.266 -1.199,-0.156 -1.57,0.242 -0.395,0.461 -0.805,1.105 -1.125,1.953 l -1.184,-0.437 6.157,-17.375 1.152,0.429 c -0.266,0.891 -0.363,1.653 -0.363,2.188 0.031,0.547 0.363,0.976 1.086,1.25 l 36.675,13.293 c 0.703,0.273 1.274,0.195 1.621,-0.254 0.422,-0.449 0.793,-1.094 1.118,-1.926 z m -72.207,129.707 -10.512,12.09 -0.972,-0.75 c 0.164,-0.254 0.261,-0.519 0.308,-0.851 0.07,-0.321 -0.113,-0.704 -0.484,-1.114 -0.266,-0.293 -23.656,-32.488 -23.891,-32.656 -0.594,-0.418 -1.863,-0.379 -3.008,0.793 l -1.023,-0.715 12.433,-14.793 0.965,0.711 c -0.382,0.637 -0.554,1.203 -0.715,1.652 -0.171,0.477 -0.066,0.86 0.278,1.063 0.254,0.226 1.012,0.566 2.168,1.016 1.187,0.429 18.504,6.367 19.898,6.867 1.313,0.496 2.219,0.859 2.739,1.074 l 0.105,-0.137 c -0.332,-0.422 -0.93,-1.242 -1.746,-2.414 -0.82,-1.16 -11.176,-16.406 -11.926,-17.422 -0.715,-1.054 -1.277,-1.707 -1.531,-1.914 -0.547,-0.379 -1.516,0.039 -2.727,1.367 l -0.976,-0.761 11.211,-16.024 0.965,0.742 c -0.895,1.504 -0.489,2.665 0.16,3.165 0.164,0.117 35.418,13.64 36.035,13.875 0.777,0.253 1.375,0.441 1.914,0.546 0.594,0.09 1.133,-0.164 1.785,-0.781 l 0.984,0.762 -8.289,12.648 -1.007,-0.754 c 0.453,-0.507 0.675,-1.023 0.851,-1.648 0.109,-0.547 -0.117,-1.094 -0.683,-1.543 -0.372,-0.254 -23.86,-9.629 -24.543,-9.992 l -0.106,0.187 c 0.313,0.379 13.379,19.852 14.102,20.918 0.714,1.063 1.191,1.649 1.339,1.766 0.633,0.441 1.161,0.539 1.637,0.254 0.559,-0.274 0.996,-0.703 1.379,-1.192 l 0.957,0.762 -11.367,14.875 -0.918,-0.773 c 0.352,-0.418 0.547,-0.977 0.723,-1.524 0.144,-0.613 -0.086,-1.101 -0.657,-1.582 -0.347,-0.262 -1.082,-0.605 -2.285,-1.054 -1.172,-0.45 -22.886,-7.754 -23.554,-8.094 l -0.055,0.117 c 0.398,0.547 15.933,21.238 16.187,21.394 0.532,0.469 1.125,0.508 1.614,0.235 0.527,-0.313 0.949,-0.672 1.32,-1.121 z m 27.254,-94.695 -7.149,13.68 19.407,1.515 z m -12.559,-11.984 6.387,-14.473 1.094,0.539 c -0.176,0.34 -0.242,0.703 -0.285,1.121 -0.04,0.422 0.109,0.734 0.335,1.016 1.239,1.386 25.868,31.711 26.969,33.027 1.098,1.309 1.77,2.063 1.953,2.141 0.532,0.3 1.036,0.078 1.496,-0.578 l 1.036,0.558 -8.75,17.137 -1.075,-0.555 c 0.274,-0.773 0.196,-1.281 -0.3,-1.562 -0.356,-0.157 -1.789,-0.383 -4.426,-0.645 -2.727,-0.266 -34.778,-3.43 -39.824,-3.976 -0.371,-0.04 -0.696,0.031 -1.036,0.273 -0.312,0.273 -0.605,0.566 -0.742,0.891 l -1.086,-0.559 7.043,-12.352 1.082,0.567 c -0.078,0.164 -0.183,0.398 -0.23,0.703 -0.078,0.281 0.047,0.586 0.523,0.809 0.188,0.117 0.617,0.207 1.282,0.253 0.566,0.071 5.625,0.481 6.113,0.598 l 9.98,-19.152 c -0.343,-0.379 -3.777,-4.512 -4.16,-4.981 -0.41,-0.476 -0.769,-0.742 -0.957,-0.859 -0.476,-0.215 -0.769,-0.215 -0.945,0.031 -0.196,0.215 -0.383,0.449 -0.461,0.613 z m -65.461,118.808 -11.504,10.266 17.493,8.281 z m -7.566,-15.691 11.133,-11.223 0.84,0.899 c -0.293,0.214 -0.547,0.527 -0.711,0.917 -0.168,0.372 -0.168,0.723 -0.032,1.055 0.657,1.797 12.903,38.86 13.477,40.449 0.652,1.641 1.035,2.559 1.133,2.707 0.39,0.469 0.879,0.438 1.574,-0.039 l 0.769,0.907 -14.21,12.949 -0.79,-0.906 c 0.547,-0.586 0.594,-1.133 0.176,-1.563 -0.176,-0.293 -1.484,-1.008 -3.847,-2.168 -2.454,-1.23 -31.289,-15.566 -35.801,-17.871 -0.332,-0.176 -0.664,-0.207 -1.067,-0.078 -0.378,0.117 -0.711,0.273 -1.035,0.535 l -0.801,-0.926 11,-8.984 0.797,0.887 c -0.144,0.148 -0.3,0.343 -0.476,0.566 -0.203,0.266 -0.137,0.566 0.183,0.93 0.168,0.203 0.579,0.449 1.125,0.711 0.559,0.265 5.11,2.433 5.496,2.726 l 16.055,-14.336 c -0.191,-0.508 -1.844,-5.566 -2.051,-6.133 -0.214,-0.585 -0.476,-0.988 -0.625,-1.183 -0.332,-0.352 -0.632,-0.449 -0.894,-0.293 -0.227,0.148 -0.473,0.293 -0.598,0.383 z m -55.664,66.082 17.336,-10.926 -8.196,-13.125 c -0.418,-0.637 -0.925,-0.91 -1.418,-0.82 -0.515,0.086 -1.113,0.3 -1.746,0.644 l -0.671,-1.027 14.441,-10.067 0.625,1.036 c -0.613,0.429 -1.035,0.867 -1.316,1.316 -0.333,0.422 -0.254,0.988 0.117,1.641 l 20.75,33.125 c 0.398,0.644 0.847,0.918 1.406,0.82 0.469,-0.078 1.086,-0.281 1.797,-0.633 l 0.637,1.055 -14.512,10.086 -0.664,-1.063 c 0.574,-0.468 1.023,-0.879 1.289,-1.34 0.371,-0.418 0.332,-0.976 -0.09,-1.601 l -6.863,-11.152 -17.422,10.917 6.961,11.204 c 0.398,0.625 0.847,0.879 1.34,0.781 0.527,-0.07 1.121,-0.285 1.836,-0.606 l 0.566,1.024 -15.207,8.82 -0.691,-1.047 c 0.605,-0.449 1.082,-0.898 1.406,-1.328 0.281,-0.437 0.23,-0.965 -0.141,-1.59 l -20.66,-33.3 c -0.402,-0.657 -0.832,-0.911 -1.379,-0.833 -0.508,0.11 -1.121,0.325 -1.785,0.665 l -0.676,-1.063 15.215,-8.691 0.684,1.023 c -0.618,0.469 -1.043,0.918 -1.336,1.34 -0.278,0.43 -0.227,0.965 0.105,1.59 z m -74.844,58.183 -12.754,-37.019 c -0.265,-0.715 -0.691,-1.074 -1.211,-1.133 -0.539,-0.012 -1.172,0.066 -1.855,0.254 l -0.41,-1.145 16.757,-5.183 0.379,1.172 c -0.632,0.3 -1.226,0.652 -1.629,0.996 -0.41,0.332 -0.507,0.867 -0.246,1.601 l 4.563,13.133 16.094,-5.586 c 0.273,-0.105 0.617,-0.371 0.859,-0.769 0.266,-0.442 0.184,-1.125 -0.117,-2.102 l 1.086,-0.379 4.461,12.977 -1.094,0.351 c -0.32,-0.898 -0.703,-1.414 -1.094,-1.55 -0.449,-0.129 -0.879,-0.129 -1.191,-0.02 l -16.016,5.574 3.067,8.918 23.757,-8.254 c 0.293,-0.105 0.61,-0.351 0.891,-0.781 0.195,-0.41 0.168,-1.094 -0.176,-2.059 l 1.121,-0.382 4.532,13.105 -1.051,0.371 c -0.317,-0.898 -0.727,-1.445 -1.157,-1.59 -0.464,-0.129 -0.906,-0.129 -1.187,-0.011 l -38.078,13.332 -0.344,-1.164 c 0.742,-0.352 1.328,-0.704 1.789,-1.036 0.43,-0.378 0.528,-0.898 0.254,-1.621 z m -39.805,2.168 c 1.758,-0.281 3.371,-0.898 4.739,-1.726 1.375,-0.86 2.554,-1.906 3.535,-3.156 0.984,-1.27 1.57,-2.715 1.988,-4.297 0.305,-1.582 0.305,-3.34 0,-5.215 -0.406,-1.875 -0.984,-3.496 -1.933,-4.824 -0.934,-1.368 -2.04,-2.469 -3.407,-3.289 -1.34,-0.813 -2.832,-1.379 -4.402,-1.633 -1.613,-0.313 -3.254,-0.313 -5.063,0.05 -1.66,0.301 -3.23,0.918 -4.597,1.727 -1.426,0.891 -2.656,1.953 -3.567,3.195 -0.964,1.25 -1.629,2.664 -1.961,4.286 -0.378,1.582 -0.378,3.312 -0.046,5.195 0.371,1.887 1.043,3.508 1.929,4.883 0.903,1.347 2.031,2.402 3.371,3.242 1.368,0.832 2.864,1.367 4.453,1.672 1.661,0.273 3.313,0.273 4.961,-0.11 z m 2.039,10.684 c -2.859,0.5 -5.796,0.625 -8.816,0.305 -3.125,-0.325 -5.945,-1.192 -8.594,-2.59 -2.722,-1.406 -5.039,-3.406 -7.058,-6.004 -2.043,-2.617 -3.379,-5.891 -4.082,-9.895 -0.735,-3.984 -0.703,-7.527 0.195,-10.652 0.953,-3.145 2.371,-5.832 4.363,-8.078 2.063,-2.266 4.336,-4.024 7.039,-5.391 2.785,-1.336 5.586,-2.304 8.457,-2.859 2.856,-0.547 5.793,-0.684 8.828,-0.422 3.071,0.254 5.903,1.074 8.567,2.461 2.695,1.359 5.039,3.34 7.09,5.891 1.98,2.597 3.332,5.878 4.062,9.902 0.711,3.933 0.664,7.527 -0.261,10.683 -0.879,3.153 -2.336,5.86 -4.321,8.133 -2.019,2.285 -4.375,4.141 -7.066,5.586 -2.778,1.387 -5.539,2.375 -8.403,2.93 z m -84.453,-35.899 -0.691,13.594 14.394,26.36 c 0.215,0.457 0.606,0.73 1.114,0.906 0.539,0.168 0.976,0.234 1.281,0.254 l -0.039,1.269 -18.137,-0.234 0.028,-1.219 c 0.335,0.008 0.722,-0.031 1.234,-0.109 0.508,-0.067 0.816,-0.371 0.816,-0.946 0.012,-0.324 -0.379,-1.398 -1.043,-2.656 -0.672,-1.269 -6.093,-11.047 -6.328,-11.594 -1.008,1.329 -7.961,10.403 -8.625,11.301 -0.586,0.887 -0.918,1.797 -0.918,2.168 -0.015,0.528 0.188,0.828 0.742,0.957 0.481,0.117 0.95,0.203 1.36,0.223 l -0.078,1.211 -19.551,-1.738 0.039,-1.2 c 0.398,0 0.879,-0.05 1.445,-0.136 0.567,-0.11 1.028,-0.352 1.231,-0.743 l 18.679,-25.136 0.676,-13.145 c 0.02,-0.742 -0.195,-1.25 -0.586,-1.484 -0.476,-0.215 -0.898,-0.363 -1.34,-0.449 l 0.071,-1.211 16.34,0.8 -0.051,1.219 c -0.43,0.059 -0.899,0.188 -1.336,0.352 -0.395,0.187 -0.649,0.664 -0.727,1.386 z m -46.773,38.196 -38.195,-7.696 c -0.379,-0.089 -0.75,0 -1.164,0.176 -0.411,0.184 -0.692,0.75 -0.934,1.719 l -1.098,-0.215 2.949,-14.68 1.165,0.188 c -0.207,0.945 -0.165,1.609 0.156,1.934 0.32,0.351 0.617,0.566 0.996,0.664 l 13,2.586 6.148,-30.821 c 0.129,-0.73 0.024,-1.269 -0.398,-1.543 -0.402,-0.32 -0.867,-0.535 -1.301,-0.683 l 0.195,-1.219 16.399,3.328 -0.242,1.172 c -0.453,-0.039 -1.047,0.039 -1.489,0.129 -0.515,0.105 -0.879,0.515 -0.964,1.277 l -6.165,30.821 12.961,2.597 c 0.372,0.07 0.801,0.031 1.204,-0.195 0.418,-0.184 0.718,-0.723 0.898,-1.641 l 1.109,0.196 -2.984,14.699 -1.074,-0.215 c 0.176,-0.969 0.105,-1.621 -0.176,-1.965 -0.332,-0.332 -0.617,-0.535 -0.996,-0.613 z m -110.285,-66.485 2.168,-14.015 1.14,0.129 c 0.149,0.457 0.246,0.879 0.481,1.316 0.144,0.383 0.437,0.703 0.82,0.879 0.164,0.078 0.918,0.215 2.195,0.422 1.34,0.183 2.93,0.457 4.875,0.879 1.914,0.371 3.997,0.926 6.172,1.609 2.227,0.676 4.356,1.485 6.426,2.414 3.215,1.453 5.828,3.035 7.844,4.774 2.039,1.738 3.562,3.535 4.43,5.5 1.015,1.98 1.457,3.933 1.398,5.886 0,2.004 -0.383,3.86 -1.262,5.637 -1.179,2.774 -2.879,4.578 -4.922,5.488 -2.058,0.887 -4.273,1.25 -6.699,1.121 -2.398,-0.125 -4.961,-0.585 -7.476,-1.335 -2.5,-0.762 -4.914,-1.446 -7.122,-2.129 -2.187,-0.657 -4.089,-1.067 -5.593,-1.243 -1.528,-0.144 -2.649,0.372 -3.157,1.438 -0.429,1.055 -0.429,2.059 0.125,2.937 0.61,0.911 1.387,1.77 2.329,2.52 0.925,0.754 1.89,1.437 2.937,1.965 1.043,0.515 1.875,0.898 2.41,1.113 1.477,0.684 2.934,1.16 4.446,1.563 1.472,0.371 2.89,0.593 4.121,0.711 1.257,0.136 2.312,0.187 3.132,0.109 0.903,-0.07 1.399,-0.207 1.583,-0.441 0.042,-0.196 0.097,-0.379 0.148,-0.586 0.066,-0.223 0.09,-0.372 0.156,-0.508 l 1.367,-0.039 -0.273,14.035 -1.106,-0.07 c -0.144,-0.301 -0.25,-0.653 -0.425,-1.036 -0.16,-0.437 -0.461,-0.73 -0.93,-0.945 -0.52,-0.187 -1.277,-0.422 -2.434,-0.656 -1.121,-0.215 -2.515,-0.535 -4.16,-0.906 -1.597,-0.352 -3.418,-0.852 -5.34,-1.457 -1.945,-0.567 -3.964,-1.368 -5.878,-2.286 -3.504,-1.562 -6.18,-3.328 -8.184,-5.332 -2.024,-2.011 -3.379,-4.031 -4.246,-6.054 -0.832,-2.051 -1.203,-4.051 -1.137,-5.996 0.078,-1.981 0.488,-3.661 1.113,-5.067 1.204,-2.617 2.793,-4.328 4.829,-5.187 2,-0.809 4.214,-1.141 6.636,-0.957 2.453,0.148 4.906,0.625 7.446,1.437 2.539,0.762 4.863,1.485 7.117,2.156 2.136,0.664 4.023,1.055 5.605,1.164 1.602,0.106 2.649,-0.5 3.301,-1.738 0.383,-0.937 0.41,-1.797 0.078,-2.609 -0.344,-0.77 -0.898,-1.531 -1.621,-2.196 -0.664,-0.683 -1.426,-1.25 -2.336,-1.699 -0.855,-0.468 -1.519,-0.801 -2.039,-1.047 -1.687,-0.789 -3.555,-1.484 -5.613,-2.078 -2.102,-0.617 -4.043,-1.066 -5.93,-1.386 -1.926,-0.266 -3.484,-0.383 -4.773,-0.325 -1.379,0.059 -2.192,0.371 -2.454,1.028 -0.078,0.234 -0.156,0.437 -0.246,0.625 -0.046,0.156 -0.086,0.273 -0.132,0.418 z m -45.899,-17.734 -6.14,9.16 10.34,7.051 c 2.332,1.57 4.167,2.176 5.585,1.844 1.336,-0.36 2.469,-1.121 3.372,-2.442 1.023,-1.55 1.304,-3.007 0.886,-4.422 -0.449,-1.386 -1.457,-2.656 -3.117,-3.769 z m -19.121,7.188 21.863,-32.356 c 0.454,-0.644 0.5,-1.141 0.239,-1.57 -0.227,-0.442 -0.481,-0.774 -0.727,-1.016 l 0.664,-1.015 12.91,9.414 -0.679,0.976 c -0.586,-0.312 -1.157,-0.519 -1.621,-0.586 -0.52,-0.117 -0.942,0.156 -1.387,0.77 l -7.856,11.554 7.485,5.039 c 0.332,-0.265 10.281,-5.703 11.637,-6.464 1.293,-0.782 2.035,-1.301 2.226,-1.621 0.324,-0.422 0.324,-0.84 -0.074,-1.29 -0.285,-0.421 -0.625,-0.773 -1.059,-1.015 l 0.754,-0.996 16.477,10.293 -0.766,1.004 c -0.574,-0.379 -1.219,-0.567 -1.863,-0.567 -0.723,0.02 -1.36,0.168 -1.973,0.461 l -15.586,7.117 c 1.817,2.696 2.903,5.508 3.313,8.352 0.445,2.871 -0.41,5.828 -2.461,8.855 -2.578,3.938 -5.742,6.086 -9.348,6.536 -3.601,0.429 -7.375,-0.684 -11.238,-3.282 l -24.25,-17.207 0.664,-1.015 c 0.469,0.234 0.906,0.398 1.34,0.457 0.476,0.078 0.879,-0.203 1.316,-0.828 z m 3.504,-39.297 -19.273,-18.008 -6.821,7.371 12.727,11.914 c 0.312,0.246 0.644,0.383 1.16,0.402 0.5,0.02 1.027,-0.285 1.633,-0.988 l 0.859,0.754 -9.07,9.707 -0.781,-0.762 c 0.64,-0.715 0.925,-1.281 0.867,-1.769 -0.086,-0.496 -0.227,-0.848 -0.535,-1.094 l -12.715,-11.934 -5.664,6.106 19.734,18.516 c 0.332,0.261 0.723,0.417 1.199,0.417 0.43,0.059 1.106,-0.332 1.75,-1.093 l 0.813,0.773 -9.328,10.059 -0.813,-0.813 c 0.617,-0.672 0.969,-1.25 0.832,-1.699 -0.097,-0.449 -0.273,-0.809 -0.578,-1.062 l -30.574,-28.965 0.82,-0.899 c 0.617,0.43 1.121,0.75 1.629,0.965 0.571,0.188 1.098,0.02 1.582,-0.516 l 26.446,-28.488 c 0.46,-0.574 0.609,-1.062 0.335,-1.562 -0.238,-0.528 -0.519,-1.043 -0.988,-1.563 l 0.75,-0.859 29.903,28.672 c 0.609,0.508 1,0.832 1.339,0.957 0.332,0.117 0.977,-0.028 1.829,-0.516 l 0.691,0.625 -8.926,9.578 -0.793,-0.769 c 0.871,-1.485 0.871,-2.617 -0.039,-3.457 z m -92.281,-48.743 0.973,-0.769 c 0.16,0.203 0.304,0.391 0.492,0.555 0.144,0.129 0.41,0.324 0.886,0.402 0.332,0.039 1.438,-0.188 3.465,-0.891 1.985,-0.711 30.981,-11.433 32.832,-12.195 1.992,-0.742 3.203,-1.269 3.254,-1.301 0.449,-0.371 0.645,-0.801 0.613,-1.308 -0.046,-0.516 -0.21,-0.938 -0.535,-1.258 l 0.989,-0.754 12.046,15.449 -0.933,0.715 c -0.227,-0.371 -0.617,-0.605 -1.145,-0.793 -0.507,-0.137 -0.964,-0.059 -1.406,0.285 -0.117,0.106 -0.937,1.063 -1.933,2.676 -1.043,1.621 -19.637,32.07 -20.086,32.656 -0.168,0.223 -0.5,0.77 -0.414,1.219 0,0.402 0.199,0.773 0.48,1.184 l -0.984,0.789 -9.875,-11.707 1.004,-0.762 c 0.16,0.262 0.421,0.594 0.851,0.965 0.359,0.39 0.813,0.39 1.231,0.097 0.207,-0.144 0.808,-1.121 1.882,-2.89 1.086,-1.778 11.426,-18.887 12.676,-20.867 l -0.105,-0.129 c -0.45,0.195 -22.625,8.203 -23.789,8.672 -1.18,0.449 -1.829,0.734 -1.934,0.832 -0.449,0.339 -0.496,0.742 -0.176,1.25 0.313,0.527 0.574,0.918 0.801,1.211 l -0.957,0.742 z m 12.207,-61.328 -35.7345,15.86 c -0.6719,0.312 -0.9961,0.715 -0.9961,1.261 0,0.528 0.1563,1.18 0.3711,1.903 l -1.043,0.48 -7.2968,-14.718 1.1406,-0.489 c 0.3359,0.664 0.7265,1.164 1.0469,1.535 0.4492,0.34 0.9961,0.371 1.6601,0.098 l 18.5667,-8.273 c -2.9143,-0.86 -5.7347,-1.746 -8.7151,-2.598 -2.9297,-0.906 -5.5742,-1.641 -7.9063,-2.332 -2.4531,-0.723 -4.3867,-1.301 -5.9297,-1.68 -1.6406,-0.449 -2.1484,-0.656 -2.5976,-0.578 -0.8399,0.09 -1.2305,0.832 -1.2422,1.34 0,0.496 0.0117,0.945 0.1172,1.375 l -1.082,0.508 -8.2344,-20.555 1.1328,-0.5 c 0.3633,0.606 0.707,1.094 1.0781,1.457 0.4375,0.391 0.9375,0.399 1.6211,0.098 l 35.6991,-15.899 c 0.676,-0.324 1.027,-0.703 1.027,-1.191 0,-0.547 -0.136,-1.074 -0.312,-1.672 l 1.152,-0.527 5.735,14.875 -1.133,0.496 c -0.371,-0.586 -0.688,-1.055 -1.047,-1.395 -0.383,-0.293 -0.996,-0.332 -1.633,-0.058 l -24.4412,10.859 -0.1055,0.293 c 4.0899,0.977 8.1524,2.098 11.9219,3.32 3.8478,1.16 7.4028,2.246 10.5078,3.223 3.027,0.918 5.645,1.687 7.754,2.246 2.051,0.566 3.332,0.703 3.879,0.477 0.562,-0.243 0.762,-0.703 0.633,-1.328 -0.149,-0.645 -0.325,-1.192 -0.536,-1.661 l 1.153,-0.476 7.676,15.371 -1.164,0.469 c -0.325,-0.664 -0.684,-1.153 -1.125,-1.536 -0.387,-0.359 -0.934,-0.398 -1.598,-0.078 z m -71.9845,-90.73 21.2383,-5.188 c 2.6406,-0.671 5.2265,-0.898 7.7656,-0.75 2.4883,0.098 4.8242,0.829 6.9531,2.032 2.1797,1.179 4.0625,3.015 5.6953,5.496 1.6485,2.48 2.8868,5.695 3.875,9.668 0.9375,3.996 1.2579,7.394 0.9454,10.363 -0.25,2.949 -1.1407,5.457 -2.3789,7.508 -1.4297,2.051 -3.2032,3.742 -5.2969,5.031 -2.2227,1.289 -4.5781,2.273 -7.293,2.918 l -21.2109,5.254 c -0.6836,0.187 -1.1016,0.547 -1.1992,1.144 -0.0313,0.528 0,1.18 0.0859,1.915 l -1.1719,0.292 -4.6015,-16.152 1.1328,-0.285 c 0.1484,0.285 0.3711,0.547 0.6562,0.859 0.3242,0.313 0.8008,0.403 1.5313,0.227 l 24.1718,-5.891 c 2.4493,-0.644 4.0547,-1.894 4.7383,-3.836 0.6914,-1.925 0.6914,-4.23 0.0078,-6.945 -0.6328,-2.695 -1.6601,-4.793 -3.1445,-6.152 -1.5234,-1.426 -3.5273,-1.805 -6.0352,-1.192 l -24.1601,5.95 c -0.7422,0.164 -1.1836,0.468 -1.3086,0.898 -0.1367,0.371 -0.1641,0.75 -0.1367,1.062 l -1.25,0.286 -3.1836,-16.399 1.164,-0.293 c 0.2696,0.715 0.5157,1.289 0.8477,1.738 0.293,0.469 0.8398,0.606 1.5625,0.442 z M 433.469,15 c 230.719,0 418.394,188.047 418.394,419.164 0,231.191 -187.675,419.231 -418.394,419.231 C 202.766,853.395 15.0117,665.355 15.0117,434.164 15.0117,203.047 202.766,15 433.469,15 Z m 0,853.441 c 238.965,0 433.394,-194.832 433.394,-434.277 C 866.863,194.766 672.434,0 433.469,0 194.492,0 0,194.766 0,434.164 0,673.609 194.492,868.441 433.469,868.441 Z m 320.84,-434.316 c 0,-177.348 -143.555,-321.176 -320.637,-321.176 -177.063,0 -320.625,143.828 -320.625,321.176 0,177.383 143.562,321.191 320.625,321.191 177.082,0 320.637,-143.808 320.637,-321.191" /><path
         id="path16"
         style="fill:#231f20;fill-opacity:1;fill-rule:nonzero;stroke:none"
         d="m 1041.47,679.691 c 0,37.735 0,44.504 -0.48,52.247 -0.48,8.222 -2.42,12.089 -10.4,13.789 -1.94,0.48 -6.05,0.722 -8.23,0.722 -0.96,0 -1.92,0.489 -1.92,1.457 0,1.446 1.2,1.922 3.86,1.922 10.89,0 25.64,-0.723 27.82,-0.723 2.18,0 16.69,0.723 23.94,0.723 2.66,0 3.87,-0.476 3.87,-1.922 0,-0.968 -0.97,-1.457 -1.93,-1.457 -1.7,0 -3.16,-0.242 -6.06,-0.722 -6.52,-0.965 -8.46,-5.321 -8.94,-13.789 -0.48,-7.743 -0.48,-14.512 -0.48,-52.247 v -33.855 c 0,-34.836 7.73,-49.824 18.13,-59.738 11.85,-11.133 22.74,-13.301 36.53,-13.301 14.74,0 29.27,7.012 37.97,17.402 11.12,13.789 14.02,34.348 14.02,59.27 v 30.222 c 0,37.735 0,44.504 -0.48,52.247 -0.48,8.222 -2.42,12.089 -10.39,13.789 -1.94,0.48 -6.05,0.722 -8.23,0.722 -0.97,0 -1.94,0.489 -1.94,1.457 0,1.446 1.21,1.922 3.88,1.922 10.88,0 24.18,-0.723 25.63,-0.723 1.7,0 13.06,0.723 20.32,0.723 2.67,0 3.87,-0.476 3.87,-1.922 0,-0.968 -0.97,-1.457 -1.93,-1.457 -1.7,0 -3.15,-0.242 -6.05,-0.722 -6.54,-1.454 -8.47,-5.321 -8.95,-13.789 -0.48,-7.743 -0.48,-14.512 -0.48,-52.247 v -25.878 c 0,-26.122 -2.91,-55.145 -22.26,-72.313 -17.41,-15.48 -35.55,-17.902 -49.82,-17.902 -8.22,0 -32.66,0.968 -49.82,17.179 -11.86,11.368 -21.05,28.289 -21.05,63.602 v 35.312" /><path
         id="path18"
         style="fill:#231f20;fill-opacity:1;fill-rule:nonzero;stroke:none"
         d="m 1244.68,595.043 c 0.48,-16.934 2.42,-22.012 8.21,-23.465 3.88,-0.957 8.72,-1.211 10.65,-1.211 0.97,0 1.69,-0.715 1.69,-1.691 0,-1.199 -1.44,-1.688 -3.87,-1.688 -12.09,0 -20.56,0.723 -22.49,0.723 -1.94,0 -10.88,-0.723 -20.56,-0.723 -2.17,0 -3.39,0.235 -3.39,1.688 0,0.976 0.72,1.691 1.7,1.691 1.69,0 5.57,0.254 8.7,1.211 5.32,1.453 6.06,7.02 6.06,25.645 v 117.781 c 0,8.223 1.2,10.402 2.9,10.402 2.41,0 6.04,-4.113 8.22,-6.289 3.38,-3.39 34.34,-36.281 67.25,-70.137 21.03,-21.769 43.77,-46.203 50.3,-52.968 l -2.18,103.035 c -0.25,13.301 -1.45,17.891 -7.99,19.101 -3.86,0.723 -8.7,0.969 -10.4,0.969 -1.45,0 -1.69,1.211 -1.69,1.934 0,1.211 1.69,1.453 4.11,1.453 9.68,0 19.84,-0.488 22.25,-0.488 2.43,0 9.44,0.488 18.14,0.488 2.18,0 3.88,-0.242 3.88,-1.453 0,-0.723 -0.97,-1.934 -2.43,-1.934 -0.96,0 -2.66,0 -5.07,-0.48 -7.01,-1.453 -7.5,-5.567 -7.5,-17.899 l -0.49,-120.449 c 0,-13.547 -0.24,-14.758 -1.69,-14.758 -2.17,0 -4.35,1.692 -16.21,12.578 -2.17,1.934 -32.89,32.168 -55.38,55.625 -24.67,25.891 -48.61,51.036 -55.14,58.301 l 2.42,-96.992" /><path
         id="path20"
         style="fill:#231f20;fill-opacity:1;fill-rule:nonzero;stroke:none"
         d="m 1455.14,626.723 c 0,-19.825 0,-36.035 0.96,-44.5 0.74,-6.047 1.46,-9.914 7.75,-10.879 3.13,-0.489 7.73,-0.977 9.67,-0.977 1.21,0 1.69,-0.969 1.69,-1.691 0,-0.965 -0.96,-1.688 -3.37,-1.688 -11.87,0 -25.65,0.723 -26.63,0.723 -1.2,0 -14.5,-0.723 -21.03,-0.723 -2.18,0 -3.39,0.489 -3.39,1.688 0,0.722 0.48,1.691 1.7,1.691 1.93,0 4.59,0.488 6.52,0.977 4.12,0.965 4.84,4.832 5.56,10.879 0.98,8.465 1.22,24.675 1.22,44.5 v 36.281 c 0,31.922 0,37.734 -0.49,44.258 -0.48,7.019 -2.17,10.164 -6.76,11.133 -2.43,0.476 -5.09,0.722 -6.54,0.722 -0.96,0 -1.69,0.965 -1.69,1.699 0,1.2 0.96,1.688 3.39,1.688 7.01,0 20.31,-0.488 21.51,-0.488 0.98,0 14.76,0.488 21.29,0.488 2.43,0 3.39,-0.488 3.39,-1.688 0,-0.734 -0.96,-1.699 -1.69,-1.699 -1.45,0 -2.9,0 -5.33,-0.48 -5.8,-1.211 -7.01,-4.11 -7.49,-11.375 -0.24,-6.524 -0.24,-12.336 -0.24,-44.258 v -36.281" /><path
         id="path22"
         style="fill:#231f20;fill-opacity:1;fill-rule:nonzero;stroke:none"
         d="m 1584.56,593.832 c 12.33,27.57 40.15,97.715 44.75,112.473 0.95,3.133 1.93,6.043 1.93,7.734 0,1.688 -0.72,3.633 -2.9,4.356 -2.41,0.722 -4.84,0.722 -7.27,0.722 -1.2,0 -2.41,0.731 -2.41,1.699 0,1.2 1.46,1.688 4.84,1.688 8.46,0 18.14,-0.488 20.8,-0.488 1.22,0 10.41,0.488 16.7,0.488 2.17,0 3.38,-0.488 3.38,-1.453 0,-0.969 -0.73,-1.934 -2.43,-1.934 -1.45,0 -6.29,0 -10.15,-2.414 -2.9,-1.941 -6.28,-4.844 -11.85,-18.867 -2.42,-5.801 -12.82,-30.477 -23.71,-55.633 -13.06,-29.992 -22.49,-52.238 -27.32,-62.394 -5.81,-12.332 -7.03,-15.477 -9.2,-15.477 -2.42,0 -3.86,2.656 -7.97,12.566 l -52.25,126.016 c -4.83,11.613 -7.74,13.789 -14.75,15.481 -3.38,0.722 -7.02,0.722 -8.24,0.722 -1.2,0 -1.68,1.211 -1.68,1.934 0,1.211 2.18,1.453 5.56,1.453 10.17,0 22.25,-0.488 24.92,-0.488 2.16,0 11.6,0.488 19.82,0.488 3.87,0 5.81,-0.488 5.81,-1.453 0,-0.969 -0.73,-1.934 -2.18,-1.934 -2.41,0 -5.81,-0.246 -7.73,-0.969 -2.18,-0.964 -2.42,-2.168 -2.42,-3.621 0,-2.668 2.66,-8.957 5.79,-17.179 l 40.16,-103.516" /><path
         id="path24"
         style="fill:#231f20;fill-opacity:1;fill-rule:nonzero;stroke:none"
         d="m 1701.17,663.004 c 0,31.922 0,37.734 -0.5,44.258 -0.47,7.019 -1.68,10.41 -8.7,11.375 -1.7,0.234 -5.32,0.48 -7.25,0.48 -0.73,0 -1.69,0.965 -1.69,1.699 0,1.2 0.96,1.688 3.39,1.688 9.66,0 23.44,-0.488 24.66,-0.488 1.46,0 45.95,-0.235 50.79,0 4.12,0.246 7.98,0.976 9.68,1.211 0.96,0.246 1.94,0.968 2.9,0.968 0.73,0 0.96,-0.968 0.96,-1.933 0,-1.446 -1.2,-3.867 -1.68,-9.68 -0.24,-1.922 -0.73,-11.121 -1.22,-13.535 -0.23,-0.977 -0.96,-2.176 -1.93,-2.176 -1.2,0 -1.7,0.965 -1.7,2.656 0,1.453 -0.24,4.844 -1.2,7.254 -1.46,3.391 -3.64,4.836 -15.24,6.289 -3.63,0.481 -28.3,0.735 -30.72,0.735 -0.97,0 -1.21,-0.735 -1.21,-2.188 v -55.871 c 0,-1.445 0,-2.176 1.21,-2.176 2.66,0 30.72,0 35.56,0.489 5.08,0.476 8.22,0.73 10.4,2.898 1.45,1.457 2.42,2.668 3.14,2.668 0.73,0 1.21,-0.488 1.21,-1.699 0,-1.211 -1.21,-4.59 -1.7,-11.367 -0.48,-4.114 -0.95,-11.848 -0.95,-13.301 0,-1.692 -0.5,-3.867 -1.94,-3.867 -0.98,0 -1.45,0.722 -1.45,1.933 0,1.934 0,4.11 -0.97,6.766 -0.73,2.91 -2.66,5.324 -10.89,6.289 -5.8,0.734 -28.53,0.969 -32.17,0.969 -1.21,0 -1.45,-0.723 -1.45,-1.457 v -17.168 c 0,-7.012 -0.24,-30.957 0,-35.067 0.5,-13.789 4.35,-16.445 25.4,-16.445 5.55,0 15.72,0 21.29,2.176 5.55,2.422 8.46,6.047 9.67,14.269 0.47,2.422 0.97,3.145 2.17,3.145 1.21,0 1.46,-1.692 1.46,-3.145 0,-1.457 -1.7,-15.48 -2.91,-19.836 -1.45,-5.32 -3.63,-5.32 -11.85,-5.32 -15.95,0 -28.3,0.488 -37,0.723 -8.95,0.488 -14.52,0.488 -17.66,0.488 -0.48,0 -4.6,0 -9.19,-0.234 -4.11,-0.254 -8.95,-0.489 -12.34,-0.489 -2.18,0 -3.38,0.489 -3.38,1.688 0,0.722 0.48,1.691 1.69,1.691 1.93,0 4.59,0.731 6.52,0.977 4.13,0.722 4.61,4.832 5.57,10.879 1.22,8.465 1.22,24.675 1.22,44.5 v 36.281" /><path
         id="path26"
         style="fill:#231f20;fill-opacity:1;fill-rule:nonzero;stroke:none"
         d="m 1844.63,645.59 c 0,-1.211 0.48,-1.934 1.45,-2.656 3.14,-1.7 14.03,-3.145 23.45,-3.145 5.08,0 10.89,0.234 15.96,3.625 7.26,4.832 12.82,15.723 12.82,31.445 0,25.633 -14.02,40.391 -36.75,40.391 -6.3,0 -13.06,-0.723 -15.25,-1.211 -0.96,-0.488 -1.68,-1.211 -1.68,-2.422 z m -18.39,17.414 c 0,31.922 0,37.734 -0.49,44.258 -0.48,7.019 -1.69,10.41 -8.7,11.375 -1.7,0.234 -5.32,0.48 -7.26,0.48 -0.73,0 -1.69,0.965 -1.69,1.699 0,1.2 0.96,1.688 3.39,1.688 9.67,0 23.95,-0.488 25.15,-0.488 2.18,0 20.07,0.488 26.6,0.488 13.56,0 28.55,-1.211 39.67,-8.953 5.32,-3.867 14.76,-13.781 14.76,-28.047 0,-15.234 -6.29,-30 -26.13,-46.926 17.42,-21.765 32.17,-40.39 44.51,-53.211 11.36,-11.613 18.38,-13.547 23.7,-14.269 4.11,-0.731 6.29,-0.731 7.5,-0.731 1.22,0 1.94,-0.969 1.94,-1.691 0,-1.199 -1.22,-1.688 -5.09,-1.688 h -13.3 c -12.09,0 -17.42,1.211 -22.73,4.11 -9.19,4.836 -16.94,14.746 -29.03,30.226 -8.94,11.133 -18.39,24.434 -22.98,30 -0.96,0.965 -1.45,1.211 -2.9,1.211 l -27.08,0.477 c -0.97,0 -1.45,-0.477 -1.45,-1.688 v -4.836 c 0,-19.843 0,-35.8 0.96,-44.265 0.72,-6.047 1.93,-9.914 8.46,-10.879 2.9,-0.489 7.51,-0.977 9.44,-0.977 1.45,0 1.69,-0.969 1.69,-1.691 0,-0.965 -0.96,-1.688 -3.38,-1.688 -11.61,0 -25.16,0.723 -26.13,0.723 -0.23,0 -14.51,-0.723 -21.04,-0.723 -2.18,0 -3.39,0.489 -3.39,1.688 0,0.722 0.49,1.691 1.7,1.691 1.93,0 4.59,0.488 6.52,0.977 4.11,0.965 4.6,4.832 5.57,10.879 1.21,8.465 1.21,24.675 1.21,44.5 v 36.281" /><path
         id="path28"
         style="fill:#231f20;fill-opacity:1;fill-rule:nonzero;stroke:none"
         d="m 1976.95,569.887 c -2.9,1.457 -3.13,2.179 -3.13,7.746 0,10.156 0.96,18.379 1.2,21.765 0,2.18 0.48,3.379 1.7,3.379 1.2,0 1.93,-0.722 1.93,-2.41 0,-1.699 0,-4.601 0.73,-7.5 3.38,-15 19.34,-20.324 33.61,-20.324 21.04,0 31.93,11.855 31.93,27.336 0,14.754 -7.99,21.766 -26.84,35.801 l -9.69,7.254 c -22.97,17.168 -30.47,29.746 -30.47,44.015 0,24.188 19.11,38.699 47.17,38.699 8.46,0 16.93,-1.21 22,-2.421 4.12,-0.965 5.81,-0.965 7.51,-0.965 1.68,0 2.18,-0.246 2.18,-1.446 0,-0.968 -0.98,-7.746 -0.98,-21.769 0,-3.145 -0.24,-4.598 -1.69,-4.598 -1.44,0 -1.7,0.965 -1.94,2.656 -0.24,2.422 -1.94,7.977 -3.14,10.157 -1.45,2.422 -8.46,10.164 -27.57,10.164 -15.48,0 -28.31,-7.742 -28.31,-22.254 0,-13.059 6.54,-20.559 27.58,-34.824 l 6.05,-4.114 c 25.89,-17.656 34.83,-31.921 34.83,-49.589 0,-12.09 -4.61,-25.145 -19.83,-35.067 -8.95,-5.801 -22.25,-7.246 -33.87,-7.246 -9.91,0 -22.25,1.445 -30.96,5.555" /><path
         id="path30"
         style="fill:#231f20;fill-opacity:1;fill-rule:nonzero;stroke:none"
         d="m 2129.59,626.723 c 0,-19.825 0,-36.035 0.98,-44.5 0.72,-6.047 1.44,-9.914 7.73,-10.879 3.15,-0.489 7.74,-0.977 9.68,-0.977 1.2,0 1.7,-0.969 1.7,-1.691 0,-0.965 -0.98,-1.688 -3.4,-1.688 -11.86,0 -25.64,0.723 -26.6,0.723 -1.21,0 -14.51,-0.723 -21.05,-0.723 -2.17,0 -3.38,0.489 -3.38,1.688 0,0.722 0.48,1.691 1.69,1.691 1.94,0 4.59,0.488 6.53,0.977 4.12,0.965 4.83,4.832 5.56,10.879 0.97,8.465 1.21,24.675 1.21,44.5 v 36.281 c 0,31.922 0,37.734 -0.48,44.258 -0.48,7.019 -2.17,10.164 -6.77,11.133 -2.42,0.476 -5.08,0.722 -6.53,0.722 -0.96,0 -1.69,0.965 -1.69,1.699 0,1.2 0.96,1.688 3.38,1.688 7.02,0 20.32,-0.488 21.53,-0.488 0.96,0 14.74,0.488 21.28,0.488 2.43,0 3.39,-0.488 3.39,-1.688 0,-0.734 -0.96,-1.699 -1.69,-1.699 -1.45,0 -2.9,0 -5.33,-0.48 -5.81,-1.211 -7.01,-4.11 -7.5,-11.375 -0.24,-6.524 -0.24,-12.336 -0.24,-44.258 v -36.281" /><path
         id="path32"
         style="fill:#231f20;fill-opacity:1;fill-rule:nonzero;stroke:none"
         d="m 2252.49,626.723 c 0,-19.825 0,-36.035 0.96,-44.5 0.73,-6.047 1.7,-9.914 8.23,-10.879 2.91,-0.489 7.74,-0.977 9.68,-0.977 1.44,0 1.68,-0.969 1.68,-1.691 0,-0.965 -0.96,-1.688 -3.38,-1.688 -11.6,0 -25.16,0.723 -26.36,0.723 -0.98,0 -15.72,-0.723 -22.01,-0.723 -2.41,0 -3.39,0.489 -3.39,1.688 0,0.722 0.48,1.457 1.69,1.457 1.94,0 4.36,0.488 6.3,0.965 4.34,0.968 5.56,5.078 6.29,11.125 0.95,8.465 0.95,24.675 0.95,44.5 v 86.347 l -30.71,-0.488 c -13.3,-0.234 -18.38,-1.687 -21.53,-6.523 -2.41,-3.633 -2.66,-5.079 -3.38,-6.532 -0.48,-1.691 -1.21,-1.933 -2.18,-1.933 -0.49,0 -1.45,0.476 -1.45,1.687 0,2.18 4.35,20.567 4.6,22.258 0.48,1.211 1.45,3.867 2.17,3.867 1.46,0 3.64,-1.691 9.43,-2.414 6.05,-0.73 14.28,-0.976 16.7,-0.976 h 80.3 c 7.01,0 11.85,0.488 15.23,0.976 3.14,0.481 5.08,0.969 6.04,0.969 0.98,0 0.98,-1.211 0.98,-2.422 0,-6.289 -0.73,-21.047 -0.73,-23.469 0,-1.687 -0.97,-2.656 -1.93,-2.656 -0.98,0 -1.46,0.723 -1.7,3.633 l -0.24,2.18 c -0.74,6.289 -5.33,10.878 -25.64,11.355 l -26.6,0.488 v -86.347" /><path
         id="path34"
         style="fill:#231f20;fill-opacity:1;fill-rule:nonzero;stroke:none"
         d="m 2395.7,620.434 c 0,11.132 -1.44,15.246 -4.59,21.046 -1.7,3.145 -30.48,48.856 -37.72,59.747 -5.08,7.734 -10.17,12.324 -14.04,14.988 -3.14,1.933 -7.25,2.902 -8.95,2.902 -1.2,0 -2.18,0.965 -2.18,1.934 0,0.965 0.74,1.453 2.67,1.453 4.12,0 20.08,-0.488 21.04,-0.488 1.46,0 10.16,0.488 18.38,0.488 2.42,0 2.9,-0.488 2.9,-1.453 0,-0.723 -1.45,-1.446 -3.39,-2.18 -1.68,-0.723 -2.65,-1.687 -2.65,-3.379 0,-2.91 1.45,-5.32 2.91,-7.976 l 38.69,-64.102 c 4.36,8.711 30.97,52.723 34.82,59.5 2.68,4.602 3.64,7.981 3.64,10.637 0,2.91 -0.96,4.597 -3.39,5.32 -1.93,0.488 -3.15,1.457 -3.15,2.422 0,0.723 1.22,1.211 3.4,1.211 5.56,0 13.05,-0.488 14.75,-0.488 1.45,0 16.69,0.488 20.8,0.488 1.44,0 2.65,-0.488 2.65,-1.211 0,-0.965 -0.95,-2.176 -2.65,-2.176 -2.41,0 -6.53,-0.722 -9.92,-2.656 -4.11,-2.422 -6.05,-4.602 -10.65,-10.156 -7.01,-8.235 -37,-56.602 -41.36,-65.305 -3.62,-7.266 -2.65,-13.789 -2.65,-20.566 v -17.657 c 0,-3.379 0,-12.089 0.73,-20.554 0.48,-6.047 1.92,-9.914 8.21,-10.879 2.91,-0.489 7.75,-0.977 9.68,-0.977 1.21,0 1.69,-0.969 1.69,-1.691 0,-0.965 -1.2,-1.688 -3.38,-1.688 -11.84,0 -25.64,0.723 -26.84,0.723 -0.98,0 -14.52,-0.723 -20.8,-0.723 -2.43,0 -3.4,0.489 -3.4,1.688 0,0.722 0.5,1.691 1.7,1.691 1.93,0 4.35,0.488 6.29,0.977 4.35,0.965 5.81,4.832 6.28,10.879 0.48,8.465 0.48,17.175 0.48,20.554 v 17.657" /><path
         id="path36"
         style="fill:#231f20;fill-opacity:1;fill-rule:nonzero;stroke:none"
         d="m 1109.93,364.195 c 0,-20.547 8.96,-36.281 31.2,-36.035 32.41,0 45.47,46.445 45.47,72.059 0,18.633 -9.68,36.047 -30.47,36.047 -33.63,0 -46.2,-45.227 -46.2,-72.071 z m -19.34,3.856 c 0,44.765 29.5,75.48 64.09,75.48 32.89,0 51.28,-19.367 51.28,-49.836 0,-35.312 -25.16,-73.535 -67.48,-72.793 -30.96,-0.242 -47.89,21.047 -47.89,47.149" /><path
         id="path38"
         style="fill:#231f20;fill-opacity:1;fill-rule:nonzero;stroke:none"
         d="m 1305.63,435.602 -1.46,-8.457 h -30.71 l -10.65,-58.301 c -3.13,-17.403 -7.25,-32.414 -14.75,-48.606 -11.85,-25.883 -26.36,-44.261 -27.81,-44.515 -6.29,3.632 -6.05,4.609 -2.91,8.711 14.28,15.488 20.57,35.562 23.95,55.863 l 14.99,86.848 h -24.18 l 1.45,8.457 h 24.18 c 8.24,48.367 32.18,77.878 48.14,77.878 4.59,0 8.71,-3.632 8.47,-10.644 -0.26,-9.188 -4.85,-14.266 -7.75,-14.266 -4.6,0 -1.45,7.743 -9.91,7.743 -14.28,0 -15.97,-26.61 -21.77,-60.711 h 30.72" /><path
         id="path40"
         style="fill:#231f20;fill-opacity:1;fill-rule:nonzero;stroke:none"
         d="m 1580.42,395.199 c 0,-23.203 0,-42.324 1.21,-52.469 0.72,-7.011 2.18,-12.355 9.43,-13.312 3.39,-0.469 8.72,-0.957 10.89,-0.957 1.46,0 1.94,-0.742 1.94,-1.453 0,-1.203 -1.21,-1.945 -3.88,-1.945 -13.3,0 -28.54,0.742 -29.74,0.742 -1.22,0 -16.45,-0.742 -23.71,-0.742 -2.66,0 -3.86,0.488 -3.86,1.945 0,0.711 0.47,1.453 1.93,1.453 2.18,0 5.08,0.488 7.25,0.957 4.84,0.957 6.05,6.301 7.02,13.312 1.21,10.145 1.21,29.266 1.21,52.469 v 25.403 c 0,0.976 -0.73,1.445 -1.46,1.445 H 1456.1 c -0.72,0 -1.44,-0.215 -1.44,-1.445 v -25.403 c 0,-23.203 0,-42.324 1.2,-52.469 0.73,-7.011 2.18,-12.355 9.44,-13.312 3.38,-0.469 8.69,-0.957 10.87,-0.957 1.46,0 1.96,-0.742 1.96,-1.453 0,-1.203 -1.23,-1.945 -3.88,-1.945 -13.3,0 -28.54,0.742 -29.76,0.742 -1.21,0 -16.43,-0.742 -23.7,-0.742 -2.66,0 -3.86,0.488 -3.86,1.945 0,0.711 0.48,1.453 1.93,1.453 2.18,0 5.09,0.488 7.25,0.957 4.85,0.957 6.05,6.301 7.02,13.312 1.21,10.145 1.21,29.266 1.21,52.469 v 42.578 c 0,37.727 0,44.512 -0.48,52.246 -0.49,8.223 -2.42,12.082 -10.41,13.782 -1.93,0.476 -6.04,0.73 -8.22,0.73 -0.97,0 -1.93,0.481 -1.93,1.445 0,1.458 1.2,1.934 3.86,1.934 10.9,0 26.12,-0.723 27.33,-0.723 1.22,0 16.46,0.723 23.71,0.723 2.66,0 3.87,-0.476 3.87,-1.934 0,-0.964 -0.97,-1.445 -1.93,-1.445 -1.7,0 -3.16,-0.254 -6.05,-0.73 -6.53,-1.203 -8.46,-5.313 -8.95,-13.782 -0.48,-7.734 -0.48,-14.519 -0.48,-52.246 v -5.078 c 0,-1.199 0.72,-1.445 1.44,-1.445 h 102.55 c 0.73,0 1.46,0.246 1.46,1.445 v 5.078 c 0,37.727 0,44.512 -0.48,52.246 -0.5,8.223 -2.42,12.082 -10.4,13.782 -1.94,0.476 -6.06,0.73 -8.23,0.73 -0.96,0 -1.94,0.481 -1.94,1.445 0,1.458 1.21,1.934 3.87,1.934 10.89,0 26.12,-0.723 27.34,-0.723 1.2,0 16.44,0.723 23.69,0.723 2.67,0 3.87,-0.476 3.87,-1.934 0,-0.964 -0.95,-1.445 -1.93,-1.445 -1.68,0 -3.14,-0.254 -6.04,-0.73 -6.53,-1.203 -8.46,-5.313 -8.96,-13.782 -0.48,-7.734 -0.48,-14.519 -0.48,-52.246 v -42.578" /><path
         id="path42"
         style="fill:#231f20;fill-opacity:1;fill-rule:nonzero;stroke:none"
         d="m 1719.79,390.863 c 0.96,0 0.96,0.469 0.72,1.438 l -21.04,56.355 c -1.21,3.157 -2.43,3.157 -3.63,0 l -19.83,-56.355 c -0.24,-0.969 0,-1.438 0.72,-1.438 z m -23.71,85.617 c 2.66,6.766 3.64,7.989 5.07,7.989 2.18,0 2.91,-2.91 5.09,-7.512 3.88,-8.699 37.97,-93.594 51.04,-124.805 7.74,-18.379 13.53,-21.035 18.13,-22.488 3.14,-0.957 6.29,-1.203 8.47,-1.203 1.21,0 2.65,-0.496 2.65,-1.699 0,-1.211 -2.41,-1.699 -4.83,-1.699 -3.15,0 -18.86,0 -33.61,0.488 -4.12,0.254 -7.51,0.254 -7.51,1.457 0,0.957 0.49,0.957 1.45,1.453 1.22,0.488 3.4,2.16 1.94,5.559 l -19.11,47.156 c -0.48,0.976 -0.72,1.23 -1.94,1.23 h -49.09 c -0.96,0 -1.69,-0.496 -2.18,-1.699 l -12.09,-32.91 c -1.94,-5.067 -3.14,-10.156 -3.14,-13.777 0,-4.114 3.63,-5.559 7.25,-5.559 h 1.94 c 1.69,0 2.17,-0.742 2.17,-1.699 0,-1.211 -1.2,-1.699 -3.14,-1.699 -5.08,0 -16.69,0.742 -19.11,0.742 -2.17,0 -12.82,-0.742 -21.53,-0.742 -2.65,0 -4.11,0.488 -4.11,1.699 0,0.957 0.98,1.699 1.94,1.699 1.45,0 4.6,0.246 6.29,0.488 9.68,1.211 13.78,8.438 17.9,18.848 l 50.06,128.683" /><path
         id="path44"
         style="fill:#231f20;fill-opacity:1;fill-rule:nonzero;stroke:none"
         d="m 1943.07,355.551 h 0.95 c 5.34,16.933 24.45,76.418 31.94,102.793 2.17,7.734 2.41,10.148 2.41,12.804 0,3.633 -1.69,6.055 -11.36,6.055 -1.22,0 -1.94,1.211 -1.94,1.934 0,0.976 0.97,1.453 3.62,1.453 10.9,0 19.85,-0.477 21.77,-0.477 1.45,0 10.64,0.477 17.18,0.477 1.93,0 2.91,-0.477 2.91,-1.211 0,-0.965 -0.5,-2.176 -1.94,-2.176 -0.72,0 -4.85,-0.246 -7.26,-0.969 -6.28,-2.175 -9.67,-10.398 -13.79,-21.765 -9.43,-26.125 -30.47,-91.438 -38.94,-114.395 -5.55,-15.254 -6.77,-17.668 -9.19,-17.668 -2.17,0 -4.11,2.657 -7.01,10.657 l -41.6,112.46 c -7.26,-17.91 -36.04,-93.117 -43.78,-112.238 -3.63,-8.691 -5.09,-10.879 -7.5,-10.879 -2.18,0 -3.87,2.188 -8.21,16.211 l -37.75,121.906 c -3.37,10.879 -5.55,13.536 -11.12,15.477 -2.9,0.957 -8.21,1.203 -9.67,1.203 -0.97,0 -1.94,0.731 -1.94,1.934 0,0.976 1.45,1.453 3.4,1.453 11.12,0 22.97,-0.477 25.14,-0.477 1.94,0 11.61,0.477 22.25,0.477 2.91,0 3.88,-0.477 3.88,-1.453 0,-1.203 -1.22,-1.934 -2.18,-1.934 -1.7,0 -5.08,0 -7.49,-1.203 -1.46,-0.496 -2.91,-1.699 -2.91,-4.355 0,-2.657 1.69,-9.922 4.11,-19.11 3.39,-13.066 25.16,-88.515 27.81,-96.984 h 0.49 l 44.49,114.875 c 3.16,8.23 4.61,9.433 5.81,9.433 1.46,0 3.16,-2.656 5.81,-9.668 l 41.61,-114.64" /><path
         id="path46"
         style="fill:#231f20;fill-opacity:1;fill-rule:nonzero;stroke:none"
         d="m 2093.06,390.863 c 0.97,0 0.97,0.469 0.73,1.438 l -21.05,56.355 c -1.2,3.157 -2.42,3.157 -3.63,0 l -19.83,-56.355 c -0.24,-0.969 0,-1.438 0.73,-1.438 z m -23.69,85.617 c 2.65,6.766 3.62,7.989 5.06,7.989 2.18,0 2.9,-2.91 5.08,-7.512 3.88,-8.699 37.97,-93.594 51.04,-124.805 7.74,-18.379 13.53,-21.035 18.14,-22.488 3.14,-0.957 6.29,-1.203 8.47,-1.203 1.2,0 2.65,-0.496 2.65,-1.699 0,-1.211 -2.41,-1.699 -4.83,-1.699 -3.15,0 -18.87,0 -33.62,0.488 -4.11,0.254 -7.5,0.254 -7.5,1.457 0,0.957 0.49,0.957 1.44,1.453 1.22,0.488 3.4,2.16 1.95,5.559 l -19.11,47.156 c -0.49,0.976 -0.73,1.23 -1.94,1.23 h -49.1 c -0.96,0 -1.68,-0.496 -2.18,-1.699 l -12.08,-32.91 c -1.94,-5.067 -3.15,-10.156 -3.15,-13.777 0,-4.114 3.63,-5.559 7.26,-5.559 h 1.93 c 1.7,0 2.18,-0.742 2.18,-1.699 0,-1.211 -1.21,-1.699 -3.15,-1.699 -5.07,0 -16.69,0.742 -19.11,0.742 -2.17,0 -12.8,-0.742 -21.52,-0.742 -2.66,0 -4.11,0.488 -4.11,1.699 0,0.957 0.97,1.699 1.93,1.699 1.45,0 4.61,0.246 6.29,0.488 9.68,1.211 13.8,8.438 17.91,18.848 l 50.07,128.683" /><path
         id="path48"
         style="fill:#231f20;fill-opacity:1;fill-rule:nonzero;stroke:none"
         d="m 2214.26,384.82 c 0,-19.843 0,-36.054 0.97,-44.523 0.73,-6.035 1.45,-9.922 7.74,-10.879 3.14,-0.469 7.74,-0.957 9.68,-0.957 1.2,0 1.7,-0.965 1.7,-1.699 0,-0.957 -0.98,-1.699 -3.39,-1.699 -11.87,0 -25.65,0.742 -26.61,0.742 -1.22,0 -14.52,-0.742 -21.05,-0.742 -2.18,0 -3.38,0.488 -3.38,1.699 0,0.734 0.48,1.699 1.69,1.699 1.93,0 4.59,0.488 6.52,0.957 4.12,0.957 4.84,4.844 5.57,10.879 0.97,8.469 1.22,24.68 1.22,44.523 v 36.27 c 0,31.922 0,37.734 -0.5,44.265 -0.47,7.012 -2.17,10.149 -6.76,11.125 -2.43,0.477 -5.08,0.723 -6.54,0.723 -0.95,0 -1.69,0.965 -1.69,1.688 0,1.222 0.97,1.699 3.39,1.699 7.01,0 20.31,-0.477 21.53,-0.477 0.96,0 14.74,0.477 21.28,0.477 2.43,0 3.38,-0.477 3.38,-1.699 0,-0.723 -0.95,-1.688 -1.69,-1.688 -1.44,0 -2.9,0 -5.32,-0.488 -5.81,-1.211 -7.01,-4.113 -7.5,-11.36 -0.24,-6.531 -0.24,-12.343 -0.24,-44.265 v -36.27" /><path
         id="path50"
         style="fill:#231f20;fill-opacity:1;fill-rule:nonzero;stroke:none"
         d="m 2290,469.469 c 1.92,-2.18 2.16,-2.91 2.16,-4.114 0,-0.722 -1.2,-1.453 -2.16,-1.453 -3.88,0 -13.08,2.911 -16.93,4.356 -2.91,1.445 -4.11,2.656 -4.11,6.289 0,17.168 12.32,37.48 20.79,47.644 0.97,1.446 1.93,1.934 3.14,1.934 0.49,0 1.21,-0.488 1.21,-1.211 0,-0.723 -0.24,-1.453 -0.97,-3.144 -3.63,-7.743 -7.98,-20.801 -7.98,-34.59 0,-7.5 3.15,-13.778 4.85,-15.711" /><path
         id="path52"
         style="fill:#231f20;fill-opacity:1;fill-rule:nonzero;stroke:none"
         d="m 2368.61,384.82 c 0,-19.843 0,-36.054 0.97,-44.523 0.73,-6.035 1.46,-9.922 7.74,-10.879 3.14,-0.469 7.74,-0.957 9.67,-0.957 1.21,0 1.7,-0.965 1.7,-1.699 0,-0.957 -0.98,-1.699 -3.38,-1.699 -11.86,0 -25.64,0.742 -26.62,0.742 -1.2,0 -14.5,-0.742 -21.03,-0.742 -2.18,0 -3.39,0.488 -3.39,1.699 0,0.734 0.48,1.699 1.7,1.699 1.93,0 4.59,0.488 6.52,0.957 4.11,0.957 4.83,4.844 5.56,10.879 0.97,8.469 1.22,24.68 1.22,44.523 v 36.27 c 0,31.922 0,37.734 -0.49,44.265 -0.49,7.012 -2.18,10.149 -6.77,11.125 -2.43,0.477 -5.09,0.723 -6.53,0.723 -0.97,0 -1.69,0.965 -1.69,1.688 0,1.222 0.96,1.699 3.38,1.699 7.02,0 20.32,-0.477 21.52,-0.477 0.98,0 14.76,0.477 21.29,0.477 2.42,0 3.38,-0.477 3.38,-1.699 0,-0.723 -0.96,-1.688 -1.68,-1.688 -1.46,0 -2.91,0 -5.33,-0.488 -5.8,-1.211 -7.01,-4.113 -7.49,-11.36 -0.25,-6.531 -0.25,-12.343 -0.25,-44.265 v -36.27" /><path
         id="path54"
         style="fill:#231f20;fill-opacity:1;fill-rule:nonzero;stroke:none"
         d="m 1418.36,168.184 c 0.53,2.988 1.58,4.589 3,4.589 1.41,0 2.47,-0.878 4.76,-5.449 l 48.19,-99.5506 48,100.7816 c 1.41,2.832 2.3,4.218 3.88,4.218 1.59,0 2.65,-1.757 3.18,-5.449 l 16.07,-109.1013 c 1.59,-11.0938 3.35,-16.211 8.64,-17.8125 5.12,-1.6016 8.64,-1.7774 10.95,-1.7774 1.58,0 2.81,-0.1758 2.81,-1.2305 0,-1.4062 -2.11,-1.9335 -4.59,-1.9335 -4.4,0 -28.76,0.5273 -35.81,1.0546 -4.06,0.3711 -5.13,0.8789 -5.13,1.9336 0,0.8985 0.71,1.4258 1.94,1.9532 1.06,0.332 1.59,2.6562 0.89,7.5781 l -10.6,77.6567 h -0.7 l -38.48,-80.1177 c -4.06,-8.3007 -4.93,-9.9023 -6.53,-9.9023 -1.58,0 -3.34,3.5547 -6.17,8.8477 -4.24,8.125 -18.18,35.1171 -20.3,40.0586 -1.59,3.7109 -12.17,25.9377 -18.36,39.1797 h -0.7 l -9.18,-70.2344 c -0.35,-3.1836 -0.53,-5.4883 -0.53,-8.3008 0,-3.3594 2.29,-4.9414 5.3,-5.6641 3.17,-0.7031 5.64,-0.8789 7.42,-0.8789 1.4,0 2.65,-0.3515 2.65,-1.2305 0,-1.582 -1.6,-1.9335 -4.25,-1.9335 -7.42,0 -15.34,0.5273 -18.54,0.5273 -3.34,0 -11.82,-0.5273 -17.47,-0.5273 -1.76,0 -3.17,0.3515 -3.17,1.9335 0,0.879 1.05,1.2305 2.83,1.2305 1.4,0 2.65,0 5.29,0.5469 4.94,1.0547 6.35,7.9492 7.24,13.9258 l 17.47,115.0785" /><path
         id="path56"
         style="fill:#231f20;fill-opacity:1;fill-rule:nonzero;stroke:none"
         d="m 1642.74,81.5234 c 0.72,0 0.89,0.3516 0.72,0.8985 l -14.66,38.1051 c -0.17,0.547 -0.35,1.407 -0.69,1.407 -0.54,0 -0.72,-0.86 -0.89,-1.407 l -15,-37.9489 c -0.36,-0.7031 0,-1.0547 0.52,-1.0547 z m -33.17,-8.2812 c -0.89,0 -1.05,-0.1758 -1.42,-1.0742 l -8.29,-20.1172 c -1.59,-3.6914 -2.3,-7.4024 -2.3,-9.1797 0,-2.6367 1.41,-4.2383 6.18,-4.2383 h 2.3 c 1.93,0 2.29,-0.6836 2.29,-1.582 0,-1.2305 -0.89,-1.582 -2.47,-1.582 -5.13,0 -12.35,0.5273 -17.3,0.5273 -1.58,0 -9.89,-0.5273 -17.99,-0.5273 -1.95,0 -2.84,0.3515 -2.84,1.582 0,0.8984 0.53,1.582 1.78,1.582 1.4,0 3.18,0.1758 4.57,0.1758 7.07,1.0742 9.71,5.6641 12.9,13.2422 l 40.59,94.4142 c 1.77,4.238 3,6.015 4.59,6.015 2.29,0 3,-1.406 4.58,-4.746 3.72,-8.32 29.66,-69.7262 39.55,-92.5192 5.99,-13.5742 10.41,-15.5273 13.22,-16.0351 2.31,-0.3711 4.06,-0.5469 5.84,-0.5469 1.4,0 2.11,-0.5078 2.11,-1.582 0,-1.2305 -0.88,-1.582 -6.7,-1.582 -5.48,0 -16.78,0 -29.83,0.3515 -2.82,0.1758 -4.59,0.1758 -4.59,1.2305 0,0.8984 0.35,1.4062 1.93,1.582 1.07,0.1758 2.13,1.6016 1.42,3.3789 L 1647.7,72.168 c -0.37,0.8984 -0.89,1.0742 -1.6,1.0742 h -36.53" /><path
         id="path58"
         style="fill:#231f20;fill-opacity:1;fill-rule:nonzero;stroke:none"
         d="m 1729.16,55.9375 c 0.36,-11.6406 2.3,-15.1953 5.3,-16.25 2.65,-0.8789 5.65,-1.0547 8.13,-1.0547 1.76,0 2.64,-0.6836 2.64,-1.582 0,-1.2305 -1.41,-1.582 -3.53,-1.582 -10.07,0 -17.31,0.5273 -20.12,0.5273 -1.41,0 -8.84,-0.5273 -16.78,-0.5273 -2.1,0 -3.52,0.1562 -3.52,1.582 0,0.8984 1.05,1.582 2.47,1.582 2.12,0 4.95,0.1758 7.06,0.7227 4.06,1.0547 4.59,5.1172 4.77,18.1836 l 1.41,88.9259 c 0,3.008 1.06,5.117 2.65,5.117 1.94,0 4.06,-2.285 6.7,-4.922 1.95,-1.933 25.24,-25.781 47.83,-47.8319 10.6,-10.4101 31.24,-31.6015 33.54,-33.7109 h 0.71 l -1.59,66.7188 c -0.19,9.18 -1.59,11.836 -5.31,13.242 -2.28,0.879 -5.99,0.879 -8.1,0.879 -1.95,0 -2.48,0.703 -2.48,1.582 0,1.25 1.59,1.426 3.87,1.426 8.13,0 16.42,-0.371 19.78,-0.371 1.76,0 7.6,0.371 15.18,0.371 2.11,0 3.52,-0.176 3.52,-1.426 0,-0.879 -0.88,-1.582 -2.64,-1.582 -1.59,0 -2.82,0 -4.76,-0.547 -4.24,-1.23 -5.48,-3.867 -5.65,-12.344 l -1.77,-94.609 c 0,-3.3398 -1.23,-4.7461 -2.46,-4.7461 -2.66,0 -4.78,1.5821 -6.36,3.1836 -9.71,8.9844 -29.13,27.5 -45.36,43.2227 -16.95,16.25 -33.36,34.4138 -36.36,37.0708 h -0.53 l 1.76,-61.2505" /><path
         id="path60"
         style="fill:#231f20;fill-opacity:1;fill-rule:nonzero;stroke:none"
         d="m 1956.04,89.4727 c 0,33.1833 -19.94,53.6523 -45,53.6523 -17.29,0 -37.59,-9.18 -37.59,-46.2305 0,-30.8984 17.65,-55.2539 46.95,-55.2539 10.94,0 35.64,5.1172 35.64,47.8321 z m -105.54,2.832 c 0,25.5663 18.02,58.7693 65.13,58.7693 39.18,0 63.54,-21.699 63.54,-56.1326 0,-34.4141 -25.07,-61.4258 -65.13,-61.4258 -45.18,0 -63.54,32.1485 -63.54,58.7891" /><path
         id="path62"
         style="fill:#231f20;fill-opacity:1;fill-rule:nonzero;stroke:none"
         d="m 2056.75,81.5234 c 0.71,0 0.89,0.3516 0.71,0.8985 l -14.66,38.1051 c -0.16,0.547 -0.35,1.407 -0.69,1.407 -0.54,0 -0.71,-0.86 -0.89,-1.407 l -15,-37.9489 c -0.36,-0.7031 0,-1.0547 0.53,-1.0547 z m -33.18,-8.2812 c -0.88,0 -1.05,-0.1758 -1.41,-1.0742 l -8.29,-20.1172 c -1.59,-3.6914 -2.31,-7.4024 -2.31,-9.1797 0,-2.6367 1.42,-4.2383 6.18,-4.2383 h 2.3 c 1.93,0 2.29,-0.6836 2.29,-1.582 0,-1.2305 -0.88,-1.582 -2.47,-1.582 -5.12,0 -12.36,0.5273 -17.29,0.5273 -1.58,0 -9.89,-0.5273 -18,-0.5273 -1.94,0 -2.83,0.3515 -2.83,1.582 0,0.8984 0.53,1.582 1.77,1.582 1.4,0 3.18,0.1758 4.58,0.1758 7.06,1.0742 9.7,5.6641 12.9,13.2422 l 40.58,94.4142 c 1.77,4.238 3,6.015 4.59,6.015 2.3,0 3,-1.406 4.58,-4.746 3.72,-8.32 29.66,-69.7262 39.55,-92.5192 5.99,-13.5742 10.41,-15.5273 13.23,-16.0351 2.3,-0.3711 4.06,-0.5469 5.84,-0.5469 1.39,0 2.1,-0.5078 2.1,-1.582 0,-1.2305 -0.87,-1.582 -6.69,-1.582 -5.48,0 -16.78,0 -29.84,0.3515 -2.83,0.1758 -4.59,0.1758 -4.59,1.2305 0,0.8984 0.35,1.4062 1.94,1.582 1.05,0.1758 2.12,1.6016 1.41,3.3789 L 2061.7,72.168 c -0.36,0.8984 -0.89,1.0742 -1.59,1.0742 h -36.54" /><path
         id="path64"
         style="fill:#00452a;fill-opacity:1;fill-rule:nonzero;stroke:none"
         d="m 1020.95,249.102 v -11.075 h 1440.1 v 11.075 h -1440.1" /><path
         id="path66"
         style="fill:#231f20;fill-opacity:1;fill-rule:nonzero;stroke:none"
         d="m 2441.78,459.613 h 2.93 c 3.19,0 6.15,1.231 6.15,4.453 0,2.266 -1.53,4.629 -6.36,4.629 -1.23,0 -2.06,-0.097 -2.72,-0.195 z m 0,-12.761 h -3.03 v 23.738 c 2.06,0.285 3.76,0.566 6.12,0.566 3.32,0 5.59,-0.761 7.01,-1.797 1.44,-1.035 2.17,-2.656 2.17,-4.824 0,-3.211 -2.17,-5.105 -4.63,-5.859 v -0.196 c 2.1,-0.378 3.5,-2.265 4.07,-5.769 0.56,-3.691 1.13,-5.109 1.63,-5.859 h -3.24 c -0.56,0.75 -1.23,2.929 -1.79,6.054 -0.67,3.211 -2.19,4.442 -5.49,4.442 h -2.82 z m 4.16,30.925 c -9.65,0 -17.4,-8.328 -17.4,-18.535 0,-10.41 7.75,-18.73 17.56,-18.73 9.68,-0.098 17.33,8.32 17.33,18.633 0,10.304 -7.65,18.632 -17.39,18.632 z m 0.1,2.649 c 11.54,0 20.69,-9.27 20.69,-21.184 0,-12.109 -9.15,-21.387 -20.79,-21.387 -11.55,0 -20.92,9.278 -20.92,21.387 0,11.914 9.37,21.184 20.92,21.184 h 0.1" /><path
         id="path68"
         style="fill:#231f20;fill-opacity:1;fill-rule:nonzero;stroke:none"
         d="m 1657.05,166.504 c 0,-1.152 -0.93,-2.09 -2.09,-2.09 H 1610 c -1.15,0 -2.09,0.938 -2.09,2.09 v 3.769 c 0,1.133 0.94,2.09 2.09,2.09 h 44.96 c 1.16,0 2.09,-0.957 2.09,-2.09 v -3.769" /><path
         id="path70"
         style="fill:#00452a;fill-opacity:1;fill-rule:nonzero;stroke:none"
         d="m 713.113,16.7969 -1.465,16.6211 c -0.132,1.4843 0,3.75 -0.078,5.664 h -0.191 c -0.664,-1.9726 -1.477,-4.375 -2.277,-6.289 l -6.758,-15.6836 h -2.141 l -6.824,16.1914 c -0.664,1.5234 -1.465,3.8672 -2.012,5.7812 h -0.195 c -0.067,-1.9726 0.066,-3.6914 -0.137,-5.664 l -1.34,-16.6211 h -2.605 l 2.273,24.4922 h 3.215 l 6.887,-15.7422 c 0.68,-1.543 1.211,-3.4571 1.953,-5.8399 h 0.125 c 0.605,2.3243 1.211,4.3555 1.875,5.8985 l 6.758,15.6836 h 3.281 l 2.336,-24.4922 z m -26.414,24.4922 v -2.0899 h -9.304 V 16.7969 h -2.551 v 22.4023 h -9.297 v 2.0899 h 21.152" /></g></g></svg>